<svg xmlns="http://www.w3.org/2000/svg" width="256" height="256"><path fill="#773cc3" fill-opacity=".239" fill-rule="evenodd" d="M0 128.004v128.004l128.25-.254 128.25-.254.254-127.75L257.008 0H0v128.004m.485.496c0 70.4.119 99.053.265 63.672.146-35.38.146-92.98 0-128C.604 29.153.485 58.1.485 128.5"/><path fill="#773cc3" fill-opacity=".124" fill-rule="evenodd" d="M0 128.004v128.004l128.25-.254 128.25-.254.254-127.75L257.008 0H0v128.004m.485.496c0 70.4.119 99.053.265 63.672.146-35.38.146-92.98 0-128C.604 29.153.485 58.1.485 128.5m88.297-91.75L88.5 48.5l-6.25.298-6.25.297V84l28.75.005c15.813.003 33.137.296 38.5.651l9.75.646V73h13V37h-13V25H89.063l-.281 11.75M47.18 92.25c.203 1.424 1.124 2.364 2.509 2.561 1.363.195 2.305 1.137 2.5 2.5.197 1.385 1.137 2.306 2.561 2.509 1.362.193 2.25 1.015 2.25 2.083 0 2.388.755 2.974 3.058 2.372 1.068-.28 1.942-1.356 1.942-2.392 0-2.91 4.763-2.573 5.18.367.21 1.477 1.007 2.25 2.32 2.25s2.11-.773 2.32-2.25c.26-1.832-.158-2.25-2.25-2.25-2.075 0-2.57-.482-2.57-2.5 0-2-.5-2.5-2.5-2.5s-2.5-.5-2.5-2.5-.5-2.5-2.5-2.5-2.5.5-2.5 2.5-.5 2.5-2.5 2.5-2.5-.5-2.5-2.5c0-2.018-.495-2.5-2.57-2.5-2.092 0-2.51.418-2.25 2.25M97 95c0 4.667-.167 5-2.5 5-2 0-2.5.5-2.5 2.5s-.5 2.5-2.5 2.5-2.5.5-2.5 2.5c0 2.364-.3 2.5-5.5 2.5H76v24h13v24h26V169.905l6.25.297 6.25.298.3 5.75.3 5.75h11.805l.297 6.25.298 6.25 32 .205 32 .205.3 5.545.3 5.545h12.946l-.273-17.75-.273-17.75-6.25-.298-6.25-.297V158h-13v-12h-39v-24h-13v-12h-24v-2.5c0-2-.5-2.5-2.5-2.5s-2.5-.5-2.5-2.5-.5-2.5-2.5-2.5c-2.333 0-2.5-.333-2.5-5v-5h-9v5m20.18-2.75c.203 1.424 1.124 2.364 2.509 2.561 1.363.195 2.305 1.137 2.5 2.5.194 1.364 1.136 2.306 2.5 2.5 1.363.195 2.305 1.137 2.5 2.5.431 3.032 4.198 2.982 4.631-.061.417-2.94 5.18-3.277 5.18-.367 0 1.036.874 2.112 1.942 2.392 2.32.606 3.058.017 3.058-2.442 0-1.289-.742-1.833-2.5-1.833-2 0-2.5-.5-2.5-2.5s-.5-2.5-2.5-2.5-2.5-.5-2.5-2.5-.5-2.5-2.5-2.5-2.5.5-2.5 2.5-.5 2.5-2.5 2.5-2.5-.5-2.5-2.5c0-2.018-.495-2.5-2.57-2.5-2.092 0-2.51.418-2.25 2.25M57 97.5c0 2 .5 2.5 2.5 2.5s2.5-.5 2.5-2.5-.5-2.5-2.5-2.5-2.5.5-2.5 2.5m70 0c0 2 .5 2.5 2.5 2.5s2.5-.5 2.5-2.5-.5-2.5-2.5-2.5-2.5.5-2.5 2.5"/><path fill="#773cc3" fill-opacity=".529" fill-rule="evenodd" d="M0 128.004v128.004l128.25-.254 128.25-.254.254-127.75L257.008 0H0v128.004m.485.496c0 70.4.119 99.053.265 63.672.146-35.38.146-92.98 0-128C.604 29.153.485 58.1.485 128.5m62.313-98.36L62.5 36.3l-6 .1-6 .1-.298 6.25-.297 6.25H37.069l.216 17.75.215 17.75 58.25.258 58.25.258V73.095l6.25-.297 6.25-.298v-36l-6.201-.296-6.202-.297-.298-5.703-.299-5.704-45.202-.26-45.202-.26-.298 6.16M47 92.5c0 2 .5 2.5 2.5 2.5s2.5.5 2.5 2.5.5 2.5 2.5 2.5 2.5.5 2.5 2.5.5 2.5 2.5 2.5 2.5-.5 2.5-2.5.5-2.5 2.5-2.5 2.5.5 2.5 2.5.5 2.5 2.5 2.5 2.5-.5 2.5-2.5-.5-2.5-2.5-2.5-2.5-.5-2.5-2.5-.5-2.5-2.5-2.5-2.5-.5-2.5-2.5-.5-2.5-2.5-2.5-2.5.5-2.5 2.5-.5 2.5-2.5 2.5-2.5-.5-2.5-2.5-.5-2.5-2.5-2.5-2.5.5-2.5 2.5M97 95c0 4.667-.167 5-2.5 5-2 0-2.5.5-2.5 2.5s-.5 2.5-2.5 2.5-2.5.5-2.5 2.5v2.5H52v-2.5c0-2-.5-2.5-2.5-2.5s-2.5-.5-2.5-2.5-.5-2.5-2.5-2.5-2.5-.5-2.5-2.5c0-1.993-.502-2.5-2.475-2.5H37.05v75H50v24h13v13h13v12h13v12h103v-12h13v-12h13v-37h-13v-12h-13v-12h-37.938l-.281-12.25-.281-12.25-6.25-.298-6.25-.297v-10.843l-12.25-.281c-11.74-.269-12.263-.372-12.561-2.47-.195-1.363-1.137-2.305-2.5-2.5-1.385-.197-2.306-1.137-2.509-2.561-.205-1.446-1.009-2.25-2.25-2.25-1.649 0-1.93-.727-1.93-5v-5H97v5m20-2.5c0 2 .5 2.5 2.5 2.5s2.5.5 2.5 2.5.5 2.5 2.5 2.5 2.5.5 2.5 2.5.5 2.5 2.5 2.5 2.5-.5 2.5-2.5.5-2.5 2.5-2.5 2.5.5 2.5 2.5.5 2.5 2.5 2.5 2.5-.5 2.5-2.5-.5-2.5-2.5-2.5-2.5-.5-2.5-2.5-.5-2.5-2.5-2.5-2.5-.5-2.5-2.5-.5-2.5-2.5-2.5-2.5.5-2.5 2.5-.5 2.5-2.5 2.5-2.5-.5-2.5-2.5-.5-2.5-2.5-2.5-2.5.5-2.5 2.5m-60 5c0 2 .5 2.5 2.5 2.5s2.5-.5 2.5-2.5-.5-2.5-2.5-2.5-2.5.5-2.5 2.5m70 0c0 2 .5 2.5 2.5 2.5s2.5-.5 2.5-2.5-.5-2.5-2.5-2.5-2.5.5-2.5 2.5"/><path fill="#773cc3" fill-opacity=".975" fill-rule="evenodd" d="M37.195 89.75c.258 4.011.646 4.798 2.494 5.061 1.363.195 2.305 1.137 2.5 2.5.194 1.364 1.136 2.306 2.5 2.5 1.362.194 2.307 1.138 2.503 2.5.23 1.6.919 2.125 2.561 1.951 1.791-.19 2.247.266 2.247 2.25V109h35.126l-.313-2.25c-.235-1.691.246-2.329 1.937-2.57 1.446-.205 2.25-1.009 2.25-2.25 0-1.392.697-1.93 2.5-1.93 2.333 0 2.5-.333 2.5-5v-5h11v5c0 4.667.167 5 2.5 5 1.803 0 2.5.538 2.5 1.93 0 1.241.804 2.045 2.25 2.25 1.446.206 2.364 1.124 2.57 2.57.305 2.149.737 2.25 9.599 2.25 5.103 0 12.722.291 16.93.647l7.651.646v-2.646c0-2.157.463-2.647 2.5-2.647 2 0 2.5-.5 2.5-2.5s.5-2.5 2.5-2.5 2.5-.5 2.5-2.5.5-2.5 2.5-2.5c2.333 0 2.5-.333 2.5-5v-5H36.89l.305 4.75M47 92.5c0 2 .5 2.5 2.5 2.5s2.5.5 2.5 2.5.5 2.5 2.5 2.5 2.5.5 2.5 2.5.5 2.5 2.5 2.5 2.5-.5 2.5-2.5.5-2.5 2.5-2.5 2.5.5 2.5 2.5c0 2.017.496 2.5 2.566 2.5 2.21 0 2.523-.382 2.25-2.75-.227-1.978-.878-2.75-2.316-2.75-1.313 0-2.11-.773-2.32-2.25-.175-1.237-.738-2.306-1.25-2.375a79.304 79.304 0 0 0-2.18-.25c-.687-.069-1.394-1.138-1.57-2.375-.441-3.106-4.903-3.181-5.36-.091-.463 3.129-3.82 3.351-3.82.253C53 90.399 52.504 90 50 90c-2.533 0-3 .389-3 2.5m70 0c0 2 .5 2.5 2.5 2.5s2.5.5 2.5 2.5.5 2.5 2.5 2.5 2.5.5 2.5 2.5.5 2.5 2.5 2.5 2.5-.5 2.5-2.5.5-2.5 2.5-2.5 2.5.5 2.5 2.5c0 2.017.496 2.5 2.566 2.5 2.21 0 2.523-.382 2.25-2.75-.224-1.953-.882-2.75-2.268-2.75-1.257 0-2.163-.889-2.545-2.497-.381-1.608-1.288-2.498-2.547-2.5-1.266-.002-2.069-.797-2.276-2.253-.228-1.608-.993-2.25-2.68-2.25-1.687 0-2.452.642-2.68 2.25-.21 1.477-1.007 2.25-2.32 2.25s-2.11-.773-2.32-2.25c-.484-3.414-5.18-3.187-5.18.25m-59.82 4.75c.21 1.477 1.007 2.25 2.32 2.25s2.11-.773 2.32-2.25c.262-1.846-.155-2.25-2.32-2.25s-2.582.404-2.32 2.25m70 0c.21 1.477 1.007 2.25 2.32 2.25s2.11-.773 2.32-2.25c.262-1.846-.155-2.25-2.32-2.25s-2.582.404-2.32 2.25"/></svg>