<svg xmlns="http://www.w3.org/2000/svg" width="256" height="256"><path fill-opacity=".016" d="M0 128.004v128.004l128.25-.254 128.25-.254.254-127.75L257.008 0H0v128.004m.485.496c0 70.4.119 99.053.265 63.672.146-35.38.146-92.98 0-128C.604 29.153.485 58.1.485 128.5" fill="#1976D2" fill-rule="evenodd"/><path fill-opacity=".227" d="M113 .605C92.23 4.416 83.605 7.133 69.625 14.272 36.381 31.246 13.036 60.652 3.328 97.779c-3.511 13.428-4.346 36.454-1.861 51.314 8.309 49.691 44.436 89.655 93.56 103.495 8.292 2.337 11.83 2.729 28.386 3.151 21.735.555 29.123-.33 44.366-5.314 44.707-14.617 77.512-51.961 86.901-98.925 1.901-9.508 2.916-36.919 1.478-39.926-.545-1.141-1.513-4.999-2.15-8.574-4.087-22.927-17.141-47.198-34.976-65.031C200.95 19.887 179.245 8.051 154 2.506 146.746.912 118.471-.398 113 .605M48 92c0 1.333.667 2 2 2s2-.667 2-2-.667-2-2-2-2 .667-2 2m9.429 0c0 1.417.666 2 2.285 2C61.333 94 62 93.417 62 92s-.667-2-2.286-2-2.285.583-2.285 2M118 92c0 1.333.667 2 2 2s2-.667 2-2-.667-2-2-2-2 .667-2 2m9.71 0c.288 1.1 1.274 2 2.192 2 1.003 0 1.669-.799 1.669-2 0-1.392-.666-2-2.192-2-1.699 0-2.074.449-1.669 2M53 97c0 1.333.667 2 2 2s2-.667 2-2-.667-2-2-2-2 .667-2 2m9.429 0c0 1.417.666 2 2.285 2C66.333 99 67 98.417 67 97s-.667-2-2.286-2-2.285.583-2.285 2m60.281 0c-.416 1.591-.03 2 1.884 2 1.739 0 2.406-.554 2.406-2 0-1.292-.667-2-1.883-2-1.043 0-2.117.893-2.407 2m9.29 0c0 1.467.667 2 2.5 2s2.5-.533 2.5-2-.667-2-2.5-2-2.5.533-2.5 2m-74.571 5c0 1.417.666 2 2.285 2 1.619 0 2.286-.583 2.286-2s-.667-2-2.286-2-2.285.583-2.285 2m10 0c0 1.356.666 2 2.071 2 1.405 0 2.071-.644 2.071-2 0-1.356-.666-2-2.071-2-1.405 0-2.071.644-2.071 2m60.281 0c-.405 1.551-.03 2 1.669 2 1.526 0 2.192-.608 2.192-2 0-1.201-.666-2-1.669-2-.918 0-1.904.9-2.192 2m9.29 0c0 1.417.667 2 2.286 2s2.285-.583 2.285-2-.666-2-2.285-2c-1.619 0-2.286.583-2.286 2M.402 128c0 8.525.154 12.012.341 7.75.188-4.262.188-11.237 0-15.5-.187-4.263-.341-.775-.341 7.75M166.2 163.75l.3 5.75 12.75.28 12.75.28V158h-26.1l.3 5.75" fill="#1976D2" fill-rule="evenodd"/><path fill-opacity=".124" d="M109.668 1.568C61.908 8.997 23.109 40.976 7.231 86 1.965 100.93.557 109.757.527 128c-.029 17.699 1.271 26.432 6.101 41 14.297 43.123 51.352 75.826 96.295 84.984 12.547 2.557 35.87 2.772 48.143.444 26.49-5.025 47.815-16.282 67.039-35.388 19.678-19.556 31.021-41.018 36.491-69.04 1.989-10.19 2.986-32.439 1.587-35.407-.543-1.151-1.537-5.468-2.209-9.593-2.502-15.362-9.9-33.617-19.395-47.865-27.133-40.709-77.213-62.987-124.911-55.567M89 36v12H76.087l-.293 18.001-.294 18.001 38.7-.001L152.9 84l.3-5.75.3-5.75 6.25-.298 6.25-.297V36h-13V24H89v12M66.25 83.716c1.513.229 3.987.229 5.5 0s.275-.416-2.75-.416-4.263.187-2.75.416M47 92c0 1.467.667 2 2.5 2s2.5-.533 2.5-2-.667-2-2.5-2-2.5.533-2.5 2m10 0c0 1.467.667 2 2.5 2s2.5-.533 2.5-2-.667-2-2.5-2-2.5.533-2.5 2m40 3c0 4.667-.167 5-2.5 5-2 0-2.5.5-2.5 2.5s-.5 2.5-2.5 2.5-2.5.5-2.5 2.5c0 2.377-.283 2.5-5.75 2.498l-5.75-.002.309 12.002.309 12.002H89v24h26v12h11.9l.3 5.75.3 5.75 6.25.298 6.25.297V194h65v12h13v-36h-13v-12h-13v-12h-39l.002-12.25.002-12.25H140.5l-.3-5.75-.3-5.75H116v-2.5c0-2-.5-2.5-2.5-2.5s-2.5-.5-2.5-2.5-.5-2.5-2.5-2.5c-2.333 0-2.5-.333-2.5-5v-5h-9v5m20-3c0 1.467.667 2 2.5 2s2.5-.533 2.5-2-.667-2-2.5-2-2.5.533-2.5 2m10 0c0 1.467.667 2 2.5 2s2.5-.533 2.5-2-.667-2-2.5-2-2.5.533-2.5 2m-75 5c0 1.467.667 2 2.5 2s2.5-.533 2.5-2-.667-2-2.5-2-2.5.533-2.5 2m10 0c0 1.467.667 2 2.5 2s2.5-.533 2.5-2-.667-2-2.5-2-2.5.533-2.5 2m60 0c0 1.467.667 2 2.5 2s2.5-.533 2.5-2-.667-2-2.5-2-2.5.533-2.5 2m10 0c0 1.467.667 2 2.5 2s2.5-.533 2.5-2-.667-2-2.5-2-2.5.533-2.5 2m-75 5c0 1.467.667 2 2.5 2s2.5-.533 2.5-2-.667-2-2.5-2-2.5.533-2.5 2m10 0c0 1.467.667 2 2.5 2s2.5-.533 2.5-2-.667-2-2.5-2-2.5.533-2.5 2m60 0c0 1.467.667 2 2.5 2s2.5-.533 2.5-2-.667-2-2.5-2-2.5.533-2.5 2m10 0c0 1.467.667 2 2.5 2s2.5-.533 2.5-2-.667-2-2.5-2-2.5.533-2.5 2m-70.75 8.716c1.513.229 3.987.229 5.5 0s.275-.416-2.75-.416-4.263.187-2.75.416M.389 128.5c.001 7.15.161 9.944.353 6.208.193-3.735.192-9.585-.003-13-.194-3.414-.352-.358-.35 6.792" fill="#1976D2" fill-rule="evenodd"/><path fill-opacity=".529" d="M113 1.444C63.023 8.621 24.187 39.702 7.641 85.766c-9.583 26.681-9.462 59.597.316 86.117 26.067 70.699 105.229 103.644 174.013 72.421 25.248-11.461 49.473-35.366 61.356-60.545 6.232-13.205 8.375-20.897 12.723-45.676 1.218-6.936 1.212-14.901-.014-20.319-.531-2.345-1.683-8.314-2.561-13.264-9.021-50.86-49.636-91.516-101.435-101.536C138.622.368 124.36-.187 113 1.444M63 30v6H50V47.905l-6.052.297-6.051.298-.199 17.659-.198 17.658 14 .651c7.7.358 33.8.512 58 .341l44-.309.299-5.704.298-5.703 6.202-.297 6.201-.296v-36l-6.25-.298-6.25-.297V24H63v6M47.18 92.25c.203 1.424 1.124 2.364 2.509 2.561 1.363.195 2.305 1.137 2.5 2.5.197 1.385 1.137 2.306 2.561 2.509 1.446.205 2.25 1.009 2.25 2.25 0 1.392.697 1.93 2.5 1.93 1.833 0 2.5-.533 2.5-2s.667-2 2.5-2 2.5.533 2.5 2 .667 2 2.5 2 2.5-.533 2.5-2-.667-2-2.5-2c-2 0-2.5-.5-2.5-2.5s-.5-2.5-2.5-2.5-2.5-.5-2.5-2.5-.5-2.5-2.5-2.5-2.5.5-2.5 2.5-.5 2.5-2.5 2.5-2.5-.5-2.5-2.5c0-2.018-.495-2.5-2.57-2.5-2.092 0-2.51.418-2.25 2.25M97 95c0 4.629-.181 5-2.43 5-1.76 0-2.519.621-2.75 2.25-.203 1.424-1.124 2.364-2.509 2.561-1.363.195-2.305 1.137-2.5 2.5-.304 2.143-.674 2.195-17.561 2.463l-17.25.273v-2.523c0-2.026-.494-2.524-2.5-2.524-2 0-2.5-.5-2.5-2.5s-.5-2.5-2.5-2.5-2.5-.5-2.5-2.5c0-1.926-.517-2.5-2.25-2.5l-2.25-.001.274 37.501.273 37.5H50v24h13v12H75.905l.297 6.25.298 6.25 6 .1 6 .1.298 6.15.297 6.15H192v-12h13v-12h13v-37h-13V158.095l-6.25-.297-6.25-.298-.298-6.25-.297-6.25H154v-24h-12.9l-.3-5.595-.3-5.595-12-.155c-11.528-.149-12.012-.241-12.311-2.344-.195-1.363-1.137-2.305-2.5-2.5-1.419-.201-2.189-1.015-2.189-2.311 0-1.323-.835-2.171-2.466-2.504-2.259-.462-2.442-.904-2.175-5.25l.292-4.746H97v5m20-2.5c0 2 .5 2.5 2.5 2.5s2.5.5 2.5 2.5.5 2.5 2.5 2.5c1.833 0 2.5.533 2.5 2s.667 2 2.5 2 2.5-.533 2.5-2 .667-2 2.5-2 2.5.533 2.5 2 .667 2 2.5 2 2.5-.533 2.5-2-.667-2-2.5-2c-2 0-2.5-.5-2.5-2.5s-.5-2.5-2.5-2.5-2.5-.5-2.5-2.5-.5-2.5-2.5-2.5-2.5.5-2.5 2.5-.5 2.5-2.5 2.5-2.5-.5-2.5-2.5-.5-2.5-2.5-2.5-2.5.5-2.5 2.5m-60 5c0 2 .5 2.5 2.5 2.5s2.5-.5 2.5-2.5-.5-2.5-2.5-2.5-2.5.5-2.5 2.5m70 0c0 2 .5 2.5 2.5 2.5s2.5-.5 2.5-2.5-.5-2.5-2.5-2.5-2.5.5-2.5 2.5M.343 128.5c.003 4.4.179 6.076.39 3.724.212-2.352.209-5.952-.006-8S.339 124.1.343 128.5" fill="#1976D2" fill-rule="evenodd"/></svg>