<svg xmlns="http://www.w3.org/2000/svg" width="256" height="256"><path
    fill="#1976D2"
    fill-opacity=".239"
    fill-rule="evenodd"
    d="M0 128.004v128.004l128.25-.254 128.25-.254.254-127.75L257.008 0H0zm.485.496c0 70.4.119 99.053.265 63.672s.146-92.98 0-128S.485 58.1.485 128.5"
  /><path
    fill="#1976D2"
    fill-opacity=".129"
    fill-rule="evenodd"
    d="M0 128.004v128.004l128.25-.254 128.25-.254.254-127.75L257.008 0H0zm.485.496c0 70.4.119 99.053.265 63.672s.146-92.98 0-128S.485 58.1.485 128.5M100 63.5V72h-9v23.89l-4.75.375c-2.612.206 9.762.456 27.5.555L146 97v-3.943c0-3.923.021-3.943 4.25-4.25l4.25-.307v-25l-4.25-.307c-4.229-.307-4.25-.327-4.25-4.25V55h-46zm-29 39c0 .825.675 1.5 1.5 1.5s1.5-.675 1.5-1.5-.675-1.5-1.5-1.5-1.5.675-1.5 1.5m7 0c0 .825.675 1.5 1.5 1.5s1.5-.675 1.5-1.5-.675-1.5-1.5-1.5-1.5.675-1.5 1.5m28 2c0 2.444-.452 3.5-1.5 3.5-.833 0-1.5.889-1.5 2q0 2-2 2c-1.111 0-2 .667-2 1.5 0 1.083-1.111 1.5-4 1.5h-4v17h9v17h17.885l.308 4.25.307 4.25 4.75.305 4.75.305v3.887c0 3.859.032 3.89 4.25 4.196 4.229.306 4.251.328 4.557 4.557l.308 4.25H182v8h9v-25h-9v-9h-9v-8h-27v-16.89l-4.75-.305-4.75-.305v-8l-8.75-.289c-6.876-.227-8.75-.602-8.75-1.75 0-.804-.675-1.461-1.5-1.461-.833 0-1.5-.889-1.5-2q0-2-2-2c-1.619 0-2-.667-2-3.5 0-3.222-.238-3.5-3-3.5s-3 .278-3 3.5m14-2.073c0 .927.855 1.573 2.083 1.573 2.437 0 2.093-2.337-.416-2.823-.987-.192-1.667.318-1.667 1.25m8 .073c0 .825.45 1.5 1 1.5s1-.675 1-1.5-.45-1.5-1-1.5-1 .675-1 1.5m-53 4.083c0 1.766 2.153 1.459 2.771-.395.218-.654-.317-1.188-1.188-1.188-.87 0-1.583.713-1.583 1.583m6.25-.333c.229.688 1.017 1.25 1.75 1.25s1.521-.562 1.75-1.25c.248-.744-.461-1.25-1.75-1.25s-1.998.506-1.75 1.25m42.75.25c0 .825.675 1.5 1.5 1.5s1.5-.675 1.5-1.5-.675-1.5-1.5-1.5-1.5.675-1.5 1.5m7 0c0 .825.675 1.5 1.5 1.5s1.5-.675 1.5-1.5-.675-1.5-1.5-1.5-1.5.675-1.5 1.5m-53 3c0 .825.675 1.5 1.5 1.5s1.5-.675 1.5-1.5-.675-1.5-1.5-1.5-1.5.675-1.5 1.5m7 0c0 .825.675 1.5 1.5 1.5s1.5-.675 1.5-1.5-.675-1.5-1.5-1.5-1.5.675-1.5 1.5m42.638 0c-.35.914-.001 1.5.893 1.5.808 0 1.469-.675 1.469-1.5s-.402-1.5-.893-1.5-1.152.675-1.469 1.5m7.017-.042c-.415 1.081.022 1.542 1.46 1.542 1.139 0 1.876-.528 1.656-1.187-.617-1.852-2.461-2.062-3.116-.355"
  /><path
    fill="#1976D2"
    fill-opacity=".834"
    fill-rule="evenodd"
    d="M0 128.004v128.004l128.25-.254 128.25-.254.254-127.75L257.008 0H0zm.485.496c0 70.4.119 99.053.265 63.672s.146-92.98 0-128S.485 58.1.485 128.5M85.25 54.813c-3.063.296-3.25.54-3.25 4.25V63h-9v9h-9v25h40c22 0 40.338.112 40.75.25s.888-1.662 1.057-4l.308-4.25H155V63h-9v-9.231l-28.75.365c-15.812.201-30.213.507-32 .679M71 103c0 1.111.667 2 1.5 2 .825 0 1.5.675 1.5 1.5 0 .833.889 1.5 2 1.5s2-.667 2-1.5c0-.825.675-1.5 1.5-1.5s1.5.675 1.5 1.5c0 .833.889 1.5 2 1.5q2 0 2 2c0 1.111.667 2 1.5 2s1.5-.889 1.5-2-.667-2-1.5-2-1.5-.889-1.5-2q0-2-2-2c-1.111 0-2-.667-2-1.5 0-.825-.675-1.5-1.5-1.5s-1.5.675-1.5 1.5c0 .833-.889 1.5-2 1.5s-2-.667-2-1.5c0-.825-.675-1.5-1.5-1.5-.833 0-1.5.889-1.5 2m35 1.5c0 2.833-.381 3.5-2 3.5-1.111 0-2 .667-2 1.5 0 .825-.675 1.5-1.5 1.5-.833 0-1.5.889-1.5 2 0 1.893-.667 2-12.5 2-11.767 0-12.5-.115-12.5-1.969 0-1.339-.48-1.784-1.5-1.393-1.041.4-1.5-.069-1.5-1.531 0-1.44-.633-2.107-2-2.107-1.111 0-2-.667-2-1.5 0-.825-.675-1.5-1.5-1.5-1.296 0-1.5 3.611-1.5 26.5V158h9v17h8.885l.308 4.25c.306 4.24.316 4.25 4.307 4.25s4.001.01 4.307 4.25l.308 4.25h8.77l.308 4.25.307 4.25 36.25.262 36.25.263V192h9v-7.89l4.75-.305 4.75-.305.28-12.75.28-12.75H183v-9h-4.421c-4.049 0-4.473-.24-5.047-2.856-.345-1.571-.494-3.484-.33-4.25.241-1.128-2.322-1.447-13.452-1.672l-13.75-.278V123h-9v-8h-8.5c-7.111 0-8.5-.26-8.5-1.594 0-.876-.9-1.829-2-2.116s-2-1.146-2-1.907c0-.76-.675-1.383-1.5-1.383-1.048 0-1.5-1.056-1.5-3.5 0-3.333-.167-3.5-3.5-3.5s-3.5.167-3.5 3.5m14-1.906c0 .876.9 1.829 2 2.116s2 1.146 2 1.907c0 .76.623 1.383 1.383 1.383.761 0 1.631.947 1.934 2.105.625 2.388 3.016 2.089 3.506-.438.218-1.124-.352-1.667-1.75-1.667-1.176 0-2.073-.649-2.073-1.5 0-.833.889-1.5 2-1.5s2 .667 2 1.5c0 .825.623 1.5 1.383 1.5.761 0 1.631.947 1.934 2.105.625 2.388 3.016 2.089 3.506-.438.218-1.124-.352-1.667-1.75-1.667-1.406 0-2.073-.643-2.073-2 0-1.111-.667-2-1.5-2-.825 0-1.5-.675-1.5-1.5 0-.833-.889-1.5-2-1.5s-2 .667-2 1.5c0 .825-.675 1.5-1.5 1.5s-1.5-.675-1.5-1.5c0-.833-.889-1.5-2-1.5-1.163 0-2 .667-2 1.594M78 110c0 1.111.667 2 1.5 2s1.5-.889 1.5-2-.667-2-1.5-2-1.5.889-1.5 2"
  /><path
    fill="#1976D2"
    fill-opacity=".608"
    fill-rule="evenodd"
    d="M0 128.004v128.004l128.25-.254 128.25-.254.254-127.75L257.008 0H0zm.485.496c0 70.4.119 99.053.265 63.672s.146-92.98 0-128S.485 58.1.485 128.5m114.212-97.107c-.409 1.041-.508 2.129-.221 2.417.913.912 1.715-.583 1.333-2.482-.35-1.74-.404-1.737-1.112.065M126 32c0 1.1.173 2 .383 2s.619-.9.907-2c.287-1.1.115-2-.384-2-.498 0-.906.9-.906 2m6.063.179c-.034.923.724 2.473 1.687 3.444 1.668 1.682 1.656 1.726-.25.942-1.1-.452-3.125-1.025-4.5-1.272-1.977-.356-2.186-.227-1 .613.825.585 1.028 1.07.45 1.079-.577.008-1.62-.547-2.317-1.235-1.016-1.002-1.552-.865-2.7.691-1.292 1.75-1.433 1.769-1.433.191 0-.962-.445-1.475-.989-1.139-.589.364-.727-.117-.34-1.191.356-.991.28-1.468-.17-1.061-.449.408-1.421.24-2.159-.372-.987-.819-1.342-.817-1.342.009 0 .617.54 1.122 1.2 1.122 2.414 0-.736 1.85-3.7 2.173-2.01.219-2.913.822-2.736 1.827.203 1.149-.056 1.091-1.11-.25-1.704-2.17-2.654-2.234-2.654-.179 0 1.384-.202 1.37-1.686-.114-1.581-1.581-1.731-1.563-2.415.287-.42 1.136-2.039 2.234-3.819 2.59-3.829.766-4.652.537-4.256-1.184.181-.792-.16-1.06-.825-.649-.625.386-.894 1.331-.599 2.1S94.475 42 93.91 42c-.566 0-.745.457-.4 1.016.346.559 1.117.715 1.714.346.663-.41.796-.203.341.532-.551.892-1.091.914-2.09.085-.954-.791-1.918-.812-3.304-.071-1.585.849-2.258.625-3.546-1.18-1.561-2.187-1.572-2.176-.589.636.839 2.4.755 2.77-.517 2.282-.836-.321-1.519-.095-1.519.502s-.9.85-2 .562-2-.067-2 .491c0 .557-.739.73-1.641.383-1.311-.503-1.409-.349-.488.76.888 1.07.805 1.68-.359 2.646-.831.69-1.512.92-1.512.51s-.759-.127-1.687.628c-1.483 1.205-1.605 1.153-1.012-.43.406-1.082.281-1.558-.312-1.191-.544.336-.989 1.436-.989 2.445 0 1.731-2.519 3.584-4.324 3.182-.454-.101-.54.278-.191.841.351.569-.256 1.025-1.367 1.025-1.1 0-2.308.498-2.684 1.107-.47.761.059.876 1.691.367l2.375-.74-2.5 2.1c-1.375 1.155-1.937 2.114-1.25 2.133.688.018 1.25.51 1.25 1.092s-.518.739-1.152.347c-.633-.391-1.705.045-2.381.971-1.111 1.518-1.29 1.526-1.842.089-.803-2.093-2.625-.913-2.625 1.7 0 1.423.465 1.87 1.523 1.463 1.258-.482 1.332-.226.423 1.471-.62 1.16-1.713 1.82-2.507 1.515-1.804-.692-3.936 2.96-2.313 3.963.773.478.609.991-.519 1.622-.907.508-1.388 1.345-1.069 1.861.319.517-.053.939-.826.939s-2.487.97-3.809 2.156c-1.854 1.663-1.978 2.003-.542 1.489 1.457-.523 1.721-.302 1.216 1.014-.354.924-.203 1.954.336 2.287.616.381.634 1.156.05 2.08-.783 1.238-.935 1.194-.948-.276-.008-.963-.495-1.75-1.082-1.75s-.823.787-.523 1.75.112 2.425-.418 3.25c-.828 1.292-.963 1.265-.977-.191-.008-.93-.535-2.012-1.17-2.404q-1.152-.712-.335.61c.602.975.356 1.148-.93.654-1.17-.449-1.596-.257-1.289.58.253.688.985 1.132 1.627.987.878-.199.889.256.045 1.833-.901 1.684-.773 2.483.651 4.057 1.703 1.882 1.7 1.932-.094 1.243-1.449-.556-1.729-.356-1.25.893.34.885.08 1.807-.576 2.048-.872.321-.897.757-.093 1.616 2.243 2.395.196 6.71-2.925 6.168-.454-.079-.56.285-.236.809s-.351 1.251-1.501 1.616c-2.425.77-2.116 1.369 1.017 1.973 1.62.311 2.078.039 1.679-1-.301-.785-.164-1.665.304-1.954 1.612-.997 2.107 2.754.585 4.435-2.016 2.228-1.929 3.118.226 2.302 1.615-.612 1.61-.522-.064 1.167-1.283 1.293-1.503 2.141-.75 2.894.585.585 1.057 1.536 1.049 2.114s-.44.379-.959-.442c-.803-1.27-1.134-1.285-2.234-.103-.981 1.054-.99 1.218-.035.678.726-.41 1.51-.051 1.855.848.329.857.995 1.312 1.481 1.011.486-.3.616.152.289 1.006-.328.854-1.223 1.552-1.989 1.552-2.174 0-1.635 1.788.77 2.552 1.968.624 2.007.773.43 1.656-1.633.914-1.628 1.05.087 2.362 1.591 1.217 1.632 1.528.32 2.477-1.194.863-1.041.955.75.451 1.376-.387 2.25-.195 2.25.494 0 .619-.45.848-1 .508s-1-.168-1 .382.376 1.232.836 1.517c1.243.768.605 5.142-.707 4.851-.621-.137-1.129.227-1.129.809s-.52.738-1.155.346c-.661-.409-.885-.278-.523.306.346.562 1.703.816 3.014.565 1.792-.342 2.52.064 2.931 1.636.3 1.15.138 1.839-.36 1.53-1.794-1.108-.863 1.148 1.039 2.519 1.818 1.31 1.9 3.68.09 2.561-.455-.281-1.089.175-1.411 1.013-.419 1.093.257 1.691 2.395 2.119 3.108.622 3.793 1.725 1.825 2.941-.715.443-.883.275-.44-.44.392-.635.199-1.155-.429-1.155-.629 0-.943.563-.699 1.25s1.363 1.15 2.487 1.029c1.124-.122 2.307.464 2.629 1.302.321.837.17 1.267-.335.955-.506-.313-1.191-.13-1.522.405-.331.536.807 1.702 2.528 2.592 2.162 1.118 2.987 2.165 2.667 3.386-.27 1.033.329 2.262 1.442 2.957 1.048.654 1.588 1.701 1.202 2.327-.465.752-.133.918.984.489 1.405-.539 1.515-.326.661 1.27-1.071 2.001.31 3.931 1.47 2.054 1.024-1.656 2.238-1.166 2.843 1.148.499 1.909.779 2.003 2.366.799 1.523-1.156 1.613-1.155.586 0-.967 1.087-.864 1.641.5 2.702 1.61 1.253 1.597 1.427-.212 2.825-1.06.819-2.152 1.264-2.427.989s.318-1.098 1.317-1.829c1.645-1.202 1.662-1.388.177-1.958-1.034-.397-1.64-.117-1.64.756 0 .762-.362 1.535-.804 1.719-.442.183-.224 1.458.485 2.833.949 1.84 1.293 2.038 1.304.75.008-.963.465-1.75 1.015-1.75s1 .342 1 .759c0 .418.96 1.36 2.134 2.093 1.78 1.111 2.278 1.11 3-.01.7-1.084 1.025-1.095 1.696-.058.508.786 1.574 1.004 2.75.563 1.559-.586 1.714-.451.825.716-1.65 2.167-2.459 4.937-1.441 4.937.496 0 1.201-.945 1.568-2.101.5-1.575.953-1.814 1.809-.958s.769 1.406-.349 2.195c-1.264.892-1.235.97.193.515.927-.296 1.866-.226 2.086.155.221.382.264.132.096-.556-.167-.687.187-1.25.787-1.25.699 0 .615-.628-.233-1.75-1.112-1.47-1.107-1.556.036-.541 1.839 1.634 2.384 7.429.805 8.569-1.337.965-.26.713 3.662-.856 1.552-.621 1.796-.437 1.261.956-.417 1.088-.271 1.484.395 1.073.581-.359.807-1.304.501-2.1-.462-1.204-.185-1.187 1.655.102 1.215.851 3.473 1.547 5.018 1.547 1.595 0 3.062.659 3.394 1.526.452 1.176.902 1.262 1.969.377 1.043-.866 1.735-.856 2.814.039.787.654 2.796 1.227 4.465 1.274 1.669.048 2.771.513 2.449 1.035s.368.438 1.534-.186c1.733-.928 2.121-.855 2.121.4 0 1.727 1.557 2.06 2.5.535.34-.55 1.154-.985 1.809-.967s.21.852-.988 1.853l-2.179 1.82 2.751-.103c2.299-.086 2.727-.523 2.602-2.653-.12-2.046.31-2.55 2.178-2.55 2.315 0 2.913.68 1.681 1.913-.355.355-.75 1.97-.878 3.588-.168 2.14.143 2.799 1.139 2.416.891-.341 1.16-1.365.769-2.921-.454-1.81-.193-2.396 1.067-2.396.917 0 1.389.45 1.049 1s-.141 1 .441 1 1.059-.648 1.059-1.441.52-1.762 1.155-2.154c.715-.443.883-.275.44.44-.392.635-.236 1.155.346 1.155s1.059.661 1.059 1.469c0 .892.587 1.243 1.494.895.822-.316 1.203-1.046.846-1.623-.407-.658-.159-.747.663-.239.977.604 1.168.26.748-1.347-.34-1.298-.169-1.913.429-1.544.547.338.765 1.49.486 2.559-.318 1.217-.071 1.789.663 1.529.644-.228 1.101-1.201 1.014-2.163-.116-1.303.133-1.46.976-.617.844.844 1.577.552 2.872-1.143l1.738-2.276-.418 3c-.23 1.65-.176 2.438.119 1.75s.976-1.25 1.512-1.25c.537 0 .698.45.358 1s-.141 1 .441 1c1.352 0 1.333-.617-.105-3.316-1.006-1.888-.962-2.018.324-.958 1.14.94 1.762.952 2.664.05.901-.901 1.176-.779 1.176.524 0 .935-.525 1.7-1.167 1.7-.641 0-.931.236-.643.524.924.924 3.81-.69 3.81-2.131 0-.766.745-1.393 1.655-1.393 1.462 0 1.433-.25-.25-2.146-1.896-2.135-1.894-2.139.366-.953 1.249.655 2.711.919 3.25.586.538-.333.979-.128.979.454s-.45 1.059-1 1.059-1 .436-1 .969c0 1.689 2.781-.024 3.308-2.038.434-1.662 1.425-1.931 7.098-1.931H174v-4c0-2.2.363-4 .807-4s.721 1.244.616 2.765c-.183 2.642-.015 2.749 3.749 2.39 4.588-.438 4.585-.989-.006-1.339-4.363-.333-3.896-3.196.592-3.629 3.122-.302 3.242-.478 3.242-4.75V184h4.5c2.501 0 4.5-.471 4.5-1.059 0-.582.563-.721 1.25-.308.881.529.854.262-.095-.907-.739-.913-1.112-2.236-.828-2.942.315-.785.546-.581.594.525.043.995.536 1.526 1.095 1.181.559-.346.758-1.047.441-1.559-.316-.512-.136-.931.401-.931.536 0 1.176.563 1.422 1.25.245.688.797.923 1.226.524s.21-1.412-.486-2.25c-.889-1.071-.925-1.524-.123-1.524.667 0 .957-1.022.697-2.456-.324-1.786.08-2.623 1.48-3.068 2.194-.696 2.524-2.068.676-2.814-.687-.277-.35-.543.75-.591 2.54-.11 4.567-4.199 3.249-6.555-.642-1.147-.574-2.088.207-2.862.881-.874 1.01-.754.535.495-.9 2.364.554 2.786 4.009 1.164 2.111-.992 2.334-1.275.751-.955-3.384.684-3.451-.647-.164-3.264l2.937-2.338-2.165-1.878c-1.191-1.033-1.598-1.878-.905-1.878.709 0 1.008-.656.684-1.5-.316-.825-.153-1.5.362-1.5s.69-.787.387-1.75c-.524-1.667-.482-1.667.892 0 1.608 1.952 3.243 2.403 2.119.586-.395-.641-.825-2.503-.953-4.139-.153-1.946.056-2.504.606-1.614.462.747 1.126 1.073 1.476.724.909-.909-1.451-4.972-2.508-4.319-.484.3-1.17.076-1.524-.496-.354-.573-.273-.977.181-.898 2.256.392 3.324-.281 3.324-2.094 0-2.213-1.547-2.71-2.338-.75-.38.942-.524.951-.583.035-.043-.668.834-1.703 1.949-2.3 1.246-.667 1.728-1.548 1.25-2.285-1.414-2.181-.809-6.171 1.218-8.031 1.969-1.806 1.957-1.821-.899-1.104-1.945.488-2.68.379-2.24-.334.361-.583.09-1.319-.601-1.636s-.281-.337.911-.045c1.853.455 2.082.2 1.577-1.759-.527-2.044-.41-2.143 1.083-.919 1.95 1.6 2.25.67.423-1.312-1.04-1.128-1.454-.995-2.465.792l-1.214 2.148-.036-2.309c-.023-1.551-.445-2.077-1.285-1.603-1 .564-1 .436 0-.641.688-.741 1.25-2.382 1.25-3.647s.525-2.3 1.167-2.3c.641 0 .877-.289.524-.643-.354-.353-1.329-.073-2.167.623-1.263 1.048-1.524.977-1.524-.417 0-.924-.445-1.406-.989-1.07-.574.355-.729-.063-.371-.999.34-.885 1.184-1.392 1.876-1.126.815.313 1.09-.16.78-1.345-.335-1.279-1.25-1.742-3.055-1.544l-2.577.283 2.39-1.803c1.315-.991 2.735-1.589 3.157-1.329.421.261.47-.298.108-1.242-.483-1.256-.304-1.497.666-.898.901.558 1.086.434.578-.388-.411-.664-1.268-1.02-1.905-.79-1.509.544-4.658-1.088-4.658-2.415 0-.577.882-.752 2-.397 2.44.775 2.619-.753.308-2.628-1.385-1.123-1.545-1.127-.879-.022.634 1.054.402 1.138-1.058.385-1.029-.531-2.496-.742-3.26-.47-.849.302-1.118.055-.691-.635.384-.622 1.796-1.13 3.139-1.13s2.441-.41 2.441-.912-1.041-.798-2.312-.658c-1.777.195-2.298-.231-2.25-1.838q.061-2.091-1.677-1.955c-.989.078-1.458-.319-1.086-.92.407-.659.026-.816-1.011-.418-.915.351-1.664.202-1.664-.33 0-.533.505-.969 1.122-.969.758 0 .703-.506-.169-1.556-1.056-1.273-1.055-1.501.003-1.25.712.168 1.481-.2 1.711-.819.239-.646-.658-1.125-2.107-1.125-1.388 0-2.299.363-2.025.806.273.443-.031 1.132-.676 1.531-.813.502-1 .062-.61-1.431.31-1.186.124-2.156-.414-2.156s-.271-.707.594-1.571c2-2.001 1.991-2.527-.03-1.752-1.651.634-3.357-1.148-3.384-3.534-.008-.777.605-1.119 1.434-.801.941.361 1.265.076.923-.816-.654-1.703-3.437-2.9-2.849-1.225.514 1.465-2.244 5.311-3.155 4.4-.359-.359-.089-1.333.601-2.164 1.55-1.867.618-4.7-1.302-3.963-.775.298-2.089-.138-2.919-.969-.83-.83-1.886-1.194-2.346-.807s-.176-.172.631-1.24c.917-1.214.999-1.661.217-1.191-.809.486-1.278.114-1.329-1.058-.046-1.049-.291-1.284-.583-.559-.81 2.007-3.338 1.438-3.338-.75 0-1.1-.45-2-1-2s-1 .675-1 1.5-.73 1.5-1.622 1.5c-1.353 0-1.409-.258-.336-1.55 1.067-1.286.978-1.84-.52-3.25-1.707-1.607-1.769-1.594-1.122.241.523 1.485.097 1.308-1.81-.75-1.372-1.48-3.078-2.76-3.792-2.843s-1.748-.208-2.298-.277c-.55-.068-1.562-.476-2.25-.906s-1.25-.355-1.25.169-.762 1.245-1.694 1.602c-1.592.611-1.592.537 0-1.222 2.278-2.517 2.139-3.523-.306-2.214-1.552.83-2 .76-2-.312 0-.76.969-1.815 2.154-2.343 1.811-.809 1.532-.946-1.756-.863-2.15.054-4.465.442-5.146.862-.68.42-1.998.338-2.93-.184-2.018-1.129-6.585.606-5.636 2.141.379.614.113.693-.683.201-1.02-.63-.902-1.103.537-2.155 1.013-.741 2.281-1.347 2.818-1.347 1.767 0-.482-1.497-2.441-1.625-3.574-.233-3.917-.374-3.667-1.5.137-.619-.425-1.328-1.25-1.576-1.21-.364-1.238-.268-.143.5 1.041.73 1.074 1.126.143 1.701-.93.575-.896.951.143 1.61 1.016.643.845.863-.679.875-1.311.01-2.103-.696-2.226-1.985-.415-4.354-.605-5-1.472-5-.495 0-.615.9-.266 2 .871 2.743-.349 2.535-1.469-.25-.647-1.61-.922-1.772-.968-.571m-9.063.88c0 .582.45.781 1 .441s1-.816 1-1.059-.45-.441-1-.441-1 .477-1 1.059m5.5-.059c-.34.55-.168 1 .382 1s1.278-.45 1.618-1 .168-1-.382-1-1.278.45-1.618 1m13.5 1.059c0 .582.45.781 1 .441s1-.816 1-1.059-.45-.441-1-.441-1 .477-1 1.059m7.5-.059c.34.55.816 1 1.059 1s.441-.45.441-1-.477-1-1.059-1-.781.45-.441 1m-1.5 2.465c0 .844.188 1.535.418 1.535s1.13.273 2 .607c2.299.882 1.942-1.344-.418-2.607-1.596-.854-2-.76-2 .465m-58.333 1.202c-.932.932-.832 2.333.166 2.333.459 0 .834-.675.834-1.5 0-1.699-.073-1.76-1-.833m9.333.166c0 .459.655.834 1.456.834s1.224-.375.941-.834-.938-.833-1.456-.833-.941.375-.941.833m63 3.608c0 .793.354 1.659.786 1.927.432.267.785-.382.785-1.441S163.218 40 162.786 40s-.786.648-.786 1.441m18.651 6.027c-.31.807-.133 1.734.393 2.059s.956-.336.956-1.468c0-2.415-.556-2.658-1.349-.591m-97.382 6.225c.973.254 2.323.237 3-.037s-.119-.481-1.769-.461-2.204.244-1.231.498M57.5 55c.34.55.816 1 1.059 1s.441-.45.441-1-.477-1-1.059-1-.781.45-.441 1M182 59.031c0 .533.675.969 1.5.969s1.5-.177 1.5-.393-.675-.652-1.5-.969-1.5-.139-1.5.393m17.5.969c.34.55.816 1 1.059 1s.441-.45.441-1-.477-1-1.059-1-.781.45-.441 1m-2.862 3.5c-.316.825-.139 1.5.393 1.5.533 0 .969-.675.969-1.5s-.177-1.5-.393-1.5-.652.675-.969 1.5M196.5 69c-.34.55-.168 1 .382 1s1.278-.45 1.618-1 .168-1-.382-1-1.278.45-1.618 1M50.564 74.293c.376.986.935 1.541 1.243 1.233s.001-1.114-.683-1.793c-.988-.98-1.102-.865-.56.56M205 74c0 .55.477 1 1.059 1s.781-.45.441-1-.816-1-1.059-1-.441.45-.441 1M64 101c0 2.078.49 3 1.594 3 .876 0 1.829.9 2.116 2s1.146 2 1.907 2c.76 0 1.383.675 1.383 1.5 0 .833.889 1.5 2 1.5 1.348 0 2 .667 2 2.046 0 1.953.528 2.04 11.5 1.888 10.548-.146 11.5-.316 11.5-2.047 0-1.22.706-1.887 2-1.887 1.111 0 2-.667 2-1.5 0-.825.648-1.5 1.44-1.5.941 0 1.547-1.297 1.75-3.75.294-3.56.487-3.75 3.81-3.75s3.516.19 3.81 3.75c.244 2.938.731 3.75 2.25 3.75 1.067 0 1.94.675 1.94 1.5s.675 1.5 1.5 1.5 1.5.808 1.5 1.796c0 1.629 1.12 1.797 12 1.797s12-.168 12-1.797c0-1.129.742-1.796 2-1.796 1.111 0 2-.667 2-1.5 0-.825.675-1.5 1.5-1.5.833 0 1.5-.889 1.5-2q0-2 2-2c1.556 0 2-.667 2-3v-3H64zm6.667-.333C69.175 102.159 70.049 105 72 105c1.111 0 2 .667 2 1.5 0 .825.675 1.5 1.5 1.5.833 0 1.5.889 1.5 2 0 1.467.667 2 2.5 2s2.5-.533 2.5-2c0-1.1.398-2 .883-2 .486 0 1.119.9 1.407 2 .313 1.197 1.364 2 2.616 2 1.427 0 2.094-.637 2.094-2q0-2-2-2t-2-2c0-1.1-.623-2-1.383-2-.761 0-1.619-.9-1.907-2-.287-1.1-1.282-2-2.21-2s-1.923.9-2.21 2c-.288 1.1-.868 2-1.29 2s-1.002-.9-1.29-2c-.509-1.949-2.704-2.673-4.043-1.333M120 102.5c0 1.556.567 2.5 1.5 2.5.825 0 1.5.675 1.5 1.5 0 .833.889 1.5 2 1.5q2 0 2 2t2 2 2-2c0-1.111.667-2 1.5-2s1.5.889 1.5 2c0 1.356.667 2 2.07 2 1.581 0 1.988-.531 1.726-2.25-.189-1.237-.895-2.138-1.57-2-.674.138-1.226-.65-1.226-1.75q0-2-2-2t-2-2-2-2-2 2c0 1.111-.667 2-1.5 2s-1.5-.889-1.5-2q0-2-2-2c-1.467 0-2 .667-2 2.5m-42 3.833c0 .734.675 1.334 1.5 1.334s1.5-.6 1.5-1.334c0-.733-.675-1.333-1.5-1.333s-1.5.6-1.5 1.333m50 .167c0 .825.45 1.5 1 1.5s1-.675 1-1.5-.45-1.5-1-1.5-1 .675-1 1.5m89.275 15.5c.083 1.1.477 2 .876 2 .398 0 .657-.9.574-2s-.477-2-.876-2c-.398 0-.657.9-.574 2m-182.196.583c.048 1.165.285 1.402.604.605.289-.722.253-1.585-.079-1.917s-.568.258-.525 1.312M214 125c0 .55.45 1 1 1s1-.45 1-1-.45-1-1-1-1 .45-1 1m5.5 7c-.34.55-.141 1 .441 1s1.059-.45 1.059-1-.198-1-.441-1-.719.45-1.059 1m-181.305 9.5c.02 1.65.244 2.204.498 1.231s.237-2.323-.037-3-.481.119-.461 1.769m1.805-.059c0 .857.45 1.559 1 1.559s1-.423 1-.941-.45-1.219-1-1.559-1 .084-1 .941m174 6.937c0 .207.787.995 1.75 1.75 1.586 1.243 1.621 1.208.378-.378-1.307-1.666-2.128-2.195-2.128-1.372M204 153c0 .55.477 1 1.059 1s.781-.45.441-1-.816-1-1.059-1-.441.45-.441 1m3-.607c0 .216.698.661 1.552.989.89.341 1.291.173.941-.393-.587-.951-2.493-1.406-2.493-.596m3.813 4.29c.721.289 1.584.253 1.916-.079s-.258-.568-1.312-.525c-1.165.048-1.402.285-.604.604m-11.306 8.306c-.35.566.051.734.941.393 1.732-.665 2.049-1.382.611-1.382-.518 0-1.216.445-1.552.989M192.32 171c0 3.575.182 5.037.403 3.25s.222-4.713 0-6.5c-.221-1.787-.403-.325-.403 3.25m-147.507-4.317c.721.289 1.584.253 1.916-.079s-.258-.568-1.312-.525c-1.165.048-1.402.285-.604.604m163.92 2.441c.679.684 1.486.991 1.793.683.308-.308-.247-.867-1.233-1.243-1.425-.542-1.54-.428-.56.56m-156.377 2.462c-.158 2.637 1.103 3.266 1.978.987.301-.785.011-1.871-.643-2.414-.861-.714-1.231-.319-1.335 1.427M49 170.941c0 .518.45 1.219 1 1.559s1-.084 1-.941S50.55 170 50 170s-1 .423-1 .941M201.5 173c-.34.55.219 1 1.241 1s2.5.563 3.282 1.25c.783.688.579.238-.455-1-2.052-2.458-3.119-2.786-4.068-1.25m-8.5 12c0 .55.477 1 1.059 1s.781-.45.441-1-.816-1-1.059-1-.441.45-.441 1m-132 1c0 .55.477 1 1.059 1s.781-.45.441-1-.816-1-1.059-1-.441.45-.441 1m123.267 2.715c.037 2.082.245 3.022.463 2.09.253-1.083.973-1.473 1.997-1.08 1.018.391 1.353.214.921-.486-.624-1.009.928-2.687 2.519-2.724.366-.008.917-.265 1.222-.571.306-.306-1.186-.659-3.316-.785-3.866-.228-3.873-.221-3.806 3.556m-114.617.232c-1.682.59-1.674.721.141 2.364 1.533 1.387 2.134 1.481 2.965.464 1.406-1.719-.728-3.662-3.106-2.828M189.5 191c.34.55.816 1 1.059 1s.441-.45.441-1-.477-1-1.059-1-.781.45-.441 1M87 200c-.589 1.1-.845 2-.57 2s.981-.9 1.57-2 .845-2 .57-2-.981.9-1.57 2m75 3.059c0 .582.45.781 1 .441s1-.816 1-1.059-.45-.441-1-.441-1 .477-1 1.059m3-.177c0 .55.45 1.278 1 1.618s1 .168 1-.382-.45-1.278-1-1.618-1-.168-1 .382m-75 3.373c0 .275.635 1.027 1.411 1.671 1.087.902 1.583.873 2.16-.127.412-.715.381-.965-.069-.558-.45.408-1.422.24-2.16-.372-.738-.613-1.342-.889-1.342-.614M102 208c-.901.582-1.025.975-.309.985.655.008 1.469-.435 1.809-.985.767-1.242.421-1.242-1.5 0m4.5 1c.34.55.816 1 1.059 1s.441-.45.441-1-.477-1-1.059-1-.781.45-.441 1m-8.75 1.662c.688.278 1.813.278 2.5 0 .688-.277.125-.504-1.25-.504s-1.937.227-1.25.504m10.063 2.021c.721.289 1.584.253 1.916-.079s-.258-.568-1.312-.525c-1.165.048-1.402.285-.604.604M139 213c0 .55.45 1 1 1s1-.45 1-1-.45-1-1-1-1 .45-1 1m-21.387 1.183c.289.467.944.591 1.456.274 1.308-.808 1.161-1.124-.525-1.124-.801 0-1.22.383-.931.85M135 214c0 .55.477 1 1.059 1s.781-.45.441-1-.816-1-1.059-1-.441.45-.441 1m-21 9c0 .55.477 1 1.059 1s.781-.45.441-1-.816-1-1.059-1-.441.45-.441 1"
  /></svg>
