<svg xmlns="http://www.w3.org/2000/svg" width="256" height="256"><path fill="#1976D2" fill-opacity=".239" fill-rule="evenodd" d="M0 128.004v128.004l128.25-.254 128.25-.254.254-127.75L257.008 0H0zm.485.496c0 70.4.119 99.053.265 63.672s.146-92.98 0-128S.485 58.1.485 128.5"/><path fill="#1976D2" fill-opacity=".124" fill-rule="evenodd" d="M0 128.004v128.004l128.25-.254 128.25-.254.254-127.75L257.008 0H0zm.485.496c0 70.4.119 99.053.265 63.672s.146-92.98 0-128S.485 58.1.485 128.5m88.297-91.75L88.5 48.5l-6.273.298-6.273.299.273 17.701L76.5 84.5l38.25.262 38.25.262V73h13V37h-13V25H89.063zM47.18 92.25c.21 1.477 1.007 2.25 2.32 2.25s2.11-.773 2.32-2.25c.262-1.846-.155-2.25-2.32-2.25s-2.582.404-2.32 2.25m10 0c.21 1.477 1.007 2.25 2.32 2.25s2.11-.773 2.32-2.25c.262-1.846-.155-2.25-2.32-2.25s-2.582.404-2.32 2.25M97 95c0 4.667-.167 5-2.5 5-2 0-2.5.5-2.5 2.5s-.5 2.5-2.5 2.5-2.5.5-2.5 2.5c0 2.364-.3 2.5-5.5 2.5H76v24h13v24h26v11.905l6.25.297 6.25.298.299 5.704.298 5.703 6.202.297 6.201.296.298 6.25.297 6.25H205v11h13.046l-.273-17.695-.273-17.695-6.25.159-6.25.16V158h-13v-12h-39v-24h-13v-12h-24v-2.5c0-2-.5-2.5-2.5-2.5s-2.5-.5-2.5-2.5-.5-2.5-2.5-2.5c-2.333 0-2.5-.333-2.5-5v-5h-9zm20.744-4.25c-.947 1.9-.048 3.778 1.945 4.061 1.363.195 2.305 1.137 2.5 2.5.194 1.364 1.136 2.306 2.5 2.5 1.363.195 2.305 1.137 2.5 2.5.431 3.032 4.198 2.982 4.631-.061.26-1.832-.158-2.25-2.25-2.25-2.075 0-2.57-.482-2.57-2.5 0-2-.5-2.5-2.5-2.5s-2.5-.5-2.5-2.5c0-1.808-.537-2.5-1.941-2.5-1.068 0-2.109.338-2.315.75m9.436 1.5c.21 1.477 1.007 2.25 2.32 2.25s2.11-.773 2.32-2.25c.262-1.846-.155-2.25-2.32-2.25s-2.582.404-2.32 2.25m-75 5c.21 1.477 1.007 2.25 2.32 2.25s2.11-.773 2.32-2.25c.262-1.846-.155-2.25-2.32-2.25s-2.582.404-2.32 2.25m10 0c.21 1.477 1.007 2.25 2.32 2.25s2.11-.773 2.32-2.25c.262-1.846-.155-2.25-2.32-2.25s-2.582.404-2.32 2.25m70 0c.21 1.477 1.007 2.25 2.32 2.25s2.11-.773 2.32-2.25c.262-1.846-.155-2.25-2.32-2.25s-2.582.404-2.32 2.25m-75 5c.21 1.477 1.007 2.25 2.32 2.25s2.11-.773 2.32-2.25c.262-1.846-.155-2.25-2.32-2.25s-2.582.404-2.32 2.25m10 0c.21 1.477 1.007 2.25 2.32 2.25s2.11-.773 2.32-2.25c.262-1.846-.155-2.25-2.32-2.25s-2.582.404-2.32 2.25m70 0c.21 1.477 1.007 2.25 2.32 2.25s2.11-.773 2.32-2.25c.262-1.846-.155-2.25-2.32-2.25s-2.582.404-2.32 2.25"/><path fill="#1976D2" fill-opacity=".812" fill-rule="evenodd" d="M0 128.004v128.004l128.25-.254 128.25-.254.254-127.75L257.008 0H0zm.485.496c0 70.4.119 99.053.265 63.672s.146-92.98 0-128S.485 58.1.485 128.5M63.677 24.656c-.372.373-.677 3.302-.677 6.511V37H50v12H38v36h116V73h13.077l-.289-18.25-.288-18.25-6.201-.296-6.202-.297-.298-5.703-.299-5.704-44.573-.26c-24.515-.143-44.878.044-45.25.416M47 92.5c0 2 .5 2.5 2.5 2.5s2.5.5 2.5 2.5.5 2.5 2.5 2.5 2.5.5 2.5 2.5.5 2.5 2.5 2.5 2.5-.5 2.5-2.5.5-2.5 2.5-2.5 2.5.5 2.5 2.5.5 2.5 2.5 2.5 2.5-.5 2.5-2.5-.5-2.5-2.5-2.5-2.5-.5-2.5-2.5-.5-2.5-2.5-2.5-2.5-.5-2.5-2.5-.5-2.5-2.5-2.5-2.5.5-2.5 2.5-.5 2.5-2.5 2.5-2.5-.5-2.5-2.5-.5-2.5-2.5-2.5-2.5.5-2.5 2.5M97 95c0 4.667-.167 5-2.5 5-2 0-2.5.5-2.5 2.5s-.5 2.5-2.5 2.5-2.5.5-2.5 2.5v2.5H52v-2.5c0-2-.5-2.5-2.5-2.5s-2.5-.5-2.5-2.5-.5-2.5-2.5-2.5-2.5-.5-2.5-2.5c0-1.806-.538-2.5-1.937-2.5-2.597 0-2.613.287-2.288 40.75l.276 34.25H50v24l4.25.111c2.337.061 5.24.031 6.451-.065 2.025-.162 2.224.327 2.5 6.124l.299 6.301 6 .014 6 .015.298 6.25.297 6.25H89v12h103v-12h13v-12h13v-37h-13v-11.905l-6.25-.297-6.25-.298-.3-5.75-.3-5.75H154v-25h-13v-10.938l-12.25-.281c-11.845-.272-12.261-.355-12.57-2.531-.205-1.446-1.009-2.25-2.25-2.25-1.392 0-1.93-.697-1.93-2.5 0-2-.5-2.5-2.5-2.5-2.333 0-2.5-.333-2.5-5v-5H97zm20-2.5c0 2 .5 2.5 2.5 2.5s2.5.5 2.5 2.5.5 2.5 2.5 2.5 2.5.5 2.5 2.5.5 2.5 2.5 2.5 2.5-.5 2.5-2.5.5-2.5 2.5-2.5 2.5.5 2.5 2.5.5 2.5 2.5 2.5 2.5-.5 2.5-2.5-.5-2.5-2.5-2.5-2.5-.5-2.5-2.5-.5-2.5-2.5-2.5-2.5-.5-2.5-2.5-.5-2.5-2.5-2.5-2.5.5-2.5 2.5-.5 2.5-2.5 2.5-2.5-.5-2.5-2.5-.5-2.5-2.5-2.5-2.5.5-2.5 2.5m-60 5c0 2 .5 2.5 2.5 2.5s2.5-.5 2.5-2.5-.5-2.5-2.5-2.5-2.5.5-2.5 2.5m70 0c0 2 .5 2.5 2.5 2.5s2.5-.5 2.5-2.5-.5-2.5-2.5-2.5-2.5.5-2.5 2.5"/><path fill="#1976D2" fill-opacity=".562" fill-rule="evenodd" d="M.048 58.415c-.019 45.526.249 58.537 1.214 58.927.867.35.888.524.069.579-.88.059-1.192 17.188-1.26 69.092l-.09 69.012 47.235-.064c29.638-.041 46.685-.412 45.759-.997-1.24-.785-1.196-.936.275-.949.963-.008 1.75.426 1.75.964 0 .633 28.563.899 80.75.75l80.75-.229.178-55.486c.133-41.644-.117-55.672-1-56.234-.882-.561-.864-.753.072-.765 1.653-.02 1.653-6.686 0-7.353-.946-.381-.954-.523-.033-.583.926-.06 1.225-7.151 1.251-29.639.028-23.406-.226-29.403-1.217-28.808-.995.598-.999.44-.018-.772.928-1.147 1.228-10.703 1.217-38.676L256.934.03l-23.579.01c-14.883.006-24.32.406-25.588 1.085-1.452.777-1.82.77-1.329-.025.484-.782-3.956-1.1-15.379-1.1C179.235 0 175 .316 175 1.2c0 .933-.267.933-1.2 0-.86-.86-7.361-1.2-22.927-1.2-19.851 0-21.766.151-22.184 1.75-.41 1.572-.469 1.578-.573.063C128.009.249 123.307.12 64.036.057L.073-.012zM0 12c0 6.233.258 11.076.573 10.761.706-.707.65-20.871-.06-21.582C.231.897 0 5.767 0 12m168.032-2.061c-.757 1.416-.699 2.134.215 2.661.689.396.931.364.538-.071-.393-.436-.265-1.633.285-2.66s.775-1.869.5-1.869-.967.873-1.538 1.939m-42.468 1.768c-.542 1.425-.428 1.54.56.56.684-.679.991-1.486.683-1.793-.308-.308-.867.247-1.243 1.233m-25.218.427c1.324.769 2.159.761 2.95-.03.805-.805.305-1.096-1.846-1.074-2.586.027-2.722.163-1.104 1.104m49.257 2.699c-.283.459.14.834.941.834s1.456-.375 1.456-.834-.423-.833-.941-.833-1.173.375-1.456.833M111 16.5c-.718.865-.815 1.5-.229 1.5.558 0 1.274-.675 1.591-1.5s.419-1.5.229-1.5-.906.675-1.591 1.5m24-.441c0 .582.45.781 1 .441s1-.816 1-1.059-.45-.441-1-.441-1 .477-1 1.059m31.603.108c.283.458.938.833 1.456.833s.941-.375.941-.833c0-.459-.655-.834-1.456-.834s-1.224.375-.941.834M150 18.059c0 .582.45.781 1 .441s1-.816 1-1.059-.45-.441-1-.441-1 .477-1 1.059m6.459 1.008c-.363.586-.445 1.281-.183 1.543s.743-.218 1.069-1.067c.676-1.762.1-2.072-.886-.476M67.5 20c.34.55.816 1 1.059 1s.441-.45.441-1-.477-1-1.059-1-.781.45-.441 1m18.616 2.25c-.1 1.502-1.187 1.75-7.675 1.75-4.785 0-7.332-.367-6.941-1 .34-.55.141-1-.441-1S70 22.45 70 23s-1.575 1-3.5 1H63v12H50v12H37.103l-.302 14.25c-.165 7.838-.163 16.163.006 18.5l.308 4.25H166v5c0 4.667-.167 5-2.5 5-2 0-2.5.5-2.5 2.5s-.5 2.5-2.5 2.5-2.5.5-2.5 2.5-.5 2.5-2.5 2.5c-2.037 0-2.5.49-2.5 2.647v2.646l-7.651-.646c-4.208-.356-11.827-.647-16.93-.647-8.862 0-9.294-.101-9.599-2.25-.206-1.446-1.124-2.364-2.57-2.57-1.629-.231-2.25-.99-2.25-2.75 0-1.911-.522-2.43-2.445-2.43-2.208 0-2.475-.461-2.75-4.75l-.305-4.75h-10l-.302 4.687c-.255 3.954-.646 4.737-2.5 5-1.373.196-2.315 1.135-2.509 2.502-.195 1.363-1.137 2.305-2.5 2.5-1.385.197-2.306 1.137-2.509 2.561-.317 2.232-.453 2.25-17.25 2.25H52v-2.5c0-2-.5-2.5-2.5-2.5s-2.5-.5-2.5-2.5-.5-2.5-2.5-2.5-2.5-.5-2.5-2.5-.5-2.5-2.5-2.5c-2.742 0-2.849.572-2.507 13.355.108 4.009-.187 5.643-.934 5.181-.601-.371-.879-1.018-.619-1.438.259-.421-.191-.765-1.002-.765-1.113 0-.963.544.617 2.226 1.712 1.821 2.063 3.378 1.939 8.583-.083 3.497-.116 16.145-.073 28.108.068 18.632.294 21.75 1.579 21.75.825 0 1.5.375 1.5.833 0 .459.655.834 1.456.834s1.224-.375.941-.834 1.348-.833 3.625-.833h4.14l-.198 6.25c-.109 3.438-.146 8.838-.081 12L50 195h13v12h12.53l.23 5.056c.173 3.811-.077 4.872-1.015 4.308-.837-.503-.795-.193.127.944 1.008 1.242 2.937 1.692 7.25 1.692 6.442 0 6.008-.553 6.077 7.75.035 4.205.074 4.25 3.668 4.296 4.752.059 89.068.059 95.883 0L193 231v-12h13v-12h12.801l-.325-3.5c-.179-1.925.079-3.5.574-3.5.51 0 .545-.976.081-2.25-.655-1.798-.706-9.561-.108-16.25.225-2.512-.846-10.656-1.485-11.292-.391-.389-2.135-.708-3.875-.708-2.339 0-3.13-.435-3.037-1.671.08-1.065-.395-1.471-1.308-1.121-.788.303-1.196 1.167-.907 1.921.299.778-.109 1.371-.942 1.371-1.73 0-2.06-7.316-.514-11.382.901-2.369.787-2.49-2.01-2.136-2.453.31-2.813.104-2.085-1.196.483-.863.676-2.344.429-3.29-.455-1.739 2.438-3.651 3.604-2.383.334.364.045.862-.643 1.107-.688.246-1.25.886-1.25 1.422 0 .537.45.698 1 .358s1-.179 1 .358-.562 1.192-1.25 1.457-.238.431 1 .37c1.788-.088 2.118-.527 1.606-2.14-.568-1.789-.45-1.868 1-.665.904.751 1.644.908 1.644.349 0-.558-.775-1.312-1.722-1.676-1.453-.557-1.496-.8-.276-1.554.921-.569 1.754-.459 2.298.304.595.835.716.744.401-.303-.248-.825-.991-1.376-1.651-1.225-.782.179-.976-.432-.558-1.75.374-1.177.192-2.025-.433-2.025q-1.077.001.146-1.957c1.152-1.844 1.282-1.776 2.258 1.175.571 1.723 1.712 3.351 2.537 3.62 1.333.433 1.333.282 0-1.363-1.359-1.676-1.336-1.788.25-1.194.995.373 1.75.188 1.75-.429 0-.597-.9-.85-2-.562-2.856.747-2.478-1.305.75-4.075 1.512-1.298 2.206-2.087 1.541-1.753-.665.333-2.11.044-3.21-.644-1.852-1.156-1.88-1.382-.386-3.034.925-1.022 1.137-1.784.495-1.784-1.434 0-3.057 3.119-2.472 4.75.247.688 1.113 1.25 1.924 1.25.812 0 1.224.408.916.906-.817 1.322-4.558.097-4.558-1.491 0-.791-.622-1.113-1.5-.777-.932.358-1.5-.005-1.5-.958 0-.843-.787-1.739-1.75-1.991-1.297-.339-1.159-.487.535-.573 1.926-.098 2.125-.415 1.268-2.018-.866-1.618-.722-1.824.964-1.383 1.091.285 1.983.091 1.983-.432 0-.522.675-.95 1.5-.95s1.5.6 1.5 1.334c0 .733.41 1.333.912 1.333.501 0 .795-.787.654-1.75s-.889-1.75-1.661-1.75c-1.958 0-2.872-1.522-2.89-4.809-.008-1.615-.44-2.546-1.015-2.191-1.417.875-1.242-.41.25-1.845 1.444-1.389 3.22-1.518 4.417-.322.458.459.383.743-.167.632-2.811-.567-3.754.024-2.482 1.557 1.113 1.341 1.442 1.266 2.769-.628 1.35-1.928 1.34-2.243-.099-3.049-1.471-.823-1.307-4.265.167-3.498.355.185 1.432-.493 2.395-1.506 1.45-1.525 1.493-1.841.25-1.841-.825 0-1.5.42-1.5.933s-.9 1.218-2 1.567-2 1.203-2 1.898c0 1.066-1.513 2.123-6.239 4.357-.406.192-.442-.423-.08-1.367.483-1.256.304-1.497-.666-.898-.9.557-1.086.434-.58-.384.561-.909 1.081-.923 2.126-.055 1.062.881 1.755.776 2.983-.452.879-.879 1.117-1.599.527-1.599a1.07 1.07 0 0 1-1.071-1.059c0-.582.45-.781 1-.441s1 .115 1-.5.419-.859.931-.543a1.086 1.086 0 0 0 1.494-.336c.772-1.249-1.961-2.185-3.089-1.057-.543.543-.907.171-.907-.929 0-1.298.596-1.73 2.035-1.474 1.12.199 1.499.102.842-.215-.656-.316-.963-1.176-.682-1.909.282-.734-.045-1.679-.726-2.1-.841-.52-1.05-.276-.654.757.419 1.091-.407 1.827-2.91 2.596-3.112.955-3.419.888-2.797-.609.384-.924.835-2.733 1.003-4.019.38-2.932 1.46-4.136 1.46-1.629 0 1.487.253 1.614 1.242.625.988-.988.938-1.433-.25-2.184-1.858-1.175-2.992-1.228-2.992-.141 0 .459-.562.833-1.25.833-.78-.001-1.318-1.631-1.43-4.334-.204-4.882.153-5.105 3.68-2.297 1.505 1.199 1.804 1.745.75 1.371-1.227-.435-1.75-.108-1.75 1.094 0 1.045.538 1.508 1.378 1.185.758-.291 1.915-.001 2.572.643.656.645 1.048.722.871.172-.176-.55.692-2.013 1.929-3.25 2.328-2.328 2.931-4.25 1.333-4.25-.504 0-1.088.515-1.297 1.143-.284.852-.943.843-2.584-.035-1.507-.807-2.202-.839-2.202-.103 0 .592-1.233-.067-2.74-1.465-1.507-1.397-3.082-2.54-3.5-2.54s-.76-1-.76-2.223v-2.222l1.557 2.222c1.756 2.509 3.681 3.008 2.807.729-.316-.822-.888-1.3-1.273-1.062-.385.237-1.198-.89-1.808-2.506-.615-1.629-.703-2.938-.196-2.938.502 0 .913.659.913 1.465 0 .805 1.012 1.996 2.25 2.645l2.25 1.181-2-2.315c-1.679-1.943-1.727-2.216-.301-1.697 1.757.64 3.47-2.358 2.93-5.129-.144-.743.194-1.069.752-.724.606.375.847-.243.598-1.535-.54-2.806-.752-2.963-2.508-1.852-1.201.759-1.113.933.479.946 1.517.012 1.683.282.75 1.215-.66.66-1.2 2.251-1.2 3.535 0 1.971-.292 2.179-1.869 1.335-1.027-.55-2.122-.745-2.433-.435-.311.311-1.113.227-1.783-.188-.934-.577-.891-1.013.184-1.87.77-.614 1.971-2.127 2.668-3.361 1.137-2.014 1.009-2.361-1.25-3.39-1.384-.631-2.517-1.723-2.517-2.427 0-.705-.526-1.606-1.17-2.004q-1.172-.726-.544.909c.345.898.196 1.898-.33 2.223s-.956.114-.956-.468S193.523 66 192.941 66s-.781.45-.441 1 .19 1-.334 1-1.222-.704-1.552-1.563c-.33-.86-1.075-1.27-1.655-.911-.726.448-.683 1.101.134 2.086.971 1.17.874 1.312-.532.773-1.058-.406-1.538-1.365-1.245-2.487.276-1.054-.557-3.006-1.968-4.612-1.346-1.532-2.312-2.131-2.148-1.331.165.8-.369 1.475-1.186 1.5-2.097.064-2.453 3.163-.452 3.931 1.179.452 1.5.217 1.106-.808-.375-.977.075-1.398 1.389-1.299 2.442.184 2.452.95.042 3.131q-1.9 1.719-2.569.639a1.277 1.277 0 0 0-1.754-.411c-.597.369-.816.236-.487-.296s-.526-2.274-1.899-3.872l-2.496-2.905 4.053-3.742c2.229-2.059 4.039-4.098 4.021-4.533-.017-.434-.629-.002-1.36.96-1.627 2.143-4.044 2.329-3.246.25.336-.876.015-1.5-.771-1.5-2.263 0-3.731-2.459-2.317-3.883.97-.977.908-1.115-.296-.657-.836.318-2.133 1.582-2.881 2.809s-1.016 1.909-.597 1.516 1.604-.265 2.631.285c1.942 1.039 2.543 4.396.962 5.372-.498.309-.698-.452-.442-1.691.389-1.885.198-1.79-1.172.587-.899 1.562-1.889 2.585-2.2 2.275-.31-.311-.025-1.214.634-2.008.954-1.15.846-1.641-.536-2.414-2.159-1.208-2.614-7.28-.653-8.723 1.148-.846 1.062-1.058-.472-1.174-1.606-.121-1.893.647-2.017 5.404-.215 8.282-1.235 7.755-1.235-.638 0-6.493.188-7.209 1.75-6.665 1.667.581 1.667.545 0-.753-.963-.749-1.75-2.1-1.75-3.002 0-1.352-1.143-1.64-6.5-1.64H154V24l-14.25-.071c-7.838-.039-19.394-.032-25.681.016-8.209.062-11.658-.271-12.235-1.18-.635-.999-.807-1.003-.819-.015-.01.878-2.075 1.25-6.942 1.25-5.756 0-7.004-.296-7.384-1.75-.435-1.667-.463-1.667-.573 0M0 34c0 5.683.298 10.035.662 9.671.752-.752.6-18.742-.164-19.507C.224 23.891 0 28.317 0 34m167.872-7.25c-1.243 1.586-1.208 1.621.378.378 1.666-1.307 2.195-2.128 1.372-2.128-.207 0-.995.788-1.75 1.75m-12.793.833c.048 1.165.285 1.402.604.605.289-.722.253-1.585-.079-1.917s-.568.258-.525 1.312M166 29.858c0 1.028 3.029 2.446 3.729 1.747.243-.244-.496-.945-1.643-1.559S166 29.347 166 29.858M196 30c0 .55.45 1 1 1s1-.45 1-1-.45-1-1-1-1 .45-1 1m-37.436 1.293c.376.986.935 1.541 1.243 1.233s.001-1.114-.683-1.793c-.988-.98-1.102-.865-.56.56m16.186.369c.688.278 1.813.278 2.5 0 .688-.277.125-.504-1.25-.504s-1.937.227-1.25.504m-19.671 1.921c.048 1.165.285 1.402.604.605.289-.722.253-1.585-.079-1.917s-.568.258-.525 1.312M166 32.882c0 .55.45 1.278 1 1.618s1 .168 1-.382-.45-1.278-1-1.618-1-.168-1 .382m5 .118c-.901.582-1.025.975-.309.985.655.008 1.469-.435 1.809-.985.767-1.242.421-1.242-1.5 0m-10 .393c0 .216.698.661 1.552.989.89.341 1.291.173.941-.393-.587-.951-2.493-1.406-2.493-.596m32.459 3.674c-.363.586-.445 1.281-.183 1.543s.743-.218 1.069-1.067c.676-1.762.1-2.072-.886-.476M173.5 38c-.34.55-.141 1 .441 1S175 38.55 175 38s-.198-1-.441-1-.719.45-1.059 1m21.5 1.059c0 .582.45.781 1 .441s1-.816 1-1.059-.45-.441-1-.441-1 .477-1 1.059m-12.727 2.964c-.08 1.066.199 2.151.62 2.411s.702-.397.624-1.46c-.196-2.658-1.065-3.323-1.244-.951M186 40.882c0 .55.45 1.278 1 1.618s1 .168 1-.382-.45-1.278-1-1.618-1-.168-1 .382m33 .011c0 .491.739 1.176 1.641 1.523 1.373.527 1.435.38.378-.893-1.44-1.735-2.019-1.916-2.019-.63M175.5 42c-.34.55-.141 1 .441 1S177 42.55 177 42s-.198-1-.441-1-.719.45-1.059 1m-143 1c-.34.55-.168 1 .382 1s1.278-.45 1.618-1 .168-1-.382-1-1.278.45-1.618 1m145.007.989c-.35.566.051.734.941.393 1.732-.665 2.049-1.382.611-1.382-.518 0-1.216.445-1.552.989m13.057 1.718c-.542 1.425-.428 1.54.56.56.684-.679.991-1.486.683-1.793-.308-.308-.867.247-1.243 1.233M0 60.5c0 8.708.27 15.563.6 15.233.685-.684.543-29.923-.148-30.614C.203 44.87 0 51.792 0 60.5m180.393-13.029c.362 2.466 1.607 3.005 1.607.696 0-1.192-.41-2.167-.912-2.167-.501 0-.814.662-.695 1.471M185.5 48c-.34.55-.141 1 .441 1S187 48.55 187 48s-.198-1-.441-1-.719.45-1.059 1m6.007-.011c-.35.566.051.734.941.393 1.732-.665 2.049-1.382.611-1.382-.518 0-1.216.445-1.552.989M192 53c0 .55.45 1 1 1s1-.45 1-1-.45-1-1-1-1 .45-1 1m11.5 1.5c0 1.27.338 2.1.75 1.845.412-.254.75-1.085.75-1.845s-.338-1.591-.75-1.845c-.412-.255-.75.575-.75 1.845m20.579-.917c.048 1.165.285 1.402.604.605.289-.722.253-1.585-.079-1.917s-.568.258-.525 1.312m4.921-.642c0 .518.445 1.216.989 1.552.566.35.734-.051.393-.941-.665-1.732-1.382-2.049-1.382-.611m-213 1c0 .518.445 1.216.989 1.552.566.35.734-.051.393-.941C16.717 52.82 16 52.503 16 53.941M186.5 54c-.34.55-.141 1 .441 1S188 54.55 188 54s-.198-1-.441-1-.719.45-1.059 1m-6.889 4.349c.488 1.538.213 1.73-1.638 1.143-1.511-.48-2.004-.351-1.539.401.988 1.598 3.532 1.36 4.204-.393.317-.825 1.203-1.5 1.969-1.5s1.393-.402 1.393-.894-1.119-.83-2.487-.75c-1.938.112-2.358.553-1.902 1.993m27.953-1.056c.376.986.935 1.541 1.243 1.233s.001-1.114-.683-1.793c-.988-.98-1.102-.865-.56.56M167.343 64.5c.003 4.4.179 6.076.39 3.724s.209-5.952-.006-8-.388-.124-.384 4.276M187 59c0 .55.702 1 1.559 1s1.281-.45.941-1-1.041-1-1.559-1-.941.45-.941 1m12.526 2.135c.521 2.707 1.098 3.283 1.933 1.932.362-.587.197-1.067-.369-1.067-.565 0-.768-.675-.452-1.5.317-.825.104-1.5-.474-1.5-.577 0-.864.961-.638 2.135m-8.294.865c-.687 1.1-.885 2-.44 2 1.041 0 3.208-2.161 3.208-3.2 0-1.473-1.506-.82-2.768 1.2m5.311-1.069c-.317.512-.193 1.167.274 1.456s.85-.13.85-.931c0-1.686-.316-1.833-1.124-.525m20.19 3.193c.679.684 1.486.991 1.793.683.308-.308-.247-.867-1.233-1.243-1.425-.542-1.54-.428-.56.56M198.5 66c-.34.55-.141 1 .441 1S200 66.55 200 66s-.198-1-.441-1-.719.45-1.059 1m34.5 3.059c0 .582.45.781 1 .441s1-.816 1-1.059-.45-.441-1-.441-1 .477-1 1.059m-41.222 2.191c-1.393 1.237-3.097 3.375-3.785 4.75l-1.252 2.5 2.002-2c1.1-1.1 1.834-2.294 1.63-2.653s.952-1.113 2.569-1.677c2.373-.827 2.838-.76 2.412.349-.434 1.132-.071 1.163 2.052.178 2.71-1.258 3.68-3.328 1.094-2.335-.825.316-1.5.139-1.5-.393 0-1.688-2.598-1.05-5.222 1.281m-4.749-.289c-.809.512-1.211 1.191-.893 1.509s1.148-.108 1.844-.946c1.443-1.738 1.166-1.902-.951-.563m-3.95 1.622c.048 1.165.285 1.402.604.605.289-.722.253-1.585-.079-1.917s-.568.258-.525 1.312M17 73c0 .55.477 1 1.059 1s.781-.45.441-1-.816-1-1.059-1-.441.45-.441 1m179.596.737c-.405.406-1.436.743-2.291.75s-2.178.951-2.941 2.096c-1.193 1.792-1.183 2.084.069 2.084.801 0 1.368-.432 1.261-.959-.106-.527.369-1.164 1.056-1.416.825-.303 1.25.568 1.25 2.566 0 3.077 1.394 4.932 2.437 3.244.317-.512.01-1.16-.681-1.44-.982-.398-.96-.718.101-1.461.95-.666 1.024-1.156.247-1.637-.783-.483-.804-1.257-.072-2.625 1.064-1.987.874-2.512-.436-1.202M211.5 75c.34.55 1.068 1 1.618 1s.722-.45.382-1-1.068-1-1.618-1-.722.45-.382 1M33 76.059c0 .582.45.781 1 .441s1-.816 1-1.059S34.55 75 34 75s-1 .477-1 1.059m174.459.008c-1.076 1.741.149 2.11 1.521.457.789-.95.865-1.524.201-1.524-.584 0-1.36.48-1.722 1.067M.306 97l.101 20.5.547-17.5c.3-9.625.255-18.85-.102-20.5C.496 77.85.25 85.725.306 97m209.449-15.5c.454 2.375 2.153 3.259 3.56 1.852.503-.504-2.883-4.352-3.829-4.352-.115 0 .006 1.125.269 2.5M216 80.167c0 .458.423.833.941.833s1.173-.375 1.456-.833c.283-.459-.14-.834-.941-.834s-1.456.375-1.456.834m-9 1.892c0 .582-.562.774-1.25.426s-.376.075.691.941c1.068.866 1.54 1.574 1.05 1.574s-.351.54.309 1.2c1.46 1.46 1.556 2.8.2 2.8-.55 0-.887-.506-.75-1.125s-.312-1.331-1-1.583-1.25-.026-1.25.502c0 1.43 2.773 3.464 3.831 2.81 1.234-.762 1.179-5.604-.063-5.604-.54 0-.723-.675-.406-1.5s.139-1.5-.393-1.5c-.533 0-.969.477-.969 1.059m8.5.941c.34.55 1.068 1 1.618 1s.722-.45.382-1-1.068-1-1.618-1-.722.45-.382 1m-3.468 2.528c.054 1.649 2.906 4.867 3.652 4.121.388-.387-.283-1.692-1.49-2.899-1.206-1.207-2.18-1.757-2.162-1.222m8.475 1.461c-.35.566.051.734.941.393 1.732-.665 2.049-1.382.611-1.382-.518 0-1.216.445-1.552.989m18.057.718c-.542 1.425-.428 1.54.56.56.684-.679.991-1.486.683-1.793-.308-.308-.867.247-1.243 1.233M47 92c0 2.533.389 3 2.5 3 2 0 2.5.5 2.5 2.5s.5 2.5 2.5 2.5 2.5.5 2.5 2.5.5 2.5 2.5 2.5 2.5-.5 2.5-2.5.5-2.5 2.5-2.5 2.5.5 2.5 2.5.5 2.5 2.5 2.5c2.111 0 2.5-.467 2.5-3s-.389-3-2.5-3c-2 0-2.5-.5-2.5-2.5s-.5-2.5-2.5-2.5-2.5-.5-2.5-2.5-.5-2.5-2.5-2.5-2.5.5-2.5 2.5-.5 2.5-2.5 2.5-2.5-.5-2.5-2.5-.5-2.5-2.5-2.5c-2.111 0-2.5.467-2.5 3m70.709-2.376c-.39.39-.709 1.759-.709 3.043 0 1.822.548 2.333 2.5 2.333 2 0 2.5.5 2.5 2.5s.5 2.5 2.5 2.5 2.5.5 2.5 2.5.5 2.5 2.5 2.5 2.5-.5 2.5-2.5.5-2.5 2.5-2.5 2.5.5 2.5 2.5.5 2.5 2.5 2.5c2.111 0 2.5-.467 2.5-3s-.389-3-2.5-3c-2 0-2.5-.5-2.5-2.5s-.5-2.5-2.5-2.5-2.5-.5-2.5-2.5-.5-2.5-2.5-2.5-2.5.5-2.5 2.5c0 3.323-3.712 3.545-4.18.25-.316-2.221-3.635-3.602-5.111-2.126m79.898.958c-.793 2.065-.766 2.418.18 2.418.433 0 .855-.9.938-2 .181-2.404-.289-2.58-1.118-.418m22.032-.888c-.953.953-.772 3.306.254 3.306 1.227 0 2.212-2.817 1.203-3.441-.449-.277-1.105-.217-1.457.135m-205.826.989c.721.289 1.584.253 1.916-.079s-.258-.568-1.312-.525c-1.165.048-1.402.285-.604.604m176.771.958c-.527 1.373-.38 1.435.893.378 1.735-1.44 1.916-2.019.63-2.019-.491 0-1.176.739-1.523 1.641M201 93c0 .55.477 1 1.059 1s.781-.45.441-1-.816-1-1.059-1-.441.45-.441 1m15.166 1.876c-1.098.696-1.083.942.083 1.389.809.311 1.418-.059 1.418-.86 0-.773-.038-1.398-.084-1.39s-.683.396-1.417.861M57 97c0 1.467.667 2 2.5 2s2.5-.533 2.5-2-.667-2-2.5-2-2.5.533-2.5 2m71 0q0 2 2 2t2-2-2-2-2 2m106-.607c0 .216.698.661 1.552.989.89.341 1.291.173.941-.393-.587-.951-2.493-1.406-2.493-.596m-20 1c0 .216.698.661 1.552.989.89.341 1.291.173.941-.393-.587-.951-2.493-1.406-2.493-.596m3.564 2.314c-.542 1.425-.428 1.54.56.56.684-.679.991-1.486.683-1.793-.308-.308-.867.247-1.243 1.233m8.421.043c-.012 1.363-.206 1.45-.875.393-.473-.746-1.118-.939-1.434-.428s.237 1.622 1.227 2.47c1.672 1.432 1.806 1.338 1.882-1.322.045-1.575-.114-2.863-.352-2.863s-.44.787-.448 1.75m5.653-.25c.317.825.753 1.5.969 1.5s.393-.675.393-1.5-.436-1.5-.969-1.5-.709.675-.393 1.5M30.5 101c-.34.55.11 1 1 1s1.34-.45 1-1-.79-1-1-1-.66.45-1 1m169.959 1.067c-.363.586-.445 1.281-.183 1.543s.743-.218 1.069-1.067c.676-1.762.1-2.072-.886-.476m18.541-.008c0 .582-.419.8-.931.484a1.096 1.096 0 0 0-1.505.353c-.315.511.192.816 1.127.679 1.543-.227 3.269-2.575 1.892-2.575-.321 0-.583.477-.583 1.059M23 103c0 .55.477 1 1.059 1s.781-.45.441-1-.816-1-1.059-1-.441.45-.441 1m189-.194c0 .522.675 1.509 1.5 2.194s1.5.933 1.5.551-.675-1.369-1.5-2.194-1.5-1.073-1.5-.551M32 105c0 .55.45 1 1 1s1-.45 1-1-.45-1-1-1-1 .45-1 1m172 0c0 .55.423 1 .941 1s1.219-.45 1.559-1-.084-1-.941-1-1.559.45-1.559 1m11.5 2c-.34.55-.141 1 .441 1s1.059-.45 1.059-1-.198-1-.441-1-.719.45-1.059 1m22.5.393c0 .216.698.661 1.552.989.89.341 1.291.173.941-.393-.587-.951-2.493-1.406-2.493-.596m-8.648 1.367c.363.588.095 1.297-.596 1.576-.899.362-.917.529-.065.585 1.721.114 2.548-1.656 1.171-2.506-.698-.432-.904-.292-.51.345m13.148.24c.34.55.816 1 1.059 1s.441-.45.441-1-.477-1-1.059-1-.781.45-.441 1m-42.5 1.059c0 .582.45.781 1 .441s1-.816 1-1.059-.45-.441-1-.441-1 .477-1 1.059M29 113c0 .55.477 1 1.059 1s.781-.45.441-1-.816-1-1.059-1-.441.45-.441 1m174.5 0c-.34.55-.141 1 .441 1s1.059-.45 1.059-1-.198-1-.441-1-.719.45-1.059 1m11.5 0c0 .55.702 1 1.559 1s1.281-.45.941-1-1.041-1-1.559-1-.941.45-.941 1m5.655 1.543c.326.849.837 1.298 1.137.998s1.482.24 2.627 1.2c1.516 1.271 1.423 1-.343-.998-2.668-3.018-4.345-3.606-3.421-1.2M218 115.882c0 .55.45 1.278 1 1.618s1 .168 1-.382-.45-1.278-1-1.618-1-.168-1 .382m-185.53 2.8c.154 1.4.886 2.92 1.626 3.377 2.167 1.34 2.441.06.331-1.55-1.535-1.172-1.656-1.65-.593-2.351 1.089-.718 1.061-.984-.155-1.451-1.114-.427-1.418.069-1.209 1.975M215.5 117c.34.55.816 1 1.059 1s.441-.45.441-1-.477-1-1.059-1-.781.45-.441 1m22.5.059c0 .582.45.781 1 .441s1-.816 1-1.059-.45-.441-1-.441-1 .477-1 1.059M.36 127c0 5.225.169 7.363.375 4.75s.206-6.888 0-9.5S.36 121.775.36 127m228.453-8.317c.721.289 1.584.253 1.916-.079s-.258-.568-1.312-.525c-1.165.048-1.402.285-.604.604m17.187-.228c0 .772 2.976 1.392 3.399.709.254-.412-.406-.814-1.468-.894s-1.931.003-1.931.185M221.5 120c-1.908.82-1.897.863.25.93 1.238.038 2.25-.38 2.25-.93s-.113-.968-.25-.93c-.137.039-1.15.457-2.25.93m-203.957.931a1.086 1.086 0 0 0 .336 1.494c.501.31 1.169-.109 1.485-.931.622-1.62-.881-2.085-1.821-.563M217.275 122c.083 1.1.477 2 .876 2 .398 0 .657-.9.574-2s-.477-2-.876-2c-.398 0-.657.9-.574 2M204 121.43c0 .275.9.981 2 1.57s2 .845 2 .57-.9-.981-2-1.57-2-.845-2-.57m47 1.57c-.901.582-1.025.975-.309.985.655.008 1.469-.435 1.809-.985.767-1.242.421-1.242-1.5 0m-217.571 2c0 1.295.338 1.633.985.986.648-.648.648-1.324 0-1.972-.647-.647-.985-.309-.985.986M212 124.059c0 .582-.562.735-1.25.34-.687-.396-.913-.348-.502.106 1.018 1.122 5.752 1.562 5.752.534 0-.454-.712-1.098-1.582-1.432-2.149-.825-2.418-.775-2.418.452m8.5.941c.34.55.816 1 1.059 1s.441-.45.441-1-.477-1-1.059-1-.781.45-.441 1m-190.833 1.667c-1.19 1.189-.71 1.904 1.278 1.904 1.471 0 1.684-.313.877-1.285-1.237-1.491-1.273-1.501-2.155-.619M206.5 127c-.34.55-.141 1 .441 1s1.059-.45 1.059-1-.198-1-.441-1-.719.45-1.059 1m-183 2c.34.55.816 1 1.059 1s.441-.45.441-1-.477-1-1.059-1-.781.45-.441 1m192.5-.118c0 .55.45 1.278 1 1.618s1 .168 1-.382-.45-1.278-1-1.618-1-.168-1 .382m5.601.282c.255.412 1.124.495 1.931.185 2.036-.781 1.834-1.252-.463-1.079-1.062.08-1.722.482-1.468.894m-198.994 3.418c-.793 2.065-.766 2.418.18 2.418.433 0 .855-.9.938-2 .181-2.404-.289-2.58-1.118-.418M220 132.059c0 .582.45.781 1 .441s1-.816 1-1.059-.45-.441-1-.441-1 .477-1 1.059m5.813-.376c.721.289 1.584.253 1.916-.079s-.258-.568-1.312-.525c-1.165.048-1.402.285-.604.604M207.5 134c-.34.55.084 1 .941 1s1.559-.45 1.559-1-.423-1-.941-1-1.219.45-1.559 1m29 0c.34.55.216 1-.274 1-.491 0-.893.632-.893 1.404 0 1.061.409 1.15 1.667.364 2.022-1.263 2.204-3.768.274-3.768-.765 0-1.114.45-.774 1m-32.79 4c.288 1.1.921 2 1.407 2 1.045 0 1.082-.319.276-2.418-.881-2.296-2.3-1.944-1.683.418M.252 140.5c.011 2.2.216 2.982.455 1.738s.23-3.044-.02-4-.446.062-.435 2.262m230.207-1.433c-.363.586-.445 1.281-.183 1.543s.743-.218 1.069-1.067c.676-1.762.1-2.072-.886-.476m-203.316.823c-.834.529-.971 1.098-.355 1.479.552.341 1.26-.053 1.576-.875.662-1.727.6-1.757-1.221-.604m170.47.293c.289.467.944.591 1.456.274 1.308-.808 1.161-1.124-.525-1.124-.801 0-1.22.383-.931.85M234.5 140c-.34.55-.141 1 .441 1s1.059-.45 1.059-1-.198-1-.441-1-.719.45-1.059 1m-29.973 1.563c-3.968 2.069-4.024 2.187-1.037 2.187 1.493 0 2.995-.787 3.577-1.875 1.209-2.259 1.196-2.261-2.54-.312M34 145c0 .55.45 1 1 1s1-.45 1-1-.45-1-1-1-1 .45-1 1m185.564.293c.376.986.935 1.541 1.243 1.233s.001-1.114-.683-1.793c-.988-.98-1.102-.865-.56.56m9.943-.304c-.35.566.051.734.941.393 1.732-.665 2.049-1.382.611-1.382-.518 0-1.216.445-1.552.989M.232 148c0 1.925.206 2.713.457 1.75.252-.963.252-2.537 0-3.5-.251-.963-.457-.175-.457 1.75m23.435-2.333c-.367.366-.653 1.379-.637 2.25.025 1.3.221 1.257 1.092-.242 1.077-1.852.765-3.228-.455-2.008M207 146.5c0 .825.177 1.5.393 1.5s.652-.675.969-1.5.139-1.5-.393-1.5c-.533 0-.969.675-.969 1.5m-6.014.914c-1.25 1.25-1.289 6.281-.055 7.043.512.317 1.213.118 1.559-.441s.191-1.016-.342-1.016c-1.694 0-.584-3.163 1.719-4.9 2.167-1.635 2.171-1.671.16-1.671-1.13 0-2.499.443-3.041.985m-7.791 2.086c.02 1.65.244 2.204.498 1.231s.237-2.323-.037-3-.481.119-.461 1.769M20.5 150c-.34.55-.141 1 .441 1S22 150.55 22 150s-.198-1-.441-1-.719.45-1.059 1m202.5-.229c0 1.561 2.848 2.296 3.628.935.381-.663.324-.872-.126-.465-.45.408-1.422.24-2.16-.372-.844-.7-1.342-.737-1.342-.098m-203 4.288c0 .582.45.781 1 .441s1-.816 1-1.059-.45-.441-1-.441-1 .477-1 1.059m173.158.941c0 1.375.227 1.938.504 1.25.278-.687.278-1.812 0-2.5-.277-.687-.504-.125-.504 1.25m2.48.5c.317.825 1.033 1.5 1.591 1.5.586 0 .489-.635-.229-1.5-.685-.825-1.401-1.5-1.591-1.5s-.087.675.229 1.5m-186.905.624c.679.684 1.486.991 1.793.683.308-.308-.247-.867-1.233-1.243-1.425-.542-1.54-.428-.56.56m21 0c.679.684 1.486.991 1.793.683.308-.308-.247-.867-1.233-1.243-1.425-.542-1.54-.428-.56.56M.425 177c0 11.825.144 16.662.321 10.75s.177-15.588 0-21.5S.425 165.175.425 177m208.754-18.402c-3.539 3.773-2.133 4.372 1.543.658 1.771-1.791 2.671-3.228 2-3.195-.672.034-2.267 1.175-3.543 2.537m35.488 1.069c-.367.366-.667 1.131-.667 1.7 0 .626.466.567 1.183-.15.651-.651.951-1.416.667-1.7s-.817-.217-1.183.15m-11.588 1.916c.048 1.165.285 1.402.604.605.289-.722.253-1.585-.079-1.917s-.568.258-.525 1.312m-3.515 8.124c-.542 1.425-.428 1.54.56.56.684-.679.991-1.486.683-1.793-.308-.308-.867.247-1.243 1.233M45 172.668c.825.347 1.872 1.127 2.326 1.732.531.707.68.565.417-.4-.225-.825-1.271-1.605-2.326-1.732-1.347-.164-1.471-.045-.417.4m191.507.321c-.35.566.051.734.941.393 1.732-.665 2.049-1.382.611-1.382-.518 0-1.216.445-1.552.989M43.5 186c-.34.55-.168 1 .382 1s1.278-.45 1.618-1 .168-1-.382-1-1.278.45-1.618 1m178.5 5c0 .55.477 1 1.059 1s.781-.45.441-1-.816-1-1.059-1-.441.45-.441 1m0 7.059c0 .582.45.781 1 .441s1-.816 1-1.059-.45-.441-1-.441-1 .477-1 1.059m-163.628 1.235c-.381.663-.324.872.126.465.45-.408 1.422-.24 2.16.372.844.7 1.342.737 1.342.098 0-1.561-2.848-2.296-3.628-.935M.441 227.5c.001 15.95.139 22.335.307 14.189s.168-21.196-.001-29C.579 204.885.441 211.55.441 227.5m225.638-12.917c.048 1.165.285 1.402.604.605.289-.722.253-1.585-.079-1.917s-.568.258-.525 1.312M43.5 215c-.34.55-.141 1 .441 1S45 215.55 45 215s-.198-1-.441-1-.719.45-1.059 1m17.113 4.183c.289.467.944.591 1.456.274 1.308-.808 1.161-1.124-.525-1.124-.801 0-1.22.383-.931.85m21.846 3.884c-.363.586-.445 1.281-.183 1.543s.743-.218 1.069-1.067c.676-1.762.1-2.072-.886-.476m130.048 7.922c-.35.566.051.734.941.393 1.732-.665 2.049-1.382.611-1.382-.518 0-1.216.445-1.552.989M76.5 233c-.34.55-.141 1 .441 1S78 233.55 78 233s-.198-1-.441-1-.719.45-1.059 1m97 10c-.34.55-.141 1 .441 1s1.059-.45 1.059-1-.198-1-.441-1-.719.45-1.059 1"/></svg>