<svg xmlns="http://www.w3.org/2000/svg" width="256" height="256"><path fill="#1976D2" fill-opacity=".239" fill-rule="evenodd" d="M0 128.004v128.004l128.25-.254 128.25-.254.254-127.75L257.008 0H0zm.485.496c0 70.4.119 99.053.265 63.672s.146-92.98 0-128S.485 58.1.485 128.5"/><path fill="#1976D2" fill-opacity=".129" fill-rule="evenodd" d="M0 128.004v128.004l128.25-.254 128.25-.254.254-127.75L257.008 0H0zm.485.496c0 70.4.119 99.053.265 63.672s.146-92.98 0-128S.485 58.1.485 128.5M100 63.5V72h-9v23.89l-4.75.375c-2.612.206 9.762.456 27.5.555L146 97v-3.943c0-3.923.021-3.943 4.25-4.25l4.25-.307v-25l-4.25-.307c-4.229-.307-4.25-.327-4.25-4.25V55h-46zm-29 39c0 .825.675 1.5 1.5 1.5s1.5-.675 1.5-1.5-.675-1.5-1.5-1.5-1.5.675-1.5 1.5m7 0c0 .825.675 1.5 1.5 1.5s1.5-.675 1.5-1.5-.675-1.5-1.5-1.5-1.5.675-1.5 1.5m28 2c0 2.444-.452 3.5-1.5 3.5-.833 0-1.5.889-1.5 2q0 2-2 2c-1.111 0-2 .667-2 1.5 0 1.083-1.111 1.5-4 1.5h-4v17h9v17h17.885l.308 4.25.307 4.25 4.75.305 4.75.305v3.887c0 3.859.032 3.89 4.25 4.196 4.229.306 4.251.328 4.557 4.557l.308 4.25H182v8h9v-25h-9v-9h-9v-8h-27v-16.89l-4.75-.305-4.75-.305v-8l-8.75-.289c-6.876-.227-8.75-.602-8.75-1.75 0-.804-.675-1.461-1.5-1.461-.833 0-1.5-.889-1.5-2q0-2-2-2c-1.619 0-2-.667-2-3.5 0-3.222-.238-3.5-3-3.5s-3 .278-3 3.5m14-2.073c0 .927.855 1.573 2.083 1.573 2.437 0 2.093-2.337-.416-2.823-.987-.192-1.667.318-1.667 1.25m8 .073c0 .825.45 1.5 1 1.5s1-.675 1-1.5-.45-1.5-1-1.5-1 .675-1 1.5m-53 4.083c0 1.766 2.153 1.459 2.771-.395.218-.654-.317-1.188-1.188-1.188-.87 0-1.583.713-1.583 1.583m6.25-.333c.229.688 1.017 1.25 1.75 1.25s1.521-.562 1.75-1.25c.248-.744-.461-1.25-1.75-1.25s-1.998.506-1.75 1.25m42.75.25c0 .825.675 1.5 1.5 1.5s1.5-.675 1.5-1.5-.675-1.5-1.5-1.5-1.5.675-1.5 1.5m7 0c0 .825.675 1.5 1.5 1.5s1.5-.675 1.5-1.5-.675-1.5-1.5-1.5-1.5.675-1.5 1.5m-53 3c0 .825.675 1.5 1.5 1.5s1.5-.675 1.5-1.5-.675-1.5-1.5-1.5-1.5.675-1.5 1.5m7 0c0 .825.675 1.5 1.5 1.5s1.5-.675 1.5-1.5-.675-1.5-1.5-1.5-1.5.675-1.5 1.5m42.638 0c-.35.914-.001 1.5.893 1.5.808 0 1.469-.675 1.469-1.5s-.402-1.5-.893-1.5-1.152.675-1.469 1.5m7.017-.042c-.415 1.081.022 1.542 1.46 1.542 1.139 0 1.876-.528 1.656-1.187-.617-1.852-2.461-2.062-3.116-.355"/><path fill="#1976D2" fill-opacity=".823" fill-rule="evenodd" d="M0 128.004v128.004l128.25-.254 128.25-.254.254-127.75L257.008 0H0zm.485.496c0 70.4.119 99.053.265 63.672s.146-92.98 0-128S.485 58.1.485 128.5M82 58.75V63h-9v9h-9v25h40c22 0 40.338.112 40.75.25s.888-1.662 1.057-4l.308-4.25H155V63h-9v-9.199l-32 .349-31.999.35zM71 103c0 1.111.667 2 1.5 2 .825 0 1.5.675 1.5 1.5 0 .833.889 1.5 2 1.5s2-.667 2-1.5c0-.825.675-1.5 1.5-1.5s1.5.675 1.5 1.5c0 .833.889 1.5 2 1.5q2 0 2 2c0 1.111.667 2 1.5 2s1.5-.889 1.5-2-.667-2-1.5-2-1.5-.889-1.5-2q0-2-2-2c-1.111 0-2-.667-2-1.5 0-.825-.675-1.5-1.5-1.5s-1.5.675-1.5 1.5c0 .833-.889 1.5-2 1.5s-2-.667-2-1.5c0-.825-.675-1.5-1.5-1.5-.833 0-1.5.889-1.5 2m35 1.5c0 2.833-.381 3.5-2 3.5-1.111 0-2 .667-2 1.5 0 .825-.675 1.5-1.5 1.5-.833 0-1.5.889-1.5 2 0 1.893-.667 2-12.5 2-11.767 0-12.5-.115-12.5-1.969 0-1.339-.48-1.784-1.5-1.393-1.041.4-1.5-.069-1.5-1.531 0-1.44-.633-2.107-2-2.107-1.111 0-2-.667-2-1.5 0-.825-.675-1.5-1.5-1.5-1.296 0-1.5 3.611-1.5 26.5V158h9v17h9v4c0 3.756.701 4.583 3.436 4.057.514-.1 1.977.081 3.25.4 1.934.486 2.314 1.235 2.314 4.562V192h8.885l.308 4.25.307 4.25 36.25.262 36.25.263V192h9v-7.89l4.75-.305 4.75-.305.28-12.75.28-12.75-2.78-.115c-1.529-.063-3.54-.04-4.47.053-1.309.13-1.76-.801-2-4.135-.31-4.302-.311-4.303-4.81-4.803-4.483-.498-4.5-.515-4.581-4.5l-.081-4-13.669-.278-13.669-.278V123h-9v-8h-8.5c-7.111 0-8.5-.26-8.5-1.594 0-.876-.9-1.829-2-2.116s-2-1.146-2-1.907c0-.76-.675-1.383-1.5-1.383-1.048 0-1.5-1.056-1.5-3.5 0-3.333-.167-3.5-3.5-3.5s-3.5.167-3.5 3.5m14-1.906c0 .876.9 1.829 2 2.116s2 1.146 2 1.907c0 .76.623 1.383 1.383 1.383.761 0 1.631.947 1.934 2.105.625 2.388 3.016 2.089 3.506-.438.218-1.124-.352-1.667-1.75-1.667-1.176 0-2.073-.649-2.073-1.5 0-.833.889-1.5 2-1.5s2 .667 2 1.5c0 .825.623 1.5 1.383 1.5.761 0 1.631.947 1.934 2.105.625 2.388 3.016 2.089 3.506-.438.218-1.124-.352-1.667-1.75-1.667-1.406 0-2.073-.643-2.073-2 0-1.111-.667-2-1.5-2-.825 0-1.5-.675-1.5-1.5 0-.833-.889-1.5-2-1.5s-2 .667-2 1.5c0 .825-.675 1.5-1.5 1.5s-1.5-.675-1.5-1.5c0-.833-.889-1.5-2-1.5-1.163 0-2 .667-2 1.594M78 110c0 1.111.667 2 1.5 2s1.5-.889 1.5-2-.667-2-1.5-2-1.5.889-1.5 2"/><path fill="#1976D2" fill-opacity=".499" fill-rule="evenodd" d="M.063 58.476C.042 100.572.344 117 1.139 117c.789 0 .779.394-.038 1.378-1.551 1.869-1.235 36.813.324 35.881.591-.354.528.033-.14.859C.369 156.251.062 168.853.038 206.31L.006 256h11.948c10.282 0 12.103-.244 13.072-1.75 1.066-1.659 1.096-1.658.574.019-.521 1.671 1.376 1.762 33.969 1.643 29.139-.106 34.241-.335 32.726-1.469-1.658-1.241-1.624-1.3.455-.777 1.237.312 2.25.947 2.25 1.411s36.337.749 80.75.633l80.75-.21.165-55.494c.122-41.295-.133-55.683-1-56.234-.861-.548-.839-.745.085-.757 1.653-.02 1.653-6.686 0-7.353-.915-.369-.929-.525-.051-.583.902-.059 1.213-7.402 1.253-29.64.043-23.435-.205-29.405-1.199-28.808-.988.594-.998.437-.045-.741.894-1.106 1.21-11.118 1.218-38.626l.01-37.133-23.968-.057C219.786.043 209 .389 209 .842c0 .454-.655.825-1.456.825s-1.224-.375-.941-.834S199.891 0 191.059 0C179.235 0 175 .316 175 1.2c0 .933-.267.933-1.2 0-.86-.86-7.361-1.2-22.927-1.2-19.851 0-21.766.151-22.184 1.75-.435 1.667-.463 1.667-.573 0-.132-1.997-4.107-2.478-4.131-.5-.012.956-.195.968-.778.05-.524-.823-4.596-1.208-12.985-1.226-10.907-.023-12.225.16-12.252 1.7-.028 1.573-.116 1.581-.986.09C96.122.389 91.321.215 48.061.09L.093-.048zM0 12c0 6.233.258 11.076.573 10.761.706-.707.65-20.871-.06-21.582C.231.897 0 5.767 0 12m193.079-9.417c.048 1.165.285 1.402.604.605.289-.722.253-1.585-.079-1.917s-.568.258-.525 1.312M164.5 6c.34.55.816 1 1.059 1s.441-.45.441-1-.477-1-1.059-1-.781.45-.441 1m3.57 3.869c-.55 1.027-.715 2.152-.368 2.5 1.216 1.215 1.798.61 1.798-1.869 0-2.994-.134-3.053-1.43-.631m-71.257-.186c.721.289 1.584.253 1.916-.079s-.258-.568-1.312-.525c-1.165.048-1.402.285-.604.604m28.854.984c-.367.366-.667 1.131-.667 1.7 0 .626.466.567 1.183-.15.651-.651.951-1.416.667-1.7s-.817-.217-1.183.15m-26.584.616c.23.156 1.152.842 2.05 1.525 1.332 1.013 1.742.961 2.219-.282.433-1.13-.099-1.526-2.05-1.526-1.449 0-2.448.127-2.219.283M222.5 14c.34.55.816 1 1.059 1s.441-.45.441-1-.477-1-1.059-1-.781.45-.441 1m-72.897.833c-.283.459.14.834.941.834s1.456-.375 1.456-.834-.423-.833-.941-.833-1.173.375-1.456.833M53 16.059c0 .582.45.781 1 .441s1-.816 1-1.059S54.55 15 54 15s-1 .477-1 1.059m58 .441c-.718.865-.815 1.5-.229 1.5.558 0 1.274-.675 1.591-1.5s.419-1.5.229-1.5-.906.675-1.591 1.5m24-.5c0 .55.45 1 1 1s1-.45 1-1-.45-1-1-1-1 .45-1 1m31.603.167c.283.458.938.833 1.456.833s.941-.375.941-.833c0-.459-.655-.834-1.456-.834s-1.224.375-.941.834m-106.99 1.016c.289.467.944.591 1.456.274 1.308-.808 1.161-1.124-.525-1.124-.801 0-1.22.383-.931.85m150.951.524c-.542 1.425-.428 1.54.56.56.684-.679.991-1.486.683-1.793-.308-.308-.867.247-1.243 1.233M132 18c-.901.582-1.025.975-.309.985.655.008 1.469-.435 1.809-.985.767-1.242.421-1.242-1.5 0m14 .059c0 .582.45.781 1 .441s1-.816 1-1.059-.45-.441-1-.441-1 .477-1 1.059m4 0c0 .582.45.781 1 .441s1-.816 1-1.059-.45-.441-1-.441-1 .477-1 1.059m6.98.465c-.696.838-.976 1.813-.623 2.167.354.353.643.103.643-.557 0-.659 1.012-1.605 2.25-2.103 1.523-.612 1.724-.925.622-.968-.895-.034-2.196.623-2.892 1.461M168.5 19c-.34.55-.141 1 .441 1S170 19.55 170 19s-.198-1-.441-1-.719.45-1.059 1M66 19.393c0 .216.675.652 1.5.969s1.5.139 1.5-.393c0-.533-.675-.969-1.5-.969s-1.5.177-1.5.393m57.643 1.095c-.314.818-.25 1.44.143 1.382 2.126-.317 2.377.296.655 1.598-1.067.808-1.434 1.483-.813 1.5 1.778.05 3.671-2.665 2.404-3.448-.585-.362-.806-1.077-.489-1.589.316-.512.147-.931-.377-.931s-1.209.67-1.523 1.488M85.638 22.5c-.316.825-.187 1.5.286 1.5.474 0 1.121-.675 1.438-1.5s.187-1.5-.286-1.5c-.474 0-1.121.675-1.438 1.5m29.204.191c-.62.746-.848 1.636-.508 1.976s.892-.092 1.225-.961 1.244-1.335 2.024-1.036c.779.299 1.417.121 1.417-.396 0-1.417-2.876-1.129-4.158.417M70 23.059c0 .582.45.781 1 .441s1-.816 1-1.059S71.55 22 71 22s-1 .477-1 1.059m31 0c0 .582.45.781 1 .441s1-.816 1-1.059-.45-.441-1-.441-1 .477-1 1.059m3.636.435c.316.822.984 1.241 1.485.931 1.049-.648.207-2.425-1.149-2.425-.5 0-.651.672-.336 1.494m30.608.17c-.691.279-1.002.918-.691 1.421.878 1.421 2.114 1.079 2.114-.585 0-.825-.038-1.464-.084-1.421s-.648.307-1.339.585m27.32 1.043c-.542 1.425-.428 1.54.56.56.684-.679.991-1.486.683-1.793-.308-.308-.867.247-1.243 1.233M.116 34.083c.064 5.73.323 9.624.576 8.655.268-1.028.949-1.469 1.634-1.058.889.533.896.354.027-.738-.631-.793-1.193-4.779-1.249-8.858s-.328-7.641-.603-7.917c-.276-.275-.449 4.187-.385 9.916M119.5 26c-.34.55-.364 1.412-.053 1.915s0 1.116-.691 1.363-.918.81-.506 1.252c1.029 1.103 1.751.196 2.314-2.907.488-2.693.03-3.392-1.064-1.623m47.905 1.505c-1.4 2.137-1.44 2.753-.273 4.192.935 1.153.972 1.449.118.936-.787-.473-1.25-.173-1.25.808 0 2.199 1.727 1.937 3.008-.456.853-1.593.748-2.142-.501-2.621-1.432-.549-1.434-.826-.02-2.985.858-1.308 1.334-2.379 1.059-2.379s-1.238 1.127-2.141 2.505M77 26.393c0 .216.698.661 1.552.989.89.341 1.291.173.941-.393-.587-.951-2.493-1.406-2.493-.596m31.666 1.034c-.301.785.214 2.022 1.143 2.75 1.52 1.189 1.552 1.146.319-.427-1.25-1.593-.893-2.187 1.122-1.868.412.065.75-.332.75-.882 0-1.534-2.714-1.187-3.334.427m21.266 1.323c2.202 3.038 3.466 8.25 2.002 8.25-.514 0-.99-.675-1.059-1.5-.256-3.076-.393-3.5-1.125-3.5h-1.372c-.343 0-.096.635.548 1.411 1.473 1.775-.142 2.973-2.851 2.113-2.452-.778-3.886 1.443-1.715 2.657.902.505 1.626 1.684 1.61 2.619-.028 1.543-.127 1.535-1.075-.094-.693-1.191-1.774-1.614-3.219-1.259-1.197.294-1.613.276-.926-.04 1.988-.912 1.59-4.475-.414-3.706-1.145.44-1.431.261-.916-.572.432-.699 1.611-.936 2.789-.563 1.489.473 1.83.307 1.262-.613-.507-.82-.376-1.012.374-.548.635.392 1.155.236 1.155-.346 0-1.344-3.676-1.392-4.5-.059-.99 1.602-2.314 1.16-3-1-.349-1.1-1.279-2-2.067-2S114 29.475 114 28.833c0-.641-.289-.877-.643-.524-.353.354-.132 1.257.492 2.009.623.751.838 1.662.476 2.024s-.107.658.567.658.951.445.615.989c-.363.588.088.72 1.115.326 1.303-.5 1.574-.268 1.107.949-.395 1.028-.005 1.772 1.076 2.057 1.45.382 1.424.464-.177.563-1.611.1-1.69.36-.567 1.866.719.962-.101.288-1.821-1.5-3.389-3.522-4.819-3.886-7.438-1.896-1.583 1.203-1.563 1.407.297 2.998 1.097.94 2.423 1.443 2.948 1.119s.953.128.953 1.005c0 1.344-.354 1.405-2.25.39-1.237-.662-2.399-1.015-2.581-.785s-.913-.669-1.625-1.999c-1.273-2.378-1.312-2.384-2.384-.381-.599 1.12-.769 2.357-.377 2.749s-.636.42-2.285.063c-2.84-.615-2.897-.567-1.071.909 1.06.856 1.561 1.899 1.113 2.318-.448.418-.999.245-1.225-.384-.449-1.251-4.441-.596-5.426.89-.336.507-.893.186-1.238-.714-.346-.9-.296-1.444.11-1.209.407.235 1.639.065 2.739-.378 1.692-.68 1.538-.818-1-.89-2.317-.066-2.659-.306-1.5-1.055.942-.609 1.048-.975.285-.985-1.736-.022-3.398 3.527-2.611 5.577.434 1.132.283 1.499-.435 1.056-.605-.374-1.413-.175-1.795.442-.42.68-.941.747-1.319.171-.344-.524-1.907-1.267-3.473-1.651-2.111-.517-2.731-.362-2.396.596.248.712 1.192 1.162 2.098 1S86 47.321 86 47.82c0 1.467-3.989.816-5.022-.82-.801-1.268-.95-1.22-.963.309-.008.995-.472 1.526-1.031 1.181-.559-.346-.715-1.117-.346-1.714.417-.675.202-.795-.571-.318-.894.553-.937 1.072-.154 1.855 1.655 1.655 1.305 2.579-.913 2.412-1.1-.083-2-.56-2-1.06 0-.501-.646-.374-1.436.282-1.074.892-1.963.91-3.528.072-1.151-.616-1.884-1.457-1.629-1.869s-.52-1.362-1.722-2.111c-1.993-1.241-2.064-1.214-.813.3 1.215 1.469.919 2.037-.955 1.835-.321-.035-.584.587-.584 1.382 0 1.722 1.339 1.929 1.885.291.263-.791 1.219-.607 3.039.586 1.46.957 3.094 1.468 3.63 1.137s1.257-.145 1.603.414c.345.559.082 1.016-.586 1.016-.774 0-.591.688.506 1.901 1.156 1.277 1.363 2.121.63 2.574-.606.375-.968.087-.815-.651.166-.8-.854-1.453-2.581-1.651-1.831-.209-2.62.056-2.198.739.403.652.057.834-.894.47-.854-.328-1.552-.098-1.552.511s.563 1.114 1.25 1.122c.831.01.747.336-.25.97-1.241.789-1.283 1.305-.239 2.988.693 1.119.918 1.972.5 1.897-.419-.076-2.172.194-3.897.598-3.088.725-5.284 3.686-5.434 7.329-.058 1.391-.219 1.337-.881-.297-.548-1.354-.29-2.592.8-3.832 1.484-1.689 1.473-1.908-.141-2.811-.962-.539-1.489-1.402-1.17-1.918.768-1.242-.206-1.187-2.711.154-1.477.79-2.344.79-3.134 0C51.092 62.492 50.14 62 49.577 62c-.562 0-.079.66 1.073 1.467s3.052 1.283 4.222 1.058c1.99-.384 2.7.612 2.119 2.975-.135.55-.263 1.543-.285 2.207s-.739 1.476-1.595 1.804c-1.31.503-1.333.734-.147 1.467 1.174.725 1.187 1.135.081 2.468-1.202 1.448-1.459 1.408-2.743-.426-.78-1.113-1.133-2.585-.786-3.272.348-.686-.076-.374-.942.693C48.582 74.898 48.577 76 50.559 76c.857 0 1.307.408.999.906s-1.347.788-2.309.644-1.186-.07-.499.167c.687.236 1.264.959 1.28 1.606s.479.408 1.027-.531c.995-1.708 3.943-1.428 3.943.374 0 .524-.487.651-1.083.283-.595-.368-.358.73.526 2.441.903 1.747 1.159 3.11.583 3.11-.564 0-1.026-.623-1.026-1.383 0-1.698-4.106-2.911-5.416-1.601-.523.523-.619 1.283-.213 1.688.406.406 1.107.141 1.558-.59.575-.929 1.026-.995 1.505-.221.376.609.095 1.137-.625 1.175-.72.037-.296.556.941 1.152 2.662 1.284 3.004 3.814.5 3.701-1.157-.052-1.302-.258-.43-.607.953-.381.721-.947-.834-2.036-1.57-1.1-2.454-1.21-3.257-.407C46.232 87.368 45.762 91 47.065 91c.579 0 .739-.508.355-1.13-.428-.692-.16-.934.691-.625.764.278 1.258 1.066 1.098 1.753-.191.819.324 1.013 1.5.565 1.374-.523 1.518-.406.619.5-.644.649-.944 1.913-.666 2.809.344 1.107-.122.921-1.454-.579-1.078-1.215-2.219-1.949-2.536-1.631-.317.317-1.252-.099-2.077-.924s-1.197-1.802-.828-2.172c.37-.369-.027-.404-.881-.076s-1.553 1.271-1.553 2.096c0 .841.588 1.275 1.337.987.99-.38.925.115-.247 1.904-2.009 3.066-1.968 2.637-.511 5.359.688 1.284 1.503 2.083 1.812 1.774.308-.309.031-1.2-.617-1.981-.939-1.132-.839-1.389.5-1.274.923.08 1.864-.382 2.092-1.026.269-.758-.4-.999-1.892-.682-2.099.446-2.141.385-.461-.682 2.381-1.512 4.748.341 2.854 2.235-1.943 1.943-1.372 3.265.629 1.455C48.933 97.75 50 97.548 50 99.052c0 .579-1.349 1.522-2.999 2.097-1.649.575-2.741 1.463-2.425 1.973.315.51.202.863-.252.784-2.213-.384-2.472.273-.824 2.094 1.195 1.321 1.381 2 .548 2-.711 0-1.011.655-.686 1.5.735 1.915-.089 1.915-2.005 0-1.37-1.37-1.062-1.927.893-1.618.413.065.75-.38.75-.989s-.62-.869-1.378-.578-1.832.075-2.387-.48c-.679-.679-1.26-.603-1.777.232-.494.801-.357.988.387.528.689-.425 1.155-.069 1.155.881 0 2.351 3.005 6.524 4.698 6.524.808 0 1.272.562 1.032 1.25-.241.688-1.239 1.104-2.22.925-1.234-.225-1.606.134-1.209 1.167.315.821-.074 1.741-.864 2.044s-1.437.115-1.437-.417c0-.533-.447-.969-.994-.969s-.805 1.013-.574 2.25.46 2.475.509 2.75.526-.175 1.059-1c.824-1.276.972-1.283.985-.05.012 1.128.282 1.183 1.215.25 1.725-1.725 3.199-1.484 1.621.265-3.825 4.243-3.969 4.534-2.105 4.279 1.667-.228 3.168 1.116 1.534 1.374-.413.066-1.567.691-2.565 1.39s-2.685 1.043-3.75.765c-1.064-.279-1.935-.018-1.935.579s.68.824 1.511.505c1.126-.432 1.337-.124.827 1.205-.538 1.4-.199 1.299 1.572-.472 1.241-1.241 2.544-1.97 2.894-1.619s-.024 1.056-.833 1.568c-1.195.756-1.095.936.529.961 1.505.023 1.665.243.643.89-.946.6-1.021 1.067-.25 1.544 1.655 1.023 1.335 2.591-.393 1.928-.826-.317-1.5-.03-1.5.639 0 .797.86 1 2.5.588 1.442-.361 2.5-.196 2.5.392 0 .56-.45 1.075-1 1.144l-2.25.283c-.687.088-1.491-.177-1.786-.587-.787-1.095-5.046.237-4.352 1.361.325.525 1.27.694 2.1.375 1.051-.403 1.334-.12.931.932-.319.831-.144 1.511.388 1.511.533 0 .969-.394.969-.875s1.125-.875 2.5-.875 2.5.394 2.5.875.388.875.861.875c.474 0 .634-1.192.355-2.649-.304-1.591-.115-2.406.475-2.042.54.333.908 1.638.82 2.899-.114 1.612-1.089 2.599-3.288 3.327-1.719.569-3.485 1.429-3.925 1.91-.442.485-.241.555.452.156 2.275-1.309 3.305.385 1.713 2.816-1.415 2.159-1.381 2.305.523 2.198 1.122-.063 1.995-.515 1.941-1.003-.054-.489.503-1.269 1.238-1.735.998-.633 1.02-.85.085-.862-.687-.008-1.25-.69-1.25-1.515 0-1.8 1.985-2.044 2.035-.25.02.688.726.125 1.57-1.25.843-1.375 1.291-1.713.995-.75s-.052 1.75.542 1.75.017.861-1.281 1.914c-2.389 1.937-2.026 4.125.412 2.479.727-.491.473-.114-.564.838-1.836 1.687-1.817 1.763.703 2.911 1.423.648 2.588 1.834 2.588 2.635 0 .952.676 1.279 1.954.945 1.756-.459 1.824-.294.667 1.634-1.419 2.364-1.484 3.524-.304 5.383.532.838.31 1.055-.688.672-1.863-.715-2.847-3.158-1.585-3.938 1.354-.837 1.157-1.652-1.035-4.281-1.694-2.032-2.197-2.156-4.216-1.038-1.261.699-2.664 1.164-3.117 1.034-.454-.131-.497.292-.098.939.4.647.014 1.698-.859 2.336-.872.639-1.891 2.375-2.264 3.86-.559 2.226-.393 2.59.945 2.077 1.248-.479 1.474-.193.977 1.239-.587 1.692-.491 1.679 1.063-.139.939-1.1 1.443-1.469 1.118-.819-.325.649-.103 1.482.494 1.851.596.369.843 1.3.548 2.069-.31.807.084 1.399.931 1.399.808 0 1.469.477 1.469 1.059s.477.764 1.06.404c.671-.415.416-1.126-.697-1.94-1.142-.835-1.776-2.667-1.81-5.234-.033-2.463-.523-3.951-1.303-3.953-.687-.001-1.25.597-1.25 1.331 0 .733-.41 1.333-.912 1.333-1.453 0-.59-3.16 1.225-4.487.911-.666 1.325-1.575.921-2.021s.09-.514 1.098-.151c1.007.362 2.47.659 3.25.659s1.418.436 1.418.969-.788.715-1.75.405c-1.372-.441-1.449-.348-.354.431 1.564 1.113.706 4.685-.889 3.699-.554-.342-1.007.031-1.007.83s.67 1.709 1.488 2.023 1.44.25 1.382-.143c-.389-2.606.26-3.083 2.079-1.526 1.072.918 1.673 2.115 1.336 2.66-.362.585.07.73 1.051.353.915-.351 1.664-.202 1.664.33 0 .533.822.969 1.827.969 1.47 0 1.754.634 1.457 3.25l-.37 3.25 1.577-2.753c1.194-2.086 1.317-3.237.507-4.75-.587-1.098-.843-1.997-.568-1.997 1.622 0 2.474 4.099 1.388 6.685-1.472 3.506-1.822 6.435-.684 5.732.471-.291 1.375.606 2.008 1.995 1.083 2.377 2.858 2.668 2.858.47 0-.55-.45-.722-1-.382s-1.051.029-1.114-.691-.242-2.659-.399-4.309-.068-2.435.199-1.744.865 1.021 1.33.734 1.171.004 1.569.648c.436.705.292.904-.361.5-1.358-.839-2.579.979-1.658 2.469.477.771.944.696 1.544-.25.63-.994.863-.764.875.862.011 1.657.457 2.076 1.765 1.655 1.482-.476 1.52-.395.25.532-1.333.972-1.333 1.203 0 2.079 2.081 1.365 3.24 1.256 2.485-.235-.348-.687.009-.467.793.489 1.339 1.633 1.486 1.606 2.398-.439.662-1.484 1.206-1.8 1.707-.989.414.669.204 1.189-.479 1.189-.753 0-.527.759.596 2 1.026 1.134 1.31 2 .655 2-.635 0-1.155-.338-1.155-.75 0-1.677-6.066-.629-8.094 1.399-2.871 2.872-1.763 4.24 3.364 4.154 3.022-.052 3.659-.284 2.23-.813l-2-.741 2-.487c1.576-.383 1.517-.438-.274-.258-2.678.268-3.918-1.212-2.339-2.791.817-.817 1.113-.813 1.113.017 0 .622 1.013 1.275 2.25 1.45s2.306.883 2.375 1.57c.261 2.612.602 2.671 1.45.25.829-2.365.858-2.338.542.5-.184 1.65-.671 3.787-1.083 4.75-.597 1.396-.272 1.727 1.609 1.634 1.692-.083 1.864-.245.609-.573-1.568-.41-1.591-.615-.223-1.983 1.196-1.196 1.836-1.27 2.958-.339 1.167.969 1.554.697 2.099-1.474.369-1.473.198-3.131-.385-3.714-.737-.737-.964-.244-.757 1.643.19 1.731-.049 2.351-.668 1.732-1.652-1.652-.409-4.712 1.76-4.331 2.337.411 2.049.114 2.947 3.03.459 1.49.361 2.147-.262 1.761-.547-.337-1.228.281-1.513 1.374-.286 1.094-.155 2.214.292 2.49 1.145.708.003 4.494-1.367 4.53-.623.017-.434.44.421.941 1.622.949 3.277.839 6.148-.409.936-.406 2.286-.388 3 .041 1.027.618 1.049.473.105-.695-.772-.955-.866-1.992-.265-2.942.754-1.192.945-1.092 1.022.534.051 1.1.321 1.438.598.75.278-.688.965-1.25 1.528-1.25s.75.715.415 1.588c-.918 2.392 3.297 5.49 5.553 4.081 1.284-.802 1.46-1.425.669-2.378-1.255-1.511-3.234-1.759-2.327-.291.34.55.172 1-.374 1-.949 0-2.842-4.346-2.023-4.645.218-.08-.435-1.064-1.451-2.187-2.11-2.332-1.465-4.168 1.466-4.168 1.1 0 1.734.43 1.409.956s-1.252.703-2.059.393c-2.136-.819-1.797.925.575 2.955 1.123.962 1.771 2.187 1.441 2.723-.331.535.325 1.029 1.457 1.098 2.868.174 3.397.303 4.724 1.147.64.407 1.392.175 1.671-.516.315-.782.536-.831.585-.128.043.62-.596 1.687-1.421 2.372-1.662 1.38-2.082 3.478-.5 2.5 1.316-.813 1.29.81-.033 2.133-.711.711-.529 1.034.584 1.034 1.163 0 1.491-.667 1.166-2.369-.308-1.61.146-2.689 1.415-3.369 1.265-.677 1.868-.665 1.868.036 0 .569-.45 1.035-1 1.035s-1 .73-1 1.622c0 1.329.271 1.398 1.5.378.888-.737 1.5-.825 1.5-.216 0 .566.976.774 2.169.462 1.754-.459 2.041-.234 1.499 1.177-.445 1.159-.25 1.604.581 1.327.688-.229 1.251-1.054 1.251-1.833s.675-1.723 1.5-2.097c1.207-.547 1.146-.693-.309-.75-.995-.038-1.534-.515-1.198-1.059.377-.609 1.516-.396 2.967.554 1.567 1.027 2.573 1.191 3.006.489.966-1.563 4.39-1.278 4.152.345-.113.77-.856 2.183-1.651 3.141s-1.507 2.976-1.583 4.486c-.13 2.58-.028 2.649 1.718 1.155 1.309-1.121 1.513-1.801.691-2.309-.871-.539-.838-1.113.135-2.285.714-.861 1.698-1.318 2.185-1.017s.887.071.887-.511c0-1.838 1.837-1.147 2.5.941.701 2.208 2.5 2.735 2.5.732 0-.698-1.238-2.025-2.75-2.949-2.317-1.415-2.435-1.673-.75-1.637 1.1.023 2.938-.185 4.085-.463 2.671-.646 4.866.7 4.156 2.549-.317.827.045 1.435.854 1.435.773 0 1.405-.6 1.405-1.334 0-.733.436-1.333.969-1.333s.723-.787.424-1.75c-.494-1.59-.438-1.585.61.052.793 1.238.835 2.189.133 3.034-.642.774-.677 1.776-.094 2.698.726 1.148.931.966.943-.843.009-1.431.436-2.049 1.122-1.625.752.465.896-.078.448-1.691-.603-2.175-.54-2.228.753-.625.777.962 1.749 1.75 2.159 1.75.411 0 .473-.788.138-1.75-.576-1.654-.534-1.653.761.011 1.209 1.553 1.518 1.584 2.616.261.684-.825 1.713-1.21 2.286-.856.61.376.741.158.317-.528-.398-.644-1.162-.9-1.698-.568-.536.331-1.61.075-2.387-.57s-1.882-.882-2.456-.527-1.044.15-1.044-.454c0-.656 1.616-1.005 4-.864 2.2.13 4 .653 4 1.163s.648.389 1.441-.269c.81-.672 3.983-1.127 7.25-1.04 7.84.209 12.074-.06 10.559-.671-.687-.278-1.25-1.992-1.25-3.81 0-2.003.493-3.287 1.25-3.259.688.025 2.713-.025 4.5-.111 3.162-.154 3.25-.28 3.25-4.658 0-4.133.204-4.5 2.5-4.5 2.823 0 3.216 1.161 1.011 2.991-.819.68-1.199 1.704-.845 2.277.373.604.159.742-.511.327-.714-.44-1.141-.022-1.119 1.096.029 1.438.543 1.193 2.505-1.191 1.357-1.65 3.141-2.868 3.964-2.706 2.109.414 1.871-1.549-.255-2.105-1.667-.435-1.667-.463 0-.573.963-.064 1.75-.593 1.75-1.175s.563-.741 1.25-.353c1 .564 1 .436 0-.641-1.789-1.927-1.691-4.558.113-3.06 1.094.907 1.312.659 1.102-1.258-.219-1.997.09-2.298 1.886-1.835 1.907.491 1.995.365.777-1.121-1.073-1.308-1.094-1.673-.095-1.673.859 0 .684-.655-.533-2-1.123-1.241-1.349-2-.596-2 .668 0 .95-.427.627-.95s.251-1.398 1.274-1.946c1.404-.751 1.862-.651 1.862.406 0 .771-.328 1.199-.729.952-.858-.53-2.226 2.584-1.468 3.341.285.285 1.386-.484 2.448-1.708 1.062-1.225 2.19-2.197 2.506-2.161 1.774.203 1.888-.104.368-.991-.95-.554-1.456-1.655-1.139-2.481.358-.932.063-1.355-.792-1.137-.748.191-1.023.158-.611-.072 1.244-.696.842-2.213-.5-1.886-.687.168-.912.116-.5-.114.412-.231.757-1.17.765-2.086.013-1.337.189-1.394.889-.289.484.764 1.412 1.045 2.084.629.913-.564.958-.274.182 1.176-.637 1.19-.681 2.477-.116 3.371.77 1.216.918 1.184.931-.197.008-.904.69-1.902 1.515-2.219.914-.35 1.5-.001 1.5.893 0 1.095.53.939 2.083-.614 1.146-1.146 1.76-2.384 1.363-2.75-.396-.367-.921-.104-1.166.583-.737 2.062-2.555 1.408-1.998-.719.436-1.669.078-1.917-2.358-1.634-2.316.27-2.71.042-2.029-1.173.464-.83.641-2.282.394-3.228-.264-1.009.263-1.994 1.274-2.382 2.248-.862 3.307.22 1.408 1.44-1.291.83-1.288 1.066.029 1.931 1.274.836 1.228.987-.309 1-.995.008-1.557.423-1.249.921.957 1.549 4.735-.002 4.092-1.679-.465-1.212-.297-1.275.854-.32.909.754 1.657.829 2.044.203.336-.543-.183-1.431-1.153-1.974-.969-.542-1.444-1.304-1.056-1.692.389-.389.228-1.602-.358-2.696-.768-1.434-.758-1.8.035-1.31.605.374 1.1.241 1.1-.296s-.499-1.142-1.11-1.345c-.664-.222-.386-.958.692-1.834.991-.804 1.477-.922 1.08-.26s.066 2.125 1.03 3.25c2.095 2.447 4.155 2.787 2.18.36-1.201-1.478-1.154-1.606.378-1.032.995.373 1.75.188 1.75-.429 0-.6-.912-.847-2.041-.552-1.674.438-1.928.177-1.41-1.453.467-1.474.09-2.129-1.459-2.534-2.217-.58-2.717-1.808-1.134-2.786 1.379-.852.105-3.527-1.68-3.527-1.042 0-1.339.651-.959 2.105.535 2.046.5 2.053-1.233.25-1.37-1.425-1.471-1.93-.434-2.178.743-.178 1.35-.913 1.35-1.634 0-1.758 4.228-2.792 5.173-1.264.409.662.312 1.636-.215 2.163-1.514 1.514-1.118 2.556.706 1.857 1.119-.43 1.427-.256.941.531-.398.644-.246 1.17.336 1.17 1.278 0 1.27.223.133-3.743-.589-2.052-.571-3.45.048-3.833.608-.375.527-1.142-.215-2.036-.966-1.164-.881-1.315.452-.804.902.347 1.641.18 1.641-.37s-.645-1.248-1.434-1.55c-.951-.365-1.302-1.598-1.042-3.655.256-2.023-.093-3.29-1.002-3.639-.768-.295-1.151-1.173-.852-1.953.299-.779.046-1.417-.563-1.417s-1.107.567-1.107 1.259c0 .693-.953 1.855-2.118 2.583-1.672 1.044-2.356 1.064-3.25.093-.854-.926-.823-1.054.126-.518.691.391 1.961.007 2.821-.853s1.082-1.564.492-1.564c-.589 0-1.071-.45-1.071-1s.338-.947.75-.882c4.157.657 5.758-1.504 2-2.699-1.843-.585-1.956-.824-.625-1.317 1.222-.452 1.416-1.161.783-2.852-.464-1.237-1.363-2.25-1.998-2.25-.833 0-.808.418.09 1.5.718.865.815 1.5.229 1.5-.558 0-1.293-.726-1.634-1.613-.464-1.209-.949-1.338-1.938-.517-1.021.847-1.287.651-1.176-.867.08-1.079.526-2.309.992-2.733s.553-.255.193.375.013 1.401.828 1.714 1.434.248 1.376-.145c-.297-1.988.278-2.551 1.24-1.214.904 1.257.985 1.211.501-.288-.341-1.057.003-2.01.843-2.333.781-.299 1.167-1.204.857-2.01-.309-.806.161-2.006 1.045-2.667 1.089-.814 1.315-1.665.702-2.638-.699-1.108-1.225-1.17-2.306-.273-1.066.885-1.689.872-2.617-.056-.958-.958-1.444-.899-2.271.273-.871 1.234-.952 1.181-.47-.31.345-1.065.175-1.55-.413-1.186-.548.338-1.7-.088-2.56-.948-1.398-1.398-1.4-1.564-.024-1.564.956 0 1.323-.567.967-1.494-.316-.822-.976-1.246-1.469-.941-.492.304-.895.059-.895-.544 0-.692 1.467-.92 3.977-.617 3.706.447 6.072-.688 4.569-2.192-.36-.36-1.073.008-1.585.817-1.019 1.611-1.138 1.262-1.457-4.279-.243-4.213.19-4.752 1.333-1.662.694 1.877.905 1.928 2.09.5 1.105-1.332 1.074-1.588-.196-1.588-.833 0-1.793-1.109-2.133-2.465-.448-1.786-1.077-2.288-2.285-1.825-1.482.569-1.454.719.26 1.358 1.665.62 1.71.807.325 1.375-1.011.415-1.444 1.482-1.174 2.893.327 1.712-.042 2.235-1.575 2.235-1.101 0-1.736-.43-1.412-.955.327-.529-.098-.692-.951-.364-.848.325-2.113.064-2.811-.58-.997-.921-1.137-.797-.654.578.867 2.463.187 2.174-1.715-.729-1.6-2.441-1.588-2.465.798-1.557 1.824.693 2.894.502 4.329-.772 1.89-1.678 3.967-5.743 2.458-4.81-.433.267-1.411.1-2.174-.372-1.148-.709-1.162-1.13-.08-2.434.719-.867.915-1.633.435-1.704-4.536-.663-5.447-.51-4.934.827.412 1.075.021 1.264-1.57.759-1.424-.452-1.894-.31-1.434.435.376.609.256 1.107-.268 1.107s-1.222-.704-1.552-1.563c-.33-.86-1.075-1.27-1.655-.911-.716.442-.638 1.187.242 2.313 1.169 1.495 1.12 1.52-.497.251-.987-.776-1.578-1.977-1.312-2.669.266-.693-.413-2.292-1.509-3.556-1.163-1.341-1.786-3.143-1.498-4.331.272-1.119-.094-3.114-.811-4.435-1.242-2.284-1.357-2.308-2.365-.508-1.048 1.873-2.667 1.329-2.754-.924-.025-.642-.545-1.069-1.155-.949-.609.12-1.71-.507-2.446-1.394-1.187-1.431-1.062-1.525 1.107-.836 2.361.749 2.383.713.633-1.037s-1.873-1.732-3.566.512c-.965 1.279-2.229 2.031-2.81 1.672s-1.768.058-2.637.927C166.14 52.003 166 51.97 166 50.194c0-2.311-2.474-4.637-3.956-3.721-.574.355-1.044.168-1.044-.414s.338-1.063.75-1.067 1.27-1.129 1.906-2.5c.938-2.022.891-2.492-.25-2.492-.773 0-1.406.675-1.406 1.5 0 2.369-3.542 5.404-5.132 4.397-1.098-.695-1.107-.869-.047-.882 1.535-.017 3.559-1.991 3.949-3.85.192-.911-.204-1.021-1.355-.377-1.164.651-2.252.313-3.829-1.189-1.212-1.155-3.077-2.678-4.145-3.386s-1.375-1.017-.683-.687c.994.476 1.013.065.089-1.962-1.616-3.546-2.619-3.206-2.303.781.146 1.84-.029 3.763-.389 4.273-1.201 1.703-6.155 4.443-6.155 3.405 0-.563-1.125-1.023-2.5-1.023s-2.5.45-2.5 1-.505 1-1.122 1c-.762 0-.712-.496.157-1.542 1.041-1.255 1.037-1.768-.024-2.75-1.035-.959-1.139-.918-.503.197.572 1.003.428 1.174-.505.597-1.027-.635-.934-1.079.436-2.081 1.354-.99 1.506-1.681.682-3.098-.628-1.079-1.073-1.289-1.091-.514-.016.72-.48 1.031-1.03.691-1.603-.991-1.154-2.499.75-2.515 1.452-.013 1.502-.172.298-.934-.799-.506-1.764-.726-2.145-.491-.728.45-2.335-2.52-2.062-3.81.088-.413-.529-.75-1.371-.75-1.261 0-1.18.483.462 2.75m7.651-1.884c-.431.697-.513 1.537-.183 1.867.895.895 1.871-.421 1.387-1.871-.338-1.016-.574-1.016-1.204.004M101 28.059c0 .582.45.781 1 .441s1-.816 1-1.059-.45-.441-1-.441-1 .477-1 1.059m48.507-.07c-.35.566.051.734.941.393 1.732-.665 2.049-1.382.611-1.382-.518 0-1.216.445-1.552.989m8.937 1.455c.159 1.442.548 2.881.866 3.199s.452-.598.299-2.034c-.154-1.437-.543-2.876-.866-3.199s-.457.593-.299 2.034M38.5 29c-.34.55-.141 1 .441 1S40 29.55 40 29s-.198-1-.441-1-.719.45-1.059 1m104.947-.085c.311.503.056 1.084-.567 1.292s-1.189 1.446-1.257 2.752c-.067 1.307-.748 2.583-1.512 2.838-.838.279-1.114.018-.696-.659.381-.617.283-1.855-.218-2.751-.652-1.164-.911-.307-.911 3.006v4.634l3.77-.263c3.185-.223 3.59-.497 2.607-1.764-.64-.825-1.613-1.831-2.163-2.235-.602-.442-.454-.74.372-.75 1.107-.012 1.132-.306.128-1.515-.964-1.162-.971-1.5-.029-1.5.669 0 1.445.875 1.725 1.944.4 1.533.782 1.691 1.801.75 1.41-1.302.942-3.083-.566-2.151-.912.563-1.329-.803-1.006-3.293.09-.687-.334-1.25-.94-1.25-.607 0-.849.412-.538.915m34.063.101c.346.559 1.047.758 1.559.441 1.387-.857 1.129-1.457-.628-1.457-.857 0-1.276.457-.931 1.016M91 29.941c0 .518.45 1.219 1 1.559s1-.084 1-.941S92.55 29 92 29s-1 .423-1 .941m3.98.583c-.696.838-1.071 1.718-.835 1.955.237.236.98-.449 1.651-1.524 1.452-2.325.968-2.58-.816-.431m8.52.884c-1.1 1.151-2.003 2.317-2.007 2.592-.023 1.521-3.496 5.116-4.402 4.556-.66-.407-.837-.057-.463.918.458 1.193.932 1.306 1.945.465.737-.611 1.839-.802 2.45-.425.628.389 1.012.1.884-.664-.492-2.919 1.864-6.395 4.482-6.611 1.436-.119 2.611.228 2.611.772s.787.975 1.75.957c1.563-.028 1.536-.196-.25-1.573-3.888-2.997-4.937-3.145-7-.987m23.167-1.741c-.903.903-.846 4.105.083 4.676.412.253.798-.845.856-2.441.115-3.13.068-3.243-.939-2.235M196 30c0 .55.45 1 1 1s1-.45 1-1-.45-1-1-1-1 .45-1 1m-136.493.989c-.35.566.051.734.941.393 1.732-.665 2.049-1.382.611-1.382-.518 0-1.216.445-1.552.989M64 32c0 .55.477 1 1.059 1s.781-.45.441-1-.816-1-1.059-1-.441.45-.441 1m91 0c-.901.582-1.025.975-.309.985.655.008 1.469-.435 1.809-.985.767-1.242.421-1.242-1.5 0m16.352-.24c.363.588.095 1.297-.596 1.576-.899.362-.917.529-.065.585 1.721.114 2.548-1.656 1.171-2.506-.698-.432-.904-.292-.51.345m3.121.196c.325.526 1.252.703 2.059.393 2.067-.793 1.824-1.349-.591-1.349-1.132 0-1.793.43-1.468.956m42.606 1.627c.048 1.165.285 1.402.604.605.289-.722.253-1.585-.079-1.917s-.568.258-.525 1.312M104 34.213c0 1.043 1.159.972 2.987-.184 1.169-.739 1.009-.904-.75-.772-1.23.093-2.237.523-2.237.956m57.835-.427c.735.516 1.297 1.225 1.25 1.576-.405 3.029-.016 3.969 1.157 2.796.988-.988.971-1.408-.086-2.061-.73-.452-1.255-1.209-1.166-1.684s-.436-1.021-1.165-1.214c-1.085-.288-1.083-.181.01.587m-92.804.714c0 .55.436 1.675.969 2.5s.969 1.05.969.5-.436-1.675-.969-2.5-.969-1.05-.969-.5M78 35c0 .55.477 1 1.059 1s.781-.45.441-1-.816-1-1.059-1-.441.45-.441 1m76-.429c0 .315.675 1.247 1.5 2.072 1.628 1.628 1.832 1.386.893-1.061-.57-1.487-2.393-2.256-2.393-1.011m-144 1.37c0 .518.445 1.216.989 1.552.566.35.734-.051.393-.941C10.717 34.82 10 34.503 10 35.941M110 37c-.901.582-1.025.975-.309.985.655.008 1.469-.435 1.809-.985.767-1.242.421-1.242-1.5 0m49.211.399c.709.77 1.447 1.25 1.639 1.067.593-.564-.91-2.466-1.948-2.466-.54 0-.401.63.309 1.399m34.153.095c-.316.822-1.046 1.203-1.623.846-.613-.379-.753-.169-.336.505.916 1.484.853 1.502 2.863-.845.942-1.1 1.253-2 .691-2s-1.28.672-1.595 1.494M224 37c0 .55.477 1 1.059 1s.781-.45.441-1-.816-1-1.059-1-.441.45-.441 1M61.5 38c-.34.55.084 1 .941 1S64 38.55 64 38s-.423-1-.941-1-1.219.45-1.559 1m14.378-.096c.758.48 1.064 1.38.681 2.001-.383.62-1.041.915-1.461.655-.421-.259-.765.14-.765.889 0 .748.6 1.13 1.334.849.733-.282 1.34-1.026 1.348-1.655s.452-.468.985.357c1.299 2.009 1.271.374-.035-2.066-.57-1.064-1.582-1.927-2.25-1.919-.833.011-.781.29.163.889m13.665.027a1.086 1.086 0 0 0 .336 1.494c.501.31 1.169-.109 1.485-.931.622-1.62-.881-2.085-1.821-.563M140 37.393c0 .216.675.652 1.5.969s1.5.139 1.5-.393c0-.533-.675-.969-1.5-.969s-1.5.177-1.5.393M173 38c-1.282.828-1.246.972.25.985.963.008 1.75-.435 1.75-.985 0-1.22-.113-1.22-2 0m-128.968.559c.017.517.692 1.815 1.5 2.882.807 1.068 1.454 1.518 1.436 1-.017-.517-.692-1.815-1.5-2.882-.807-1.068-1.454-1.518-1.436-1m37.968.41c0 .532.675.709 1.5.393.825-.317 1.5-.753 1.5-.969S84.325 38 83.5 38s-1.5.436-1.5.969m67.756-.305c.691.279.955.995.586 1.591-.433.701-.051.847 1.078.414 1.17-.449 1.596-.257 1.289.58-.253.688-.965 1.139-1.584 1.001S150 42.45 150 43c0 1.637 2.735 1.134 3.41-.627.765-1.994-1.075-4.401-3.282-4.294-1.046.051-1.179.26-.372.585m44.798 1.056c-.363.945-.352 1.411.025 1.035.376-.377 1.637-.226 2.802.335 1.925.927 1.96.892.385-.384-.954-.772-1.442-1.697-1.084-2.055s.174-.651-.408-.651c-.583 0-1.357.774-1.72 1.72M198.5 39c.34.55.816 1 1.059 1s.441-.45.441-1-.477-1-1.059-1-.781.45-.441 1m-67.024 1.619c.891.891 1.868 1.37 2.172 1.067.89-.891-.633-2.686-2.278-2.686-1.306 0-1.292.221.106 1.619m34.791.489c-.14 1.861 1.164 2.611 1.986 1.142.23-.413.288-.202.127.468-.437 1.821 1.625 2.691 2.957 1.248.897-.971.861-1.088-.154-.512-.901.511-1.217.205-1-.97.185-1.003-.533-2.039-1.728-2.492-1.596-.605-2.077-.36-2.188 1.116m35.243-1.092c.346.559 1.047.758 1.559.441 1.387-.857 1.129-1.457-.628-1.457-.857 0-1.276.457-.931 1.016M88 41.031c0 .533.675.969 1.5.969s1.5-.177 1.5-.393-.675-.652-1.5-.969-1.5-.139-1.5.393m94.273.992c-.08 1.066.199 2.151.62 2.411s.702-.397.624-1.46c-.196-2.658-1.065-3.323-1.244-.951M186 40.941c0 .518.45 1.219 1 1.559s1-.084 1-.941S187.55 40 187 40s-1 .423-1 .941m33-.048c0 .491.739 1.176 1.641 1.523 1.373.527 1.435.38.378-.893-1.44-1.735-2.019-1.916-2.019-.63M115.5 42c-.34.55-.141 1 .441 1S117 42.55 117 42s-.198-1-.441-1-.719.45-1.059 1m60.163-.242c-1.103 1.755 1.547 4.348 2.865 2.803.535-.627 1.091-1.797 1.236-2.6.186-1.022-.164-.914-1.162.361-1.381 1.762-1.439 1.762-1.788 0-.263-1.329-.575-1.482-1.151-.564M32.5 43c-.34.55-.168 1 .382 1s1.278-.45 1.618-1 .168-1-.382-1-1.278.45-1.618 1m27.5.059c0 .582.45.781 1 .441s1-.816 1-1.059S61.55 42 61 42s-1 .477-1 1.059M80.5 43c-.34.55-.141 1 .441 1S82 43.55 82 43s-.198-1-.441-1-.719.45-1.059 1m5 1c.34.55.816 1 1.059 1s.441-.45.441-1-.477-1-1.059-1-.781.45-.441 1m3.064.707c-.542 1.425-.428 1.54.56.56.684-.679.991-1.486.683-1.793-.308-.308-.867.247-1.243 1.233m39.943-.718c-.35.566.051.734.941.393 1.732-.665 2.049-1.382.611-1.382-.518 0-1.216.445-1.552.989M72 45.441c0 .857.45 1.559 1 1.559s1-.423 1-.941-.45-1.219-1-1.559-1 .084-1 .941m92-.899c0 .298.881 1.487 1.957 2.643 1.862 1.998 2.083 2.019 4.5.435 1.399-.916 2.543-1.971 2.543-2.343s-.473-.204-1.051.374c-1.194 1.194-5.949.58-5.949-.768 0-.485-.45-.883-1-.883s-1 .244-1 .542m26.564 1.165c-.542 1.425-.428 1.54.56.56.684-.679.991-1.486.683-1.793-.308-.308-.867.247-1.243 1.233M.232 48c0 1.925.206 2.712.457 1.75.252-.962.252-2.538 0-3.5-.251-.962-.457-.175-.457 1.75m179.56-1.324c.992.398 1.021.844.127 1.921-.917 1.106-.82 1.403.459 1.403.955 0 1.622-.822 1.622-2 0-1.268-.64-1.971-1.75-1.921-1.113.05-1.28.268-.458.597M92.5 48.055c-1.877.755-1.858.809.309.875 1.27.038 2.034.515 1.698 1.059-.357.577.069.727 1.025.36.9-.345 1.26-.907.802-1.25-.459-.342-1.059-.898-1.334-1.235s-1.4-.251-2.5.191m18-.055c-.34.55-.141 1 .441 1S112 48.55 112 48s-.198-1-.441-1-.719.45-1.059 1m74.464 1.164c-1.145 2.233-1.118 2.26.61.61.994-.95 1.533-2.001 1.197-2.336s-1.148.442-1.807 1.726m5.595-.632c-1.068.807-1.518 1.454-1 1.436.517-.017 1.815-.692 2.882-1.5 1.068-.807 1.518-1.454 1-1.436-.517.017-1.815.692-2.882 1.5M223 47.941c0 .518.445 1.216.989 1.552.566.35.734-.051.393-.941-.665-1.732-1.382-2.049-1.382-.611m-60.566 1.809c.221 1.507 1.566 2.151 1.566.75V49c0-.55-.41-1-.912-1-.501 0-.795.788-.654 1.75M239 49c0 .55.477 1 1.059 1s.781-.45.441-1-.816-1-1.059-1-.441.45-.441 1M79.646 51.244c-.637 2.436.724 4.585 1.8 2.843.37-.598.14-1.087-.509-1.087-.904 0-.907-.332-.011-1.411.691-.833.788-1.648.236-1.989-.514-.318-1.196.422-1.516 1.644M142 50.059c0 .582.45.781 1 .441s1-.816 1-1.059-.45-.441-1-.441-1 .477-1 1.059m30.195 3.502c.112 2.988.305 3.289 1.135 1.77.549-1.007 1.436-2.12 1.97-2.474.533-.353.023-1.149-1.135-1.769-1.968-1.053-2.097-.891-1.97 2.473m-96.18-.811C76.007 53.987 76.45 55 77 55c1.253 0 1.253-1.061 0-3-.784-1.213-.972-1.069-.985.75M0 64c0 6.783.28 12.054.622 11.712.69-.691.521-22.902-.18-23.603C.199 51.866 0 57.217 0 64m64-10.5c-.937 1.129-.963 1.84-.105 2.873.627.756.876 2.06.554 2.899s-.156 1.791.369 2.116c.525.324 1.189-.305 1.474-1.398.286-1.094.173-2.203-.252-2.465-.424-.263-.555-1.613-.289-3.001.55-2.881.039-3.18-1.751-1.024m3.469-.45c-.918 1.486-.188 2.012 1.417 1.021.859-.532.962-1.047.29-1.462-.571-.353-1.339-.154-1.707.441M90 53c0 .55.477 1 1.059 1s.781-.45.441-1-.816-1-1.059-1-.441.45-.441 1m69.079.583c.048 1.165.285 1.402.604.605.289-.722.253-1.585-.079-1.917s-.568.258-.525 1.312M191.5 53c.34.55 1.041 1 1.559 1s.941-.45.941-1-.702-1-1.559-1-1.281.45-.941 1m11.889 2.304c-.103 2.975-.04 3.038.917.913.624-1.384.668-2.642.111-3.195-.555-.553-.961.347-1.028 2.282m20.69-1.721c.048 1.165.285 1.402.604.605.289-.722.253-1.585-.079-1.917s-.568.258-.525 1.312m4.921-.642c0 .518.445 1.216.989 1.552.566.35.734-.051.393-.941-.665-1.732-1.382-2.049-1.382-.611m-213 1c0 .518.445 1.216.989 1.552.566.35.734-.051.393-.941C16.717 52.82 16 52.503 16 53.941m41 0c0 .518.45 1.219 1 1.559s1-.084 1-.941S58.55 53 58 53s-1 .423-1 .941m27.813-.258c.721.289 1.584.253 1.916-.079s-.258-.568-1.312-.525c-1.165.048-1.402.285-.604.604m9.937-.021c.688.278 1.813.278 2.5 0 .688-.277.125-.504-1.25-.504s-1.937.227-1.25.504m8 0c.688.278 1.813.278 2.5 0 .688-.277.125-.504-1.25-.504s-1.937.227-1.25.504m26.519.031c.973.254 2.323.237 3-.037s-.119-.481-1.769-.461-2.204.244-1.231.498m52.731.248c0 .518.445 1.216.989 1.552.566.35.734-.051.393-.941-.665-1.732-1.382-2.049-1.382-.611m4.349.527c.31.807.138 1.731-.382 2.052-1.476.913 1.955 5.447 3.634 4.803 1.785-.685-.027-3.323-2.282-3.323-.791 0-1.14-.481-.777-1.068s1.3-.823 2.082-.523c1.135.436 1.208.146.364-1.432-1.218-2.276-3.485-2.713-2.639-.509M198 54c0 .55.45 1 1 1s1-.45 1-1-.45-1-1-1-1 .45-1 1m-3.436 1.707c-.542 1.425-.428 1.54.56.56.684-.679.991-1.486.683-1.793-.308-.308-.867.247-1.243 1.233m12.941-.715c-.337.546-.181 1.765.348 2.71.789 1.41.933 1.232.804-.991-.174-3.008-.269-3.149-1.152-1.719m-29.469 1.464c-1.241 1.496-.65 3.544 1.023 3.544.518 0 .941-.477.941-1.059s-.508-.745-1.13-.361c-.688.426-.941.156-.646-.691.266-.764 1.269-1.246 2.23-1.072 1.036.188 1.478-.117 1.087-.75q-1.357-2.2-3.505.389M60.5 58c.34.55.816 1 1.059 1s.441-.45.441-1-.477-1-1.059-1-.781.45-.441 1m9.5 2c0 1.1.402 2 .893 2 1.124 0 2.173-2.601 1.371-3.402C71.061 57.394 70 58.051 70 60m111.691-1.309c-.307.497-.195 1.494.25 2.214.445.719 1.061.901 1.368.404s.195-1.494-.25-2.214c-.445-.719-1.061-.901-1.368-.404m16.974.559c.43.688.794 1.886.809 2.664.014.778.66 1.626 1.435 1.886.991.332 1.214-.038.75-1.245-.362-.945-.659-2.357-.659-3.137S200.298 58 199.441 58c-.998 0-1.277.45-.776 1.25m-23.027 1.25c.317.825 1.033 1.5 1.591 1.5.586 0 .489-.635-.229-1.5-.685-.825-1.401-1.5-1.591-1.5s-.087.675.229 1.5m-116.35 1.333c-.076 1.009.478 1.834 1.233 1.834 1.02 0 1.12-.47.39-1.834-.54-1.008-1.095-1.833-1.233-1.833s-.315.825-.39 1.833m131.854.312c-1.187 1.899-1.148 2.071.341 1.5.924-.355 1.869-.645 2.099-.645s.418-.675.418-1.5c0-2.145-1.299-1.851-2.858.645m5.401-1.214c-.317.512-.193 1.167.274 1.456s.85-.13.85-.931c0-1.686-.316-1.833-1.124-.525M179.158 63c0 1.375.227 1.938.504 1.25.278-.687.278-1.812 0-2.5-.277-.687-.504-.125-.504 1.25m48.342 0c.34.55.816 1 1.059 1s.441-.45.441-1-.477-1-1.059-1-.781.45-.441 1m19.5.059c0 .582.45.781 1 .441s1-.816 1-1.059-.45-.441-1-.441-1 .477-1 1.059m-225.917.224c.23.156 1.317.943 2.417 1.75 1.85 1.357 1.897 1.336.628-.283-.755-.962-1.843-1.75-2.417-1.75s-.857.127-.628.283m161.673.404c.691.266.966.954.611 1.528-.359.58-.056.848.681.602 2.273-.757 2.087-2.384-.286-2.501-1.244-.062-1.697.105-1.006.371m32.845.149c-.254.412.406.814 1.468.894 2.297.173 2.499-.298.463-1.079-.807-.31-1.676-.227-1.931.185m22.906 1.153c-.35.566.051.734.941.393 1.732-.665 2.049-1.382.611-1.382-.518 0-1.216.445-1.552.989M38 65.819c0 1.208 1.897 2.617 2.591 1.924.251-.252-.229-1.027-1.067-1.723-.95-.789-1.524-.865-1.524-.201m15.459 1.248c-.363.586-.445 1.281-.183 1.543s.743-.218 1.069-1.067c.676-1.762.1-2.072-.886-.476m10.34.094c.969 1.24 1.004 1.843.138 2.378-.638.395-1.553.097-2.033-.661-.647-1.021-.91-1.054-1.014-.128-.477 4.25-.343 5.829.548 6.446 1.825 1.264-.224 1.989-2.373.839-1.158-.62-2.595-.825-3.192-.456-1.591.983.673 2.143 3.943 2.021 2.373-.088 2.667-.476 2.537-3.35-.094-2.064.323-3.25 1.143-3.25 2.078 0 2.533-2.738.695-4.177-1.5-1.173-1.544-1.135-.392.338M233 69.059c0 .582.45.781 1 .441s1-.816 1-1.059-.45-.441-1-.441-1 .477-1 1.059M70.5 70c.34.55.816 1 1.059 1s.441-.45.441-1-.477-1-1.059-1-.781.45-.441 1m123.5-.082c0 2.949 1.148 3.824 3.552 2.71 2.608-1.209 3.452-3.227.948-2.266-.825.316-1.5.139-1.5-.393 0-.533-.675-.969-1.5-.969s-1.5.413-1.5.918M47 71.059c0 .582.45.781 1 .441s1-.816 1-1.059S48.55 70 48 70s-1 .477-1 1.059m140.029-.098c-.809.512-1.211 1.191-.893 1.509s1.148-.108 1.844-.946c1.443-1.738 1.166-1.902-.951-.563M17 73c0 .55.477 1 1.059 1s.781-.45.441-1-.816-1-1.059-1-.441.45-.441 1m172.543-.069c-.317.512-.049 1.256.595 1.654.698.432.904.292.51-.345-.363-.588-.095-1.297.596-1.576.899-.362.917-.529.065-.585-.655-.043-1.45.34-1.766.852m22.308 2.32c.757.757 1.486.812 2.137.161s.259-1.043-1.149-1.149c-1.61-.121-1.854.122-.988.988M33 76.059c0 .582.45.781 1 .441s1-.816 1-1.059S34.55 75 34 75s-1 .477-1 1.059m11.244-.395c-1.383.558-.717 2.336.874 2.336.55 0 .746-.412.435-.915s0-1.142.691-1.421c.691-.278.806-.506.256-.506s-1.565.228-2.256.506m-7.901 3.097c-.136 2.287-.016 2.406.853.853.559-.998.629-2.188.158-2.659-.472-.471-.924.338-1.011 1.806m154.359-1.428c-.281.734.078 1.334.798 1.334s1.079-.6.798-1.334c-.282-.733-.641-1.333-.798-1.333s-.516.6-.798 1.333M.208 97.083c.114 11.23.357 16.166.54 10.971.19-5.402.85-10.086 1.542-10.942.958-1.185.946-1.337-.06-.733-.995.599-1.233-1.308-1.102-8.826.093-5.275-.124-9.882-.48-10.238-.356-.357-.555 8.539-.44 19.768m225.405-18.9c.289.467.944.591 1.456.274 1.308-.808 1.161-1.124-.525-1.124-.801 0-1.22.383-.931.85M42 79c0 .615-.43.852-.956.527-1.127-.696-4.329 3.871-4.779 6.816-.298 1.953-.193 1.938 2.211-.321 2.585-2.428 3.308-3.624 1.524-2.522-.55.34-1-.057-1-.882 0-1.865 1.696-3.031 2.201-1.515.24.72.82.576 1.634-.404.852-1.027.921-1.732.214-2.169-.577-.356-1.049-.145-1.049.47m2.583 1.643c-.918 2.394-.202 2.578 1.213.312.672-1.075.815-1.955.319-1.955s-1.185.739-1.532 1.643m165.15.738c.303 1.586-.298 2.584-2.157 3.578-2.954 1.581-3.159 2.312-1.12 4.005 1.885 1.564 3.542.504 3.552-2.273.008-2.323 4.528-5.252 5.55-3.597.308.498 1.068.906 1.69.906s.163-.9-1.018-2c-2.279-2.124-3.76-2.666-2.73-1 .34.55.141 1-.441 1S212 81.598 212 81.107s-.605-1.125-1.344-1.409c-.939-.36-1.217.147-.923 1.683M216 80.167c0 .458.675.833 1.5.833s1.5-.375 1.5-.833c0-.459-.675-.834-1.5-.834s-1.5.375-1.5.834m-21 .805c0 1.356 1.777 2.198 2.425 1.149.31-.501-.109-1.169-.931-1.485-.822-.315-1.494-.164-1.494.336m7.211.423c.709.767 1.675 1.161 2.146.875s.246-.907-.5-1.38c-2.11-1.337-3.075-1.041-1.646.505m27.296.594c-.35.566.051.734.941.393 1.732-.665 2.049-1.382.611-1.382-.518 0-1.216.445-1.552.989M31.5 83c-.34.55-.141 1 .441 1S33 83.55 33 83s-.198-1-.441-1-.719.45-1.059 1M42 85.031c0 .533.675.969 1.5.969s1.5-.177 1.5-.393-.675-.652-1.5-.969-1.5-.139-1.5.393m-18 .861c0 .674-.52.905-1.155.513-.744-.46-.881-.273-.387.528.546.882 1.078.931 1.838.171.589-.589.763-1.378.387-1.754-.375-.376-.683-.132-.683.542m187.65.577c-.369.963-.217 1.382.37 1.019.548-.339 1.369.389 1.824 1.619.597 1.613 1.045 1.881 1.613.963.476-.771.005-2.053-1.197-3.254-1.772-1.772-2.049-1.809-2.61-.347m13.988.031c-.316.825-.139 1.5.393 1.5.533 0 .969-.675.969-1.5s-.177-1.5-.393-1.5-.652.675-.969 1.5m-184.905.624c.679.684 1.486.991 1.793.683.308-.308-.247-.867-1.233-1.243-1.425-.542-1.54-.428-.56.56M48 87c0 .55.477 1 1.059 1s.781-.45.441-1-.816-1-1.059-1-.441.45-.441 1m172.507-.011c-.35.566.051.734.941.393 1.732-.665 2.049-1.382.611-1.382-.518 0-1.216.445-1.552.989m18.057.718c-.542 1.425-.428 1.54.56.56.684-.679.991-1.486.683-1.793-.308-.308-.867.247-1.243 1.233m-18.426 1.909c-1.781 1.247-2.031 1.874-1.097 2.75.903.847 1.32.832 1.649-.06.241-.656 1.198-.951 2.125-.655 1.443.461 1.47.381.185-.557-1.333-.972-1.333-1.203 0-2.079.825-.541 1.038-.991.473-1-.566-.008-2.066.712-3.335 1.601M12.75 90.662c.688.278 1.813.278 2.5 0 .688-.277.125-.504-1.25-.504s-1.937.227-1.25.504M35 93.059c0 .582.45.781 1 .441s1-.816 1-1.059S36.55 92 36 92s-1 .477-1 1.059m202 0c0 .582.45.781 1 .441s1-.816 1-1.059-.45-.441-1-.441-1 .477-1 1.059M14.564 94.293c.376.986.935 1.541 1.243 1.233s.001-1.114-.683-1.793c-.988-.98-1.102-.865-.56.56M26.158 96c0 1.375.227 1.938.504 1.25.278-.687.278-1.812 0-2.5-.277-.687-.504-.125-.504 1.25M201.5 95c.34.55.816 1 1.059 1s.441-.45.441-1-.477-1-1.059-1-.781.45-.441 1m13.075-.092c.224.224-.048.957-.605 1.628-.729.879-.448 1.367 1.009 1.748 1.819.476 2.205.093 1.936-1.922-.047-.351.472-.983 1.153-1.404.749-.463.222-.705-1.331-.612-1.413.085-2.386.338-2.162.562m-8.004 1.663c-1.059.775-1.642 1.692-1.296 2.038.347.346 1.38-.121 2.296-1.038 2.156-2.155 1.49-2.82-1-1M234 97c1.958 1.266 3.282 1.266 2.5 0-.34-.55-1.379-.993-2.309-.985-1.457.014-1.484.15-.191.985M37.5 98c-.34.55-.168 1 .382 1s1.278-.45 1.618-1 .168-1-.382-1-1.278.45-1.618 1m67.25-.239L64 98.022v2.872c0 2.032.586 3.026 2 3.396 1.1.287 2 1.24 2 2.116S68.675 108 69.5 108s1.5.675 1.5 1.5c0 .833.889 1.5 2 1.5q2 0 2 2c0 1.884.667 2 11.5 2s11.5-.116 11.5-2q0-2 2-2c1.111 0 2-.667 2-1.5 0-.825.648-1.5 1.44-1.5.941 0 1.547-1.297 1.75-3.75.294-3.56.487-3.75 3.81-3.75s3.516.19 3.81 3.75c.244 2.938.731 3.75 2.25 3.75 1.067 0 1.94.675 1.94 1.5s.675 1.5 1.5 1.5 1.5.825 1.5 1.833c0 1.676 1.03 1.834 12 1.834s12-.158 12-1.834c0-1.166.727-1.833 2-1.833 1.111 0 2-.667 2-1.5 0-.825.675-1.5 1.5-1.5.833 0 1.5-.889 1.5-2 0-1.354.667-2 2.063-2 1.713 0 2.011-.533 1.75-3.142-.377-3.78 4.966-3.449-50.063-3.097m96.863.422c.289.467.944.591 1.456.274 1.308-.808 1.161-1.124-.525-1.124-.801 0-1.22.383-.931.85m15.971 1.458c-.527 1.373-.38 1.435.893.378 1.735-1.44 1.916-2.019.63-2.019-.491 0-1.176.739-1.523 1.641m8.337.109c-.048 1.056-.28 1.252-.585.494-.279-.691-.918-1.002-1.421-.691-1.463.904-1.057 2.447.644 2.447.857 0 1.313.399 1.011.886-.301.488.373 1.127 1.498 1.422 1.767.462 1.868.319.739-1.04-.719-.867-1.166-2.406-.994-3.422.172-1.015.059-1.846-.25-1.846-.31 0-.599.787-.642 1.75m5.717-.25c.317.825.753 1.5.969 1.5s.393-.675.393-1.5-.436-1.5-.969-1.5-.709.675-.393 1.5m-20.203.606c-.472.763-.321.942.41.489 1.459-.901 1.465-.06.02 2.721-.625 1.201-.779 1.85-.342 1.443.436-.408 1.397-.24 2.135.372.88.731 1.342.757 1.342.075 0-.572-.562-1.268-1.25-1.547-.987-.4-.977-.699.047-1.421 1.049-.739 1.018-1.146-.161-2.125-1.135-.942-1.623-.944-2.201-.007m43.644.477c.048 1.165.285 1.402.604.605.289-.722.253-1.585-.079-1.917s-.568.258-.525 1.312M30.5 101c-.34.55.084 1 .941 1S33 101.55 33 101s-.423-1-.941-1-1.219.45-1.559 1m6 0c-.731 1.183.248 1.183 3 0 1.928-.829 1.921-.862-.191-.93-1.205-.038-2.469.38-2.809.93m34.167-.333C69.175 102.159 70.049 105 72 105c1.111 0 2 .667 2 1.5 0 .825.675 1.5 1.5 1.5.833 0 1.5.889 1.5 2 0 1.467.667 2 2.5 2s2.5-.533 2.5-2c0-2.633 1.617-2.572 2.312.087.657 2.511 3.999 2.252 4.5-.348.231-1.2-.308-1.739-1.739-1.739-1.406 0-2.073-.643-2.073-2 0-1.1-.623-2-1.383-2-.761 0-1.619-.9-1.907-2-.287-1.1-1.282-2-2.21-2s-1.923.9-2.21 2c-.288 1.1-.868 2-1.29 2s-1.002-.9-1.29-2c-.509-1.949-2.704-2.673-4.043-1.333M120 102.5c0 1.556.567 2.5 1.5 2.5.825 0 1.5.675 1.5 1.5 0 .833.889 1.5 2 1.5q2 0 2 2t2 2 2-2c0-1.111.667-2 1.5-2s1.5.889 1.5 2c0 1.356.667 2 2.07 2 1.581 0 1.988-.531 1.726-2.25-.189-1.237-.895-2.138-1.57-2-.674.138-1.226-.65-1.226-1.75 0-1.292-.667-2-1.883-2-1.043 0-2.117-.893-2.407-2-.287-1.1-1.057-2-1.71-2s-1.423.9-1.71 2c-.288 1.1-1.146 2-1.907 2-.76 0-1.383-.9-1.383-2q0-2-2-2c-1.467 0-2 .667-2 2.5m97.628-.218c-1.638 1.199-1.618 1.293.309 1.438 1.2.091 2.063-.446 2.063-1.282 0-1.759-.164-1.769-2.372-.156M23 103c0 .55.477 1 1.059 1s.781-.45.441-1-.816-1-1.059-1-.441.45-.441 1m16.51.016c.346.559 1.047.758 1.559.441 1.387-.857 1.129-1.457-.628-1.457-.857 0-1.276.457-.931 1.016m10.49.543c0 .857.45 1.281 1 .941s1-1.041 1-1.559-.45-.941-1-.941-1 .702-1 1.559M248 103c-.901.582-1.025.975-.309.985.655.008 1.469-.435 1.809-.985.767-1.242.421-1.242-1.5 0m-217 .909c0 .465.675 1.406 1.5 2.091 1.221 1.013 1.5.963 1.5-.271 0-.833-.675-1.774-1.5-2.091-.825-.316-1.5-.194-1.5.271m15.603.924c-.283.459.12.834.897.834s1.18-.375.897-.834S47.71 104 47.5 104s-.614.375-.897.833m174.397-.44c0 .216.675.652 1.5.969s1.5.139 1.5-.393c0-.533-.675-.969-1.5-.969s-1.5.177-1.5.393m22.507.596c-.35.566.051.734.941.393 1.732-.665 2.049-1.382.611-1.382-.518 0-1.216.445-1.552.989M78 106.5c0 .825.675 1.5 1.5 1.5s1.5-.675 1.5-1.5-.675-1.5-1.5-1.5-1.5.675-1.5 1.5m50 0c0 .825.45 1.5 1 1.5s1-.675 1-1.5-.45-1.5-1-1.5-1 .675-1 1.5m87.5.5c-.34.55-.141 1 .441 1s1.059-.45 1.059-1-.198-1-.441-1-.719.45-1.059 1M29 108c0 .55.45 1 1 1s1-.45 1-1-.45-1-1-1-1 .45-1 1m18 .917c0 1.054-.562 2.179-1.25 2.5-.998.465-.997.701.006 1.168.691.322 1.005.992.698 1.489s.214.607 1.158.245c1.164-.447 1.484-.283.993.511-.398.644-.246 1.17.336 1.17 1.579 0 1.279-1.978-.398-2.622-1.018-.391-1.282-1.435-.875-3.468.32-1.601.301-2.91-.043-2.91s-.625.862-.625 1.917m191-1.524c0 .216.698.661 1.552.989.89.341 1.291.173.941-.393-.587-.951-2.493-1.406-2.493-.596m-204.663 2.171c-.369.961.247 2.157 1.599 3.104 1.209.847 1.957 2.168 1.663 2.936-.667 1.737.143 1.797 1.806.134 1.69-1.691 1.607-4.738-.131-4.738-.765 0-1.117.445-.781.989.356.575-.065.729-1.008.367-1.148-.441-1.309-.932-.552-1.689 1.519-1.519 1.32-2.667-.464-2.667-.843 0-1.802.704-2.132 1.564m180.275.967c.913 1.392 1.373 2.817 1.023 3.167-.349.349-.635.11-.635-.531 0-.642-.429-1.167-.953-1.167-.525 0-.211 1.294.696 2.875 1.066 1.857 2.466 2.875 3.954 2.875 2.801 0 2.82-.215.333-3.709-1.084-1.521-1.684-3.053-1.334-3.404.351-.35-.113-.637-1.029-.637-.917 0-1.667-.45-1.667-1s-.46-1-1.023-1-.277 1.139.635 2.531m15.024-1.025c-.315.822-.164 1.494.336 1.494 1.356 0 2.198-1.777 1.149-2.425-.501-.31-1.169.109-1.485.931M242.5 109c.34.55.816 1 1.059 1s.441-.45.441-1-.477-1-1.059-1-.781.45-.441 1M34 110.059c0 .582.45.781 1 .441s1-.816 1-1.059-.45-.441-1-.441-1 .477-1 1.059M28.5 113c.34.55 1.068 1 1.618 1s.722-.45.382-1-1.068-1-1.618-1-.722.45-.382 1m-7.167 1.456c0 .801.375 1.224.834.941s.833-.938.833-1.456-.375-.941-.833-.941c-.459 0-.834.655-.834 1.456M52 113.941c0 .518.445 1.216.989 1.552.566.35.734-.051.393-.941-.665-1.732-1.382-2.049-1.382-.611m168.192.134c.197.591.648.929 1.002.75.355-.179 1.905.8 3.445 2.175s2.213 1.732 1.495.794c-.719-.939-1.019-2.171-.668-2.739.371-.6.031-.799-.813-.475-.798.306-1.748.076-2.111-.512-.861-1.393-2.815-1.388-2.35.007M215 115c0 .55.45 1 1 1s1-.45 1-1-.45-1-1-1-1 .45-1 1m23.667.667c-.367.366-.667 1.131-.667 1.7 0 .626.466.567 1.183-.15.651-.651.951-1.416.667-1.7s-.817-.217-1.183.15m-206.445 2.917c-.121 1.471.553 2.76 1.792 3.423 2.453 1.313 2.616.196.236-1.628-1.409-1.08-1.49-1.512-.416-2.221 1.105-.729 1.098-.97-.041-1.407-.902-.346-1.442.285-1.571 1.833m176.66-.393c-.066.72-.052 1.687.03 2.149s.303 2.168.492 3.79c.398 3.419 1.119 4.45 2.055 2.937.362-.587.182-1.067-.4-1.067a1.063 1.063 0 0 1-1.059-1.059c0-.582.45-.781 1-.441 1.597.987 1.155-1.488-.574-3.217-1.157-1.157-1.261-1.767-.393-2.303.849-.525.87-.922.074-1.414-.609-.376-1.16-.095-1.225.625m25.118-.132c0 .582.45.781 1 .441s1-.816 1-1.059-.45-.441-1-.441-1 .477-1 1.059m-5.187.624c.721.289 1.584.253 1.916-.079s-.258-.568-1.312-.525c-1.165.048-1.402.285-.604.604m17.187-.228c0 .772 2.976 1.392 3.399.709.254-.412-.406-.814-1.468-.894s-1.931.003-1.931.185M.355 127.5c-.003 4.95.166 7.101.376 4.78.209-2.321.212-6.371.005-9-.206-2.629-.378-.73-.381 4.22m219.724-6.188c.043 1.203.306 1.626.583.938.278-.687 1.142-1.25 1.921-1.25 2.196 0 1.67-1.555-.583-1.725-1.457-.11-1.979.443-1.921 2.037M237 120c0 .55.477 1 1.059 1s.781-.45.441-1-.816-1-1.059-1-.441.45-.441 1m-219.457.931c-.317.512-.118 1.213.441 1.559S19 122.615 19 122s.52-.797 1.155-.405c.715.443.883.275.44-.44-.86-1.393-2.266-1.496-3.052-.224m11.717.554c-.782.888-.874 1.635-.25 2.021.544.337.99.109.99-.506s.445-.843.989-.507c.566.35.734-.051.393-.941-.705-1.836-.569-1.832-2.122-.067m186.721.038c-1.068 1.287-.985 1.416.542.83 1.242-.477 1.58-.328 1.082.477-.398.644-.274 1.17.274 1.17s.929-.9.846-2c-.18-2.392-1.032-2.54-2.744-.477M6.5 122c-.34.55-.141 1 .441 1S8 122.55 8 122s-.198-1-.441-1-.719.45-1.059 1m198.5.393c0 .216.698.661 1.552.989.89.341 1.291.173.941-.393-.587-.951-2.493-1.406-2.493-.596m46 .607c-.901.582-1.025.975-.309.985.655.008 1.469-.435 1.809-.985.767-1.242.421-1.242-1.5 0m-217.571 2c0 1.295.338 1.633.985.986.648-.648.648-1.324 0-1.972-.647-.647-.985-.309-.985.986m3.238-.333c-1.077 1.077-.763 4.511.349 3.823.559-.346.727-1.097.372-1.671-.354-.573-.024-1.435.734-1.915.758-.481.891-.88.295-.889-.596-.008-1.384.285-1.75.652m7.939 1.485c1.042 1.459 2.094 2.459 2.338 2.222.245-.236-.607-1.43-1.894-2.652l-2.338-2.222zM220.5 125c.34.55.816 1 1.059 1s.441-.45.441-1-.477-1-1.059-1-.781.45-.441 1m25.5.059c0 .582.45.781 1 .441s1-.816 1-1.059-.45-.441-1-.441-1 .477-1 1.059M12 127c-.825.533-1.05.969-.5.969s1.675-.436 2.5-.969 1.05-.969.5-.969-1.675.436-2.5.969m17.667-.333c-.367.366-.66 1.379-.652 2.25.013 1.288.178 1.326.889.205.537-.848 1.396-1.063 2.234-.558 1.136.684 1.134.539-.01-.872-1.563-1.926-1.561-1.925-2.461-1.025M206.5 127c-.34.55-.141 1 .441 1s1.059-.45 1.059-1-.198-1-.441-1-.719.45-1.059 1m-188 1c.34.55.816 1 1.059 1s.441-.45.441-1-.477-1-1.059-1-.781.45-.441 1m205.031-.05c-.368.595-1.088.824-1.6.507s-.931-.135-.931.402c0 .538-.298 1.802-.662 2.809q-.662 1.83 2.055-1.029c1.495-1.574 2.513-3.066 2.263-3.317-.251-.25-.757.032-1.125.628M23.5 129c.34.55.816 1 1.059 1s.441-.45.441-1-.477-1-1.059-1-.781.45-.441 1m192.5-.118c0 .55.45 1.278 1 1.618s1 .168 1-.382-.45-1.278-1-1.618-1-.168-1 .382M8.733 131.124c.679.684 1.486.991 1.793.683.308-.308-.247-.867-1.233-1.243-1.425-.542-1.54-.428-.56.56m215.472.501c-1.403 1.503-.75 1.644 2.222.48 1.489-.584 1.601-.88.495-1.305-.788-.302-2.01.069-2.717.825m-201.598.957c-.793 2.065-.766 2.418.18 2.418.433 0 .855-.9.938-2 .181-2.404-.289-2.58-1.118-.418M42 131.378c0 .207.685.946 1.523 1.641 1.273 1.057 1.42.995.893-.378-.538-1.401-2.416-2.384-2.416-1.263m6.438.522c.384.62 0 1.1-.879 1.1-.857 0-1.559.466-1.559 1.035 0 .699.658.683 2.021-.046 1.111-.595 2.461-.809 3-.476.538.333.979.369.979.081s-.954-1.034-2.121-1.659c-1.49-.797-1.918-.808-1.441-.035M208 131.393c0 .216.698.661 1.552.989.89.341 1.291.173.941-.393-.587-.951-2.493-1.406-2.493-.596m8.446 1.694c-.369.598-.266 1.493.229 1.988.535.535.962.093 1.051-1.087.167-2.22-.273-2.53-1.28-.901m20.436-.504c-.066.505-.066 1.255 0 1.667.065.412-.257.75-.715.75-.459 0-.834.632-.834 1.404 0 1.078.4 1.155 1.72.331 1.701-1.063 1.99-3.026.643-4.373-.383-.382-.749-.283-.814.221m-208.149 2.541c.679.684 1.486.991 1.793.683.308-.308-.247-.867-1.233-1.243-1.425-.542-1.54-.428-.56.56m6.726.943c-1.026 1.66-.105 1.89 1.33.332.71-.769.849-1.399.309-1.399-.539 0-1.277.48-1.639 1.067m7.541-.509c0 .205.9.853 2 1.442 1.105.591 2 .659 2 .152 0-.505-.9-1.154-2-1.442-1.1-.287-2-.356-2-.152m160.964 2.278c.659 1.284 1.472 2.061 1.807 1.726.336-.335-.203-1.386-1.197-2.336-1.728-1.65-1.755-1.623-.61.61m7.036-1.372c0 1.552 3.058 3.617 4.242 2.865 1.237-.785 1.768-.955 3.758-1.204.55-.069 1-.63 1-1.247 0-.762-.402-.803-1.25-.129-1.292 1.028-2.98.955-6-.259-.963-.387-1.75-.399-1.75-.026M.252 140.5c.011 2.2.216 2.982.455 1.738s.23-3.044-.02-4-.446.062-.435 2.262m230.011-1.339c-.121 1.61.122 1.854.988.988.757-.757.812-1.486.161-2.137s-1.043-.259-1.149 1.149m-203.12.729c-.834.529-.971 1.098-.355 1.479.552.341 1.26-.053 1.576-.875.662-1.727.6-1.757-1.221-.604M234.5 140c-.34.55-.141 1 .441 1s1.059-.45 1.059-1-.198-1-.441-1-.719.45-1.059 1m-28.75 1.392c-1.931 1.466-2.275 2.608-.785 2.608.53 0 1.446-.9 2.035-2 1.247-2.331 1.108-2.398-1.25-.608M31 141.941c0 .518.445 1.216.989 1.552.566.35.734-.051.393-.941-.665-1.732-1.382-2.049-1.382-.611m188.446 2.146c-.369.598-.194 1.565.39 2.149.749.749 1.014.429.9-1.087-.184-2.446-.35-2.583-1.29-1.062m-186.413 1.641c-1.311 1.476-1.275 1.579.332.962.989-.379 1.987-.69 2.217-.69s.418-.45.418-1c0-1.471-1.297-1.153-2.967.728m196.474-.739c-.35.566.051.734.941.393 1.732-.665 2.049-1.382.611-1.382-.518 0-1.216.445-1.552.989M.232 148c0 1.925.206 2.713.457 1.75.252-.963.252-2.537 0-3.5-.251-.963-.457-.175-.457 1.75m23.435-2.333c-.367.366-.653 1.379-.637 2.25.025 1.3.221 1.257 1.092-.242 1.077-1.852.765-3.228-.455-2.008m177.264 1.917c-1.762 2.122-.418 2.871 2.049 1.142 1.694-1.186 1.82-1.589.638-2.042-.809-.311-2.019.094-2.687.9m9.707.916c.317.825.753 1.5.969 1.5s.393-.675.393-1.5-.436-1.5-.969-1.5-.709.675-.393 1.5m4.362 1c1.153 1.389.691 1.944-1.324 1.594-.454-.079-.526.339-.161.93.464.751 1.09.719 2.086-.108 1.079-.895 1.149-1.512.289-2.549-.624-.752-1.36-1.367-1.635-1.367s.06.675.745 1.5m-194.5.5c-.34.55-.141 1 .441 1S22 150.55 22 150s-.198-1-.441-1-.719.45-1.059 1m202.941.532c2.29 1.732 3.559 1.878 3.559.409 0-.582-.419-.8-.931-.484s-1.213.118-1.559-.441-1.164-1.002-1.819-.984c-.655.017-.317.692.75 1.5m-197.108.968c0 .72.6 1.079 1.334.798.733-.282 1.333-.641 1.333-.798s-.6-.516-1.333-.798c-.734-.281-1.334.078-1.334.798m173.667.559c0 .582.45.781 1 .441s1-.816 1-1.059-.45-.441-1-.441-1 .477-1 1.059m-180 2c0 .582.45.781 1 .441s1-.816 1-1.059-.45-.441-1-.441-1 .477-1 1.059m32.733.065c.679.684 1.486.991 1.793.683.308-.308-.247-.867-1.233-1.243-1.425-.542-1.54-.428-.56.56m184.646.255c.127.86.509 1.842.85 2.184.342.341.518-.083.392-.942-.127-.86-.509-1.842-.85-2.184-.342-.341-.518.083-.392.942m-198.218 2.168c-1.459 3.201-1.468 3.121.404 3.84 1.211.464 1.419.137.918-1.441-.357-1.123-.106-2.695.557-3.494s.772-1.452.243-1.452-1.484 1.146-2.122 2.547m-30.428-.423c.679.684 1.486.991 1.793.683.308-.308-.247-.867-1.233-1.243-1.425-.542-1.54-.428-.56.56M29 156.031c0 .533.675.969 1.5.969s1.5-.177 1.5-.393-.675-.652-1.5-.969-1.5-.139-1.5.393m181.57-.144c-.301.487.208 1.5 1.133 2.25 1.406 1.14 1.547 1.141.864.006-.635-1.055-.288-1.199 1.558-.647 2.32.694 2.329.674.375-.861-2.315-1.819-3.168-1.982-3.93-.748m23.877.028c.311.503.101 1.144-.466 1.425-.567.28-.485.403.181.273 1.586-.311 2.346-2.613.862-2.613-.628 0-.888.412-.577.915M.402 171c0 8.525.154 12.012.341 7.75s.188-11.238 0-15.5c-.187-4.262-.341-.775-.341 7.75M244 160.5c0 .825.45 1.5 1 1.5s1-.675 1-1.5-.45-1.5-1-1.5-1 .675-1 1.5m-14.436 1.207c-.542 1.425-.428 1.54.56.56.684-.679.991-1.486.683-1.793-.308-.308-.867.247-1.243 1.233m3.515-.124c.048 1.165.285 1.402.604.605.289-.722.253-1.585-.079-1.917s-.568.258-.525 1.312m-177.536.348c-.317.512-.193 1.167.274 1.456s.85-.13.85-.931c0-1.686-.316-1.833-1.124-.525M213 165.409c0 .19.675.906 1.5 1.591.865.718 1.5.815 1.5.229 0-.558-.675-1.274-1.5-1.591s-1.5-.419-1.5-.229m24.5.591c-.34.55.11 1 1 1s1.34-.45 1-1-.79-1-1-1-.66.45-1 1m-222 1c.34.55.816 1 1.059 1s.441-.45.441-1-.477-1-1.059-1-.781.45-.441 1m193.634-.104c-1.036.656-1.104 1.318-.281 2.735.598 1.028 1.137 1.644 1.2 1.369.173-.763.624-5.002.53-4.985-.046.009-.698.405-1.449.881m20.209 1.343c.087 1.468.539 2.277 1.011 1.806s.401-1.661-.158-2.659c-.869-1.553-.989-1.434-.853.853M66.5 168c-.34.55-.141 1 .441 1S68 168.55 68 168s-.198-1-.441-1-.719.45-1.059 1m125.579 1.583c.048 1.165.285 1.402.604.605.289-.722.253-1.585-.079-1.917s-.568.258-.525 1.312M5 170.059c0 .582.45.781 1 .441s1-.816 1-1.059S6.55 169 6 169s-1 .477-1 1.059m210 0c0 .582.45.781 1 .441s1-.816 1-1.059-.45-.441-1-.441-1 .477-1 1.059M49.5 171c.34.55.816 1 1.059 1s.441-.45.441-1-.477-1-1.059-1-.781.45-.441 1m151.729.961c-2.64 2.202-1.478 3.469 1.929 2.104 1.288-.516 1.78-.967 1.092-1.002-.687-.034-1.25-.561-1.25-1.17s.698-.839 1.552-.511c.89.341 1.291.173.941-.393-.856-1.385-1.658-1.202-4.264.972M40 171.833c0 .459.655.834 1.456.834s1.224-.375.941-.834-.938-.833-1.456-.833-.941.375-.941.833m12.667-.166c-.956.955-.822 2.333.226 2.333.491 0 1.152-.675 1.469-1.5.585-1.524-.481-2.048-1.695-.833m139.528 2.833c.02 1.65.244 2.204.498 1.231s.237-2.323-.037-3-.481.119-.461 1.769m44.312-1.511c-.35.566.051.734.941.393 1.732-.665 2.049-1.382.611-1.382-.518 0-1.216.445-1.552.989m-185.694 2.694c.721.289 1.584.253 1.916-.079s-.258-.568-1.312-.525c-1.165.048-1.402.285-.604.604m163.92.441c.679.684 1.486.991 1.793.683.308-.308-.247-.867-1.233-1.243-1.425-.542-1.54-.428-.56.56M54.38 178.497c-1.151 1.293-1.82 2.728-1.486 3.19.848 1.174 4.985-3.265 4.21-4.518-.37-.6-1.495-.051-2.724 1.328m176.877-.26c-.132 1.759.033 1.919.772.75 1.156-1.828 1.227-2.987.184-2.987-.433 0-.863 1.007-.956 2.237M46 177.378c0 .207.685.946 1.523 1.641 1.273 1.057 1.42.995.893-.378-.538-1.401-2.416-2.384-2.416-1.263m4 .622c0 .55.45 1 1 1s1-.45 1-1-.45-1-1-1-1 .45-1 1m19.345.543c-.326.849-.311 1.824.031 2.167.343.343.624-.089.624-.96s.563-1.81 1.25-2.088c.979-.395.972-.521-.031-.583-.705-.043-1.548.615-1.874 1.464M196 177.819c0 1.208 1.897 2.617 2.591 1.924.251-.252-.229-1.027-1.067-1.723-.95-.789-1.524-.865-1.524-.201m14.132 4.352c-.532 1.438-1.047 1.776-1.526 1-.398-.644-1.248-1.171-1.888-1.171s-.134.721 1.124 1.602c2.503 1.753 3.385 1.38 3.844-1.628.402-2.635-.551-2.514-1.554.197m3.963-.421a93 93 0 0 1 1.622 2.167c.156.229.283-.559.283-1.75 0-1.332-.625-2.167-1.622-2.167-1.389 0-1.43.252-.283 1.75m2.905-.917c0 .459.655.834 1.456.834s1.224-.375.941-.834-.938-.833-1.456-.833-.941.375-.941.833m-19.851 1.834c-.743.805-1.144 1.671-.892 1.923s1.036-.238 1.743-1.09c1.669-2.011.916-2.749-.851-.833M50 183c-.901.582-1.025.975-.309.985.655.008 1.469-.435 1.809-.985.767-1.242.421-1.242-1.5 0m152 .059c0 .582-.338.855-.75.605s-1.254.092-1.87.759c-.828.898-.788 1.666.154 2.955.809 1.105 1.513 1.354 1.929.682.36-.583.178-1.06-.404-1.06s-1.059-.498-1.059-1.107.583-.883 1.295-.61c.757.291 1.355-.289 1.438-1.393.079-1.039-.054-1.89-.295-1.89s-.438.477-.438 1.059m-148.435 1.836c-.305.493.044 1.125.774 1.405s1.328-.123 1.328-.895c0-1.575-1.256-1.879-2.102-.51m6.435-.517c0 .207.788.995 1.75 1.75 1.586 1.243 1.621 1.208.378-.378-1.307-1.666-2.128-2.195-2.128-1.372m20 0c0 .207.787.995 1.75 1.75 1.586 1.243 1.621 1.208.378-.378-1.307-1.666-2.128-2.195-2.128-1.372M193 185c0 .55.45 1 1 1s1-.45 1-1-.45-1-1-1-1 .45-1 1m-149.5 1c-.34.55-.168 1 .382 1s1.278-.45 1.618-1 .168-1-.382-1-1.278.45-1.618 1m140.5.559c0 .857.45 1.281 1 .941s1-1.041 1-1.559-.45-.941-1-.941-1 .702-1 1.559m28-.118c0 .793.423 1.702.939 2.022.517.319.871-.329.788-1.441-.172-2.284-1.727-2.807-1.727-.581m-147.543.49c.317.512.118 1.213-.441 1.559s-1.002 1.164-.984 1.819c.017.658.627.407 1.36-.559.731-.963 1.841-1.75 2.468-1.75s1.14-.45 1.14-1-.927-1-2.059-1-1.8.419-1.484.931M.31 192.5c.005 3.3.192 4.529.415 2.732s.218-4.497-.01-6C.486 187.729.304 189.2.31 192.5M191 188c-1.207.78-1.049.972.809.985 1.288.008 2.036-.427 1.691-.985-.743-1.202-.639-1.202-2.5 0m49.813-.317c.721.289 1.584.253 1.916-.079s-.258-.568-1.312-.525c-1.165.048-1.402.285-.604.604M55 189.383c0 .211.901.619 2.001.907 1.101.288 1.75.115 1.441-.383-.538-.871-3.442-1.313-3.442-.524m11.609 1.441c-.353.571-.154 1.339.441 1.707 1.486.918 2.012.188 1.021-1.417-.532-.859-1.047-.962-1.462-.29m121.987.787c-.453 1.18-.192 1.448.974 1 .877-.336 1.808-.611 2.071-.611.262 0 .199-.45-.141-1-.917-1.484-2.204-1.213-2.904.611M222 191c0 .55.477 1 1.059 1s.781-.45.441-1-.816-1-1.059-1-.441.45-.441 1m-19.443 2.418c1.067.78 2.153 1.206 2.412.946.551-.55-2.028-2.326-3.41-2.349-.518-.008-.068.623.998 1.403m-10.528.543c-.809.512-1.211 1.191-.893 1.509s1.148-.108 1.844-.946c1.443-1.738 1.166-1.902-.951-.563M43 195c0 .55.477 1 1.059 1s.781-.45.441-1-.816-1-1.059-1-.441.45-.441 1m45 .031c0 .533.45.969 1 .969s1 .408 1 .906-1.013.693-2.25.432c-1.982-.419-2.042-.342-.5.643.963.615 1.75 1.857 1.75 2.76 0 1.414.189 1.383 1.362-.221.749-1.024 1.154-2.654.901-3.622-.494-1.891-3.263-3.475-3.263-1.867m-15.417.835c-.431.697-.513 1.537-.183 1.867.895.895 1.871-.421 1.387-1.871-.338-1.016-.574-1.016-1.204.004m115.488-.366c0 1.364 2.845 6.255 2.909 5 .028-.55.536-.325 1.13.5.922 1.282 1 1.255.541-.185-.296-.927-.001-1.932.655-2.233.657-.301.294-.422-.806-.269-1.167.163-2.506-.574-3.215-1.767-.668-1.125-1.214-1.596-1.214-1.046m-11.409 1.938c-.243.634.859 1.898 2.448 2.81 2.515 1.444 2.89 1.463 2.89.146 0-.831-.359-1.29-.798-1.019s-1.451.08-2.25-.426c-1.077-.681-.698-.922 1.465-.934 3.434-.018 2.883-1.048-.777-1.45-1.395-.153-2.735.24-2.978.873m-118.118 1.307c-.357.932-.33 1.374.061.983s1.315-.209 2.053.403c1.779 1.476 1.729.113-.061-1.677-1.204-1.204-1.495-1.162-2.053.291M222 198.059c0 .582.45.781 1 .441s1-.816 1-1.059-.45-.441-1-.441-1 .477-1 1.059m-154 .879c0 .516.869.872 1.931.792s1.71-.502 1.441-.938c-.686-1.108-3.372-.993-3.372.146M82 199c0 .55.477 1 1.059 1s.781-.45.441-1-.816-1-1.059-1-.441.45-.441 1m103.459.067c-.363.586-.445 1.281-.183 1.543s.743-.218 1.069-1.067c.676-1.762.1-2.072-.886-.476m20.69.6c-.743.805-1.144 1.671-.892 1.923s1.036-.238 1.743-1.09c1.669-2.011.916-2.749-.851-.833M.441 227.5c.001 15.95.139 22.335.307 14.189s.168-21.196-.001-29C.579 204.885.441 211.55.441 227.5M77 200.893c0 .491.712 1.166 1.582 1.5 2.447.939 2.689.735 1.061-.893-1.7-1.7-2.643-1.917-2.643-.607m111.079.69c.048 1.165.285 1.402.604.605.289-.722.253-1.585-.079-1.917s-.568.258-.525 1.312m-119.452.888c.321.835.947 1.292 1.392 1.017.446-.275 1.038.065 1.317.756.379.94.526.95.585.041.043-.668-.811-1.691-1.898-2.273-1.612-.862-1.87-.777-1.396.459m17.005.315c-.267.432.349.785 1.368.785s1.635-.353 1.368-.785C88.1 202.354 87.485 202 87 202s-1.1.354-1.368.786m27.089 1.174c-.408 1.558-.055 2.04 1.495 2.04 1.776 0 1.862-.218.689-1.75-.736-.963-1.409-1.88-1.495-2.04-.086-.159-.396.629-.689 1.75m7.779-.96c.34.55 1.041 1 1.559 1s.941-.45.941-1-.702-1-1.559-1-1.281.45-.941 1m41.5.059c0 .582.453.779 1.007.437.554-.343 1.277.081 1.607.941.852 2.219 2.386 1.938 2.386-.437 0-1.467-.667-2-2.5-2-1.375 0-2.5.477-2.5 1.059m-4.5.941c-.34.55-.178 1 .359 1 .538 0 1.802.312 2.809.694 1.716.65 1.726.587.153-1-1.941-1.96-2.47-2.07-3.321-.694m10.5.059c0 .582.45.781 1 .441s1-.816 1-1.059-.45-.441-1-.441-1 .477-1 1.059m14.225.117c.151.728-.287 1.211-.975 1.074s-1.25.238-1.25.833c0 .596.563.882 1.25.635.688-.246 2.15-.034 3.25.472 1.842.848 1.863.81.266-.484-.954-.772-1.487-1.652-1.184-1.955s.06-.854-.54-1.225c-.609-.376-.97-.089-.817.65m10.339.117c.376.986.935 1.541 1.243 1.233s.001-1.114-.683-1.793c-.988-.98-1.102-.865-.56.56M75 204.895c0 .573.675.783 1.5.467.932-.358 1.5.005 1.5.958 0 .843-.787 1.739-1.75 1.991-1.278.334-1.125.488.57.573 1.856.093 2.255-.331 2-2.124-.314-2.197-3.82-3.909-3.82-1.865m-33.921 1.688c.048 1.165.285 1.402.604.605.289-.722.253-1.585-.079-1.917s-.568.258-.525 1.312M60.5 206c-.34.55-.141 1 .441 1S62 206.55 62 206s-.198-1-.441-1-.719.45-1.059 1m148.043-.069c-.317.512-.193 1.167.274 1.456s.85-.13.85-.931c0-1.686-.316-1.833-1.124-.525M90 206.987c0 1.175 2.848 2.067 3.457 1.083.286-.463-.374-1.077-1.468-1.363s-1.989-.16-1.989.28m29.5.013c-.34.55.084 1 .941 1s1.559-.45 1.559-1-.423-1-.941-1-1.219.45-1.559 1m15.01.016c.346.559 1.117.715 1.714.346.65-.402.797-.205.367.491-.395.639-.055 1.826.756 2.637s1.678 2.045 1.927 2.742.784.96 1.19.584-.175-1.663-1.29-2.86-1.787-2.801-1.494-3.566c.355-.923-.193-1.39-1.632-1.39-1.213 0-1.89.447-1.538 1.016m19.573-.733c.23.156 1.215.894 2.19 1.641 1.543 1.183 1.691 1.146 1.143-.283-.347-.902-1.332-1.641-2.19-1.641s-1.372.127-1.143.283m-52.035 1.666c-.799.506-1.699.771-2 .59-.302-.181-1.157.329-1.9 1.133-1.137 1.229-1.137 1.414 0 1.161 2.283-.51 7.546 2.187 8.757 4.488l1.147 2.179-.432-2.25c-.238-1.238.002-2.25.533-2.25s.676-.468.322-1.041c-.354-.572-1.505-.767-2.559-.432-1.78.565-2.507-.785-2.034-3.777.15-.95-.052-.928-1.834.199m61.952.11c0 .582.45.781 1 .441s1-.816 1-1.059-.45-.441-1-.441-1 .477-1 1.059M82.5 210c-.354 1.116-1.131 1.728-1.727 1.36-.645-.399-.794-.202-.368.485.915 1.482.856 1.499 2.833-.81.926-1.081 1.283-2.213.795-2.515-.489-.302-1.179.364-1.533 1.48m64.643-1.11c-.824.523-.967 1.101-.363 1.474.546.338 1.549-.056 2.229-.875 1.35-1.626.291-1.965-1.866-.599m12.872 1.419c-.008 1.615-.44 2.546-1.015 2.191-.55-.34-1-.141-1 .441 0 1.696 1.842 1.222 2.895-.745.59-1.102.61-2.366.051-3.25-.681-1.075-.919-.726-.931 1.363m8.39-1.154c-.465.751-.272.881.552.371.716-.442 1.593-.255 2.016.43.549.889.91.79 1.356-.372.723-1.884-2.788-2.268-3.924-.429m33.441-.15c-.701 1.772 1.727 4.495 2.66 2.985.337-.544.168-.99-.374-.99s-1.144-.787-1.338-1.75c-.292-1.449-.456-1.491-.948-.245M89 210c0 .55 1.013.993 2.25.985 1.819-.013 1.963-.201.75-.985-1.939-1.253-3-1.253-3 0m30.985.954c1.367 1.05 2.684 1.71 2.927 1.467.566-.565-3.089-3.354-4.412-3.367-.55-.005.118.85 1.485 1.9M75.5 211c-.34.55-.141 1 .441 1S77 211.55 77 211s-.198-1-.441-1-.719.45-1.059 1m10 0c-.34.55-.178 1 .359 1 .538 0 1.802.312 2.809.694 1.716.65 1.726.587.153-1-1.941-1.96-2.47-2.07-3.321-.694m43.241.092c.683.876.922 1.912.531 2.303s.082.406 1.052.034c.969-.372 1.63-.748 1.469-.836s-1.193-.819-2.293-1.626c-1.802-1.322-1.877-1.31-.759.125m12.072-.409c.721.289 1.584.253 1.916-.079s-.258-.568-1.312-.525c-1.165.048-1.402.285-.604.604m65.52.773c0 .801.383 1.22.85.931s.591-.944.274-1.456c-.808-1.308-1.124-1.161-1.124.525m-91.774 1.076c-1.068.807-1.518 1.454-1 1.436.517-.017 1.815-.692 2.882-1.5 1.068-.807 1.518-1.454 1-1.436-.517.017-1.815.692-2.882 1.5m38.005-.239c.376.986.935 1.541 1.243 1.233s.001-1.114-.683-1.793c-.988-.98-1.102-.865-.56.56m14.647.245c-1.061 1.202-1.035 1.462.143 1.462.787 0 1.691-.675 2.008-1.5.728-1.897-.463-1.876-2.151.038m-73.752.529c-.363.586-.389 1.336-.059 1.666s.6.049.6-.625.45-.948 1-.608 1 .141 1-.441c0-1.373-1.691-1.368-2.541.008m23.574.492c-.048 1.55 2.7 5.041 3.41 4.331.334-.334-.289-1.683-1.385-2.998-1.095-1.316-2.006-1.916-2.025-1.333m17.967 1c0 .857.45 1.281 1 .941s1-1.041 1-1.559-.45-.941-1-.941-1 .702-1 1.559m49.741-.467c.683.876.946 1.888.584 2.25s-.133.658.508.658c1.712 0 1.422-1.555-.583-3.128-1.548-1.214-1.607-1.189-.509.22m40.895.414c-.315.822-.164 1.494.336 1.494 1.356 0 2.198-1.777 1.149-2.425-.501-.31-1.169.109-1.485.931M43.5 215c-.34.55-.141 1 .441 1S45 215.55 45 215s-.198-1-.441-1-.719.45-1.059 1m55.5 0c.825.533 1.95.969 2.5.969s.325-.436-.5-.969-1.95-.969-2.5-.969-.325.436.5.969m50.923-.75c-.633 2.069-.559 3.75.165 3.75.502 0 .912-.9.912-2 0-1.608-.748-2.824-1.077-1.75m-36.256 1.417c-1.215 1.214-.691 2.28.833 1.695.825-.317 1.5-.051 1.5.59s.472.874 1.049.518c.716-.443.678-1.094-.123-2.059-1.285-1.548-2.238-1.766-3.259-.744m14.927.485c.391.633-.045 1.705-.971 2.381-1.319.966-1.391 1.342-.334 1.748.829.318 1.77-.6 2.443-2.382.899-2.381.831-2.899-.378-2.899-.856 0-1.174.482-.76 1.152m11.156-.49c.688.278 1.257 1.255 1.265 2.171.013 1.419.155 1.447.948.193.944-1.492-.377-3.065-2.463-2.932-.55.035-.437.291.25.568m-65.017 1.462c.679.684 1.486.991 1.793.683.308-.308-.247-.867-1.233-1.243-1.425-.542-1.54-.428-.56.56m34.88.059c.289.467.944.591 1.456.274 1.308-.808 1.161-1.124-.525-1.124-.801 0-1.22.383-.931.85m34.988-.347c-.254.412.406.814 1.468.894 2.297.173 2.499-.298.463-1.079-.807-.31-1.676-.227-1.931.185m23.814.302c-.434.702-.292.904.355.504.593-.366 1.285.127 1.538 1.096.411 1.575.472 1.583.576.071.145-2.12-1.503-3.235-2.469-1.671m-65.533.612a5.7 5.7 0 0 0 0 1.5c.065.412-.557.75-1.382.75s-1.464.787-1.421 1.75c.047 1.045.282 1.247.583.5.278-.687 1.114-1.25 1.859-1.25s1.287-.9 1.204-2c-.15-1.989-.617-2.682-.843-1.25m30.618.25c-.34.55-.141 1 .441 1s1.059-.45 1.059-1-.198-1-.441-1-.719.45-1.059 1m40.064.707c-.542 1.425-.428 1.54.56.56.684-.679.991-1.486.683-1.793-.308-.308-.867.247-1.243 1.233m-112.961.46c.283.458.938.833 1.456.833s.941-.375.941-.833c0-.459-.655-.834-1.456-.834s-1.224.375-.941.834m35.961 1.126c.376.986.935 1.541 1.243 1.233s.001-1.114-.683-1.793c-.988-.98-1.102-.865-.56.56M136 220c0 .55.477 1 1.059 1s.781-.45.441-1-.816-1-1.059-1-.441.45-.441 1m-66.387 1.183c.289.467.944.591 1.456.274 1.308-.808 1.161-1.124-.525-1.124-.801 0-1.22.383-.931.85m51.523.153c-.934 1.125-.868 1.553.306 2.004 1.818.697 2.708-.48 1.654-2.185-.604-.977-1.031-.938-1.96.181m11.002-.003c-.835 1.006-.753 1.334.334 1.334.792 0 1.232-.337.978-.748-.254-.412.103-.976.794-1.255.782-.315.831-.536.128-.585-.62-.043-1.625.521-2.234 1.254M175.5 221c-.34.55-.141 1 .441 1s1.059-.45 1.059-1-.198-1-.441-1-.719.45-1.059 1m5.043-.069c-.317.512-.193 1.167.274 1.456s.85-.13.85-.931c0-1.686-.316-1.833-1.124-.525m-101 2c-.317.512-.118 1.213.441 1.559s1.016-.074 1.016-.931c0-1.757-.6-2.015-1.457-.628m3.124-.264c-.367.366-.667 1.131-.667 1.7 0 .626.466.567 1.183-.15.651-.651.951-1.416.667-1.7s-.817-.217-1.183.15M114 223c0 .55.477 1 1.059 1s.781-.45.441-1-.816-1-1.059-1-.441.45-.441 1m22 1.059c0 .582.45.781 1 .441s1-.816 1-1.059-.45-.441-1-.441-1 .477-1 1.059m24 .941c0 .55.45 1 1 1s1-.45 1-1-.45-1-1-1-1 .45-1 1m29.558-.093c-.309.498.34.671 1.441.383 2.335-.611 2.63-1.29.56-1.29-.793 0-1.693.408-2.001.907m-50.543 2.843c.009.999.336 1.321.762.75.41-.55 1.154-1.338 1.651-1.75s.155-.75-.761-.75c-.927 0-1.66.777-1.652 1.75m-2.515.25c.34.55.816 1 1.059 1s.441-.45.441-1-.477-1-1.059-1-.781.45-.441 1m10 3c-.34.55-.141 1 .441 1s1.059-.45 1.059-1-.198-1-.441-1-.719.45-1.059 1m66.007-.011c-.35.566.051.734.941.393 1.732-.665 2.049-1.382.611-1.382-.518 0-1.216.445-1.552.989M76.5 233c-.34.55-.141 1 .441 1S78 233.55 78 233s-.198-1-.441-1-.719.45-1.059 1m112.5 2c0 .55.477 1 1.059 1s.781-.45.441-1-.816-1-1.059-1-.441.45-.441 1m-136.5 1c.34.55.816 1 1.059 1s.441-.45.441-1-.477-1-1.059-1-.781.45-.441 1m90.5-.214c0 .668.498 1.214 1.107 1.214.641 0 .827.736.441 1.75-.536 1.408-.419 1.505.6.493 1.021-1.014.936-1.588-.441-2.964-1.068-1.069-1.707-1.253-1.707-.493m9.813-.103c.721.289 1.584.253 1.916-.079s-.258-.568-1.312-.525c-1.165.048-1.402.285-.604.604M248 237c0 .55.477 1 1.059 1s.781-.45.441-1-.816-1-1.059-1-.441.45-.441 1m-90.128 3.75c-1.243 1.586-1.208 1.621.378.378.963-.755 1.75-1.543 1.75-1.75 0-.823-.821-.294-2.128 1.372m-42.308 1.543c.376.986.935 1.541 1.243 1.233s.001-1.114-.683-1.793c-.988-.98-1.102-.865-.56.56M173.5 243c-.34.55-.141 1 .441 1s1.059-.45 1.059-1-.198-1-.441-1-.719.45-1.059 1m-50 9c.34.55.816 1 1.059 1s.441-.45.441-1-.477-1-1.059-1-.781.45-.441 1m22 0c.34.55.816 1 1.059 1s.441-.45.441-1-.477-1-1.059-1-.781.45-.441 1"/></svg>