<svg xmlns="http://www.w3.org/2000/svg" width="256" height="256"><path fill="#1976D2" fill-opacity=".016" fill-rule="evenodd" d="M0 128.004v128.004l128.25-.254 128.25-.254.254-127.75L257.008 0H0zm.485.496c0 70.4.119 99.053.265 63.672s.146-92.98 0-128S.485 58.1.485 128.5"/><path fill="#1976D2" fill-opacity=".231" fill-rule="evenodd" d="M102.5 2.033C53.495 12.336 16.19 48.299 3.332 97.636.687 107.784.501 109.784.518 128c.015 16.642.334 20.746 2.175 28 12.692 50.006 47.928 85.337 96.807 97.066 6.544 1.571 11.749 1.921 28.602 1.927 18.884.006 21.461-.21 30.901-2.59 48.362-12.196 83.985-49.324 95.139-99.159 2.444-10.919 3.756-38.031 2.016-41.67-.545-1.141-1.52-4.999-2.166-8.574-3.019-16.692-11.215-35.641-21.737-50.255-7.242-10.058-22.696-24.941-32.896-31.679-14.668-9.69-30.677-16.152-48.293-19.494-11.883-2.254-36.776-2.018-48.566.461M48 91.714c0 1.619.583 2.286 2 2.286s2-.667 2-2.286-.583-2.285-2-2.285-2 .666-2 2.285m10-.12c0 1.739.554 2.406 2 2.406 1.292 0 2-.667 2-1.883 0-1.043-.893-2.117-2-2.407-1.591-.416-2-.03-2 1.884m60 0c0 1.739.554 2.406 2 2.406 1.292 0 2-.667 2-1.883 0-1.043-.893-2.117-2-2.407-1.591-.416-2-.03-2 1.884m10 .073c0 1.817.465 2.39 1.739 2.145 2.528-.487 2.753-3.45.309-4.089-1.657-.434-2.048-.063-2.048 1.944m-75 4.927c0 1.739.554 2.406 2 2.406 1.292 0 2-.667 2-1.883 0-1.043-.893-2.117-2-2.407-1.591-.416-2-.03-2 1.884M63 97q0 2 2 2t2-2-2-2-2 2m60 0q0 2 2 2t2-2-2-2-2 2m9 0c0 1.467.667 2 2.5 2s2.5-.533 2.5-2-.667-2-2.5-2-2.5.533-2.5 2m-74 4.667c0 1.817.465 2.39 1.739 2.145 2.528-.487 2.753-3.45.309-4.089-1.657-.434-2.048-.063-2.048 1.944m10-.005c0 1.828.462 2.396 1.75 2.148.963-.186 1.75-1.188 1.75-2.228s-.787-2.007-1.75-2.148c-1.266-.186-1.75.43-1.75 2.228m60 0c0 1.828.462 2.396 1.75 2.148.963-.186 1.75-1.188 1.75-2.228s-.787-2.007-1.75-2.148c-1.266-.186-1.75.43-1.75 2.228m10.693-1.902c-2.373.537-1.752 3.74.725 3.74 1.04 0 2.007-.786 2.148-1.746.302-2.059-.408-2.551-2.873-1.994M.402 128c0 8.525.154 12.012.341 7.75s.188-11.237 0-15.5c-.187-4.263-.341-.775-.341 7.75m166.265 29.667c-.367.366-.667 3.066-.667 6V169h26v-12h-12.333c-6.784 0-12.634.3-13 .667"/><path fill="#1976D2" fill-opacity=".119" fill-rule="evenodd" d="M106.437 1.559C80.963 5.841 55.965 18.875 37.5 37.504 19.413 55.751 7.786 77.403 2.329 103c-2.543 11.928-2.512 38.166.058 50 11.133 51.257 49.498 89.761 100.122 100.484 9.857 2.088 40.956 2.052 51.283-.06 52.239-10.682 92.089-52.582 101.332-106.544 1.827-10.667 1.59-30.675-.485-40.88-5.604-27.567-17.202-49.587-36.111-68.564-18.972-19.039-42.502-31.294-68.909-35.89-10.807-1.881-31.953-1.875-43.182.013M89 36v12H76v36h77V72h13V36h-13V24H89zM47.667 89.667c-.367.366-.667 1.491-.667 2.5 0 1.289.742 1.833 2.5 1.833 2 0 2.5-.5 2.5-2.5 0-1.758-.544-2.5-1.833-2.5-1.009 0-2.134.3-2.5.667M57 91.43c0 1.76-.621 2.519-2.25 2.75-1.446.206-2.364 1.124-2.57 2.57-.26 1.832.158 2.25 2.25 2.25 2.075 0 2.57.482 2.57 2.5 0 2 .5 2.5 2.5 2.5s2.5-.5 2.5-2.5.5-2.5 2.5-2.5 2.5.5 2.5 2.5.5 2.5 2.5 2.5 2.5-.5 2.5-2.5-.5-2.5-2.5-2.5-2.5-.5-2.5-2.5-.5-2.5-2.5-2.5-2.5-.5-2.5-2.5-.5-2.5-2.5-2.5c-1.981 0-2.5.505-2.5 2.43m60 .07c0 2 .5 2.5 2.5 2.5s2.5.5 2.5 2.5.5 2.5 2.5 2.5 2.5.5 2.5 2.5.5 2.5 2.5 2.5 2.5-.5 2.5-2.5.5-2.5 2.5-2.5 2.5.5 2.5 2.5.5 2.5 2.5 2.5 2.5-.5 2.5-2.5-.5-2.5-2.5-2.5-2.5-.5-2.5-2.5-.5-2.5-2.5-2.5-2.5-.5-2.5-2.5-.5-2.5-2.5-2.5-2.5.5-2.5 2.5-.5 2.5-2.5 2.5-2.5-.5-2.5-2.5-.5-2.5-2.5-2.5-2.5.5-2.5 2.5M97 95c0 4.667-.167 5-2.5 5-1.833 0-2.5.533-2.5 2s-.667 2-2.5 2c-2 0-2.5.5-2.5 2.5 0 2.364-.3 2.5-5.5 2.5H76v24h13v23.94l12.75.28 12.75.28.299 5.704.298 5.703 6.202.297 6.201.296.298 6.25.297 6.25H139.9l.3 5.75.3 5.75 32.25.264 32.25.264v12.067l6.25-.297 6.25-.298.273-17.75.273-17.75H205v-11.905l-6.25-.297-6.25-.298-.298-6.25-.297-6.25H153v-24h-13v-12h-24v-2.5c0-2-.5-2.5-2.5-2.5-1.951 0-2.5-.511-2.5-2.329 0-1.773-.538-2.311-2.25-2.25-1.988.07-2.285-.474-2.555-4.671L105.89 90H97zm-40 1.5c0 2 .5 2.5 2.5 2.5s2.5-.5 2.5-2.5-.5-2.5-2.5-2.5-2.5.5-2.5 2.5m70 0c0 2 .5 2.5 2.5 2.5s2.5-.5 2.5-2.5-.5-2.5-2.5-2.5-2.5.5-2.5 2.5M.385 128c0 6.875.16 9.688.355 6.25.196-3.437.196-9.062 0-12.5-.195-3.437-.355-.625-.355 6.25"/><path fill="#1976D2" fill-opacity=".512" fill-rule="evenodd" d="M109 1.538C54.957 10.083 12.984 50.712 2.334 104.79c-2.329 11.827-2.275 35.728.106 46.681 6.003 27.619 16.97 48.016 36.04 67.029 18.444 18.389 39.8 29.745 65.728 34.952 10.333 2.075 36.752 2.083 47.659.014 46.349-8.792 84.877-43.391 98.533-88.483 4.735-15.637 7.753-40.016 5.802-46.866-.567-1.99-1.553-7.217-2.192-11.617-2.49-17.144-11.943-39.498-23.011-54.415C202.831 14.123 154.929-5.724 109 1.538M76.25 23.741 63 24.058V36H50v12H37v36h117V72h13.045l-.272-18.25-.273-18.25h-12l-.5-6-.5-6-32-.038c-17.6-.022-37.963.104-45.25.279M47 91.5c0 2 .5 2.5 2.5 2.5s2.5.5 2.5 2.5.5 2.5 2.5 2.5 2.5.5 2.5 2.5.5 2.5 2.5 2.5 2.5-.5 2.5-2.5.5-2.5 2.5-2.5 2.5.5 2.5 2.5.5 2.5 2.5 2.5 2.5-.5 2.5-2.5-.5-2.5-2.5-2.5-2.5-.5-2.5-2.5-.5-2.5-2.5-2.5-2.5-.5-2.5-2.5-.5-2.5-2.5-2.5-2.5.5-2.5 2.5-.5 2.5-2.5 2.5-2.5-.5-2.5-2.5-.5-2.5-2.5-2.5-2.5.5-2.5 2.5m50 2.445C97 98.67 96.837 99 94.5 99c-2 0-2.5.5-2.5 2.5s-.5 2.5-2.5 2.5-2.5.5-2.5 2.5v2.5H52v-2.5c0-2-.5-2.5-2.5-2.5s-2.5-.5-2.5-2.5-.5-2.5-2.5-2.5c-2.018 0-2.5-.495-2.5-2.57 0-2.092-.418-2.51-2.25-2.25l-2.25.32-.262 37.25-.262 37.25H50v25h13v12h13v12h13v12h103v-12h13v-12h13v-37h-13v-12h-13v-12h-38v-24h-13v-12h-25v-2.43c0-1.76-.621-2.519-2.25-2.75-1.477-.21-2.25-1.007-2.25-2.32 0-1.298-.771-2.11-2.198-2.313-1.854-.263-2.245-1.046-2.5-5L106.5 89.5l-4.75-.305L97 88.89zm20-2.445c0 2 .5 2.5 2.5 2.5s2.5.5 2.5 2.5.5 2.5 2.5 2.5 2.5.5 2.5 2.5.5 2.5 2.5 2.5 2.5-.5 2.5-2.5.5-2.5 2.5-2.5 2.5.5 2.5 2.5.5 2.5 2.5 2.5 2.5-.5 2.5-2.5-.5-2.5-2.5-2.5-2.5-.5-2.5-2.5-.5-2.5-2.5-2.5-2.5-.5-2.5-2.5-.5-2.5-2.5-2.5-2.5.5-2.5 2.5-.5 2.5-2.5 2.5-2.5-.5-2.5-2.5-.5-2.5-2.5-2.5-2.5.5-2.5 2.5m-60 5c0 2 .5 2.5 2.5 2.5s2.5-.5 2.5-2.5-.5-2.5-2.5-2.5-2.5.5-2.5 2.5m70 0c0 2 .5 2.5 2.5 2.5s2.5-.5 2.5-2.5-.5-2.5-2.5-2.5-2.5.5-2.5 2.5M.349 128c0 4.675.173 6.588.383 4.25s.211-6.163 0-8.5c-.21-2.338-.383-.425-.383 4.25"/></svg>