<svg
  width="21"
  height="20"
  viewBox="0 0 21 20"
  fill="none"
  xmlns="http://www.w3.org/2000/svg"
>
<g clip-path="url(#clip0_119_1191)">
<path
      d="M18.8271 8.84152V17.2913C18.8271 17.609 18.5692 17.8669 18.2515 17.8669H11.3438C11.0261 17.8669 10.7682 17.609 10.7682 17.2913V15.7177C10.7997 13.7887 11.0037 11.941 11.4322 11.1004C11.689 10.5948 12.1124 10.3197 12.5987 10.1725C13.5175 9.89635 15.1296 10.0852 15.8139 10.0527C15.8139 10.0527 17.8809 10.1349 17.8809 8.96437C17.8809 8.02224 16.957 8.09635 16.957 8.09635C15.9388 8.12274 15.1631 8.05371 14.6606 7.85574C13.819 7.52477 13.7905 6.91767 13.7875 6.71462C13.7459 4.36944 10.288 4.08822 7.24131 4.66995C3.91034 5.30345 7.27786 10.0781 7.27786 16.4517V17.3024C7.27177 17.6151 7.01897 17.8679 6.70425 17.8679H3.28395C2.96618 17.8679 2.70831 17.6101 2.70831 17.2923V2.67807C2.70831 2.36031 2.96618 2.10244 3.28395 2.10244H6.49918C6.81694 2.10244 7.07481 2.36031 7.07481 2.67807C7.07481 3.15015 7.60577 3.4131 7.98953 3.13797C9.14588 2.30954 10.6301 1.86792 12.2911 1.86792C16.0119 1.86792 18.8251 4.03645 18.8251 8.84152H18.8271ZM12.6504 7.1268C12.6504 6.4466 12.0992 5.89533 11.419 5.89533C10.7388 5.89533 10.1875 6.4466 10.1875 7.1268C10.1875 7.80701 10.7388 8.35828 11.419 8.35828C12.0992 8.35828 12.6504 7.80701 12.6504 7.1268Z"
      fill="#9E9E9E"
    />
</g>
<defs>
<clipPath id="clip0_119_1191">
<rect width="20" height="20" fill="white" transform="translate(0.5)" />
</clipPath>
</defs>
</svg>
