<svg
  fill="none"
  height="468"
  viewBox="0 0 468 468"
  width="468"
  xmlns="http://www.w3.org/2000/svg"
><path
    clip-rule="evenodd"
    d="m32.1726 207.042c125.6274-54.734 209.3984-90.818 251.3144-108.2516 119.676-49.7775 144.544-58.4244 160.752-58.71 3.565-.0628 11.536.8207 16.699 5.0103 4.36 3.5376 5.559 8.3163 6.133 11.6704.574 3.354 1.289 10.9945.721 16.9646-6.485 68.1413-34.547 233.5033-48.823 309.8233-6.041 32.294-17.936 43.122-29.451 44.181-25.026 2.303-44.029-16.538-68.267-32.427-37.928-24.862-59.355-40.339-96.171-64.6-42.548-28.038-14.966-43.448 9.282-68.633 6.345-6.591 116.608-106.883 118.742-115.981.267-1.138.515-5.38-2.005-7.619-2.52-2.24-6.239-1.474-8.923-.865-3.804.864-64.394 40.912-181.772 120.145-17.199 11.81-32.777 17.564-46.734 17.263-15.3866-.333-44.9845-8.7-66.9876-15.853-26.9876-8.772-48.43677-13.41-46.569023-28.309.972833-7.76 11.659223-15.696 32.059223-23.809z"
    fill="#9e9e9e"
    fill-rule="evenodd"
  /></svg>
