<svg xmlns="http://www.w3.org/2000/svg" width="256" height="256"><path fill-opacity=".016" d="M0 128.004v128.004l128.25-.254 128.25-.254.254-127.75L257.008 0H0v128.004m.485.496c0 70.4.119 99.053.265 63.672.146-35.38.146-92.98 0-128C.604 29.153.485 58.1.485 128.5" fill="#1976D2" fill-rule="evenodd"/><path fill-opacity=".227" d="M112.43.977C82.008 5.301 56.127 18.465 35.406 40.156 17.276 59.134 5.788 82.067 1.467 107.907c-2.485 14.86-1.65 37.886 1.861 51.314 8.106 31.002 24.45 54.939 50.672 74.216 8.929 6.563 28.553 15.973 40 19.179 8.518 2.386 11.659 2.709 30.387 3.126 13.705.305 22.988.062 27-.705 45.029-8.617 82.467-40.638 97.968-83.793 4.746-13.213 6.936-25.575 7.381-41.67.236-8.499-.004-15.819-.556-17-.533-1.141-1.468-5.058-2.077-8.706-3.757-22.471-17.438-48.156-34.995-65.699-18.22-18.206-40.969-30.39-66.608-35.675C143.161.569 121.161-.264 112.43.977M48 92c0 1.333.667 2 2 2s2-.667 2-2-.667-2-2-2-2 .667-2 2m9.71 0c-.416 1.591-.03 2 1.884 2C61.333 94 62 93.446 62 92c0-1.292-.667-2-1.883-2-1.043 0-2.117.893-2.407 2M118 92c0 1.333.667 2 2 2s2-.667 2-2-.667-2-2-2-2 .667-2 2m10-.073c0 1.374.644 2.073 1.912 2.073 2.378 0 2.154-3.353-.256-3.823-1.113-.218-1.656.357-1.656 1.75M53 97c0 1.333.667 2 2 2s2-.667 2-2-.667-2-2-2-2 .667-2 2m10 0c0 1.333.667 2 2 2s2-.667 2-2-.667-2-2-2-2 .667-2 2m60 0c0 1.333.667 2 2 2s2-.667 2-2-.667-2-2-2-2 .667-2 2m9 0c0 1.467.667 2 2.5 2s2.5-.533 2.5-2-.667-2-2.5-2-2.5.533-2.5 2m-74.29 5c-.416 1.591-.03 2 1.884 2 1.739 0 2.406-.554 2.406-2 0-1.292-.667-2-1.883-2-1.043 0-2.117.893-2.407 2m10.013-.048c-.426 1.629-.062 2.048 1.782 2.048 1.639 0 2.243-.513 2.062-1.75-.368-2.515-3.207-2.735-3.844-.298m60 0c-.426 1.629-.062 2.048 1.782 2.048 1.639 0 2.243-.513 2.062-1.75-.368-2.515-3.207-2.735-3.844-.298M137 102c0 1.446.667 2 2.406 2 1.914 0 2.3-.409 1.884-2-.29-1.107-1.364-2-2.407-2-1.216 0-1.883.708-1.883 2M.402 129c0 8.525.154 12.012.341 7.75.188-4.262.188-11.237 0-15.5-.187-4.263-.341-.775-.341 7.75M166 164v6h26v-12h-26v6" fill="#1976D2" fill-rule="evenodd"/><path fill-opacity=".129" d="M115.346 1.123C65.709 5.965 22.335 40.624 6.628 88c-4.83 14.568-6.13 23.301-6.101 41 .03 18.243 1.438 27.07 6.704 42 14.865 42.15 51.294 74.144 94.426 82.931 12.982 2.644 39.346 2.901 51.135.498 52.445-10.693 91.809-51.066 101.819-104.429 2.04-10.876 2.981-32.405 1.549-35.45-.53-1.128-1.512-5.425-2.182-9.55-2.497-15.378-10.111-33.795-20.255-48.992-6.298-9.434-23.948-27.013-33.441-33.307-25.393-16.834-55.403-24.458-84.936-21.578M89 36.5V48H76v37h77V73h13V37h-13V25H89v11.5M47.18 92.25c.203 1.424 1.124 2.364 2.509 2.561 1.363.195 2.305 1.137 2.5 2.5.197 1.385 1.137 2.306 2.561 2.509 1.446.205 2.25 1.009 2.25 2.25 0 1.392.697 1.93 2.5 1.93 1.833 0 2.5-.533 2.5-2s.667-2 2.5-2 2.5.533 2.5 2 .667 2 2.5 2 2.5-.533 2.5-2-.667-2-2.5-2c-2 0-2.5-.5-2.5-2.5s-.5-2.5-2.5-2.5-2.5-.5-2.5-2.5-.5-2.5-2.5-2.5-2.5.5-2.5 2.5-.5 2.5-2.5 2.5-2.5-.5-2.5-2.5c0-2.018-.495-2.5-2.57-2.5-2.092 0-2.51.418-2.25 2.25M97 95c0 4.667-.167 5-2.5 5-2 0-2.5.5-2.5 2.5s-.5 2.5-2.5 2.5-2.5.5-2.5 2.5c0 2.364-.3 2.5-5.5 2.5H76v24h13v24h26V169.905l6.197.297 6.198.298-.27 5.75-.27 5.75h13.05l.297 6.25.298 6.25 32.25.264 32.25.264V206h13.046l-.273-17.75-.273-17.75-6.25-.298-6.25-.297V158h-13v-12h-39v-24h-13v-12h-24v-2.5c0-2-.5-2.5-2.5-2.5s-2.5-.5-2.5-2.5-.5-2.5-2.5-2.5c-2.333 0-2.5-.333-2.5-5v-5h-9v5m20.18-2.75c.203 1.424 1.124 2.364 2.509 2.561 1.363.195 2.305 1.137 2.5 2.5.197 1.385 1.137 2.306 2.561 2.509 1.446.205 2.25 1.009 2.25 2.25 0 1.392.697 1.93 2.5 1.93 1.833 0 2.5-.533 2.5-2s.667-2 2.5-2 2.5.533 2.5 2 .667 2 2.5 2 2.5-.533 2.5-2-.667-2-2.5-2c-2 0-2.5-.5-2.5-2.5s-.5-2.5-2.5-2.5-2.5-.5-2.5-2.5-.5-2.5-2.5-2.5-2.5.5-2.5 2.5-.5 2.5-2.5 2.5-2.5-.5-2.5-2.5c0-2.018-.495-2.5-2.57-2.5-2.092 0-2.51.418-2.25 2.25M57 97.5c0 2 .5 2.5 2.5 2.5s2.5-.5 2.5-2.5-.5-2.5-2.5-2.5-2.5.5-2.5 2.5m70 0c0 2 .5 2.5 2.5 2.5s2.5-.5 2.5-2.5-.5-2.5-2.5-2.5-2.5.5-2.5 2.5M.389 128.5c.001 7.15.161 9.944.353 6.208.193-3.735.192-9.585-.003-13-.194-3.414-.352-.358-.35 6.792" fill="#1976D2" fill-rule="evenodd"/><path fill-opacity=".526" d="M109.635 2.034c-19.474 3.065-42.064 12.481-57.626 24.02C26.25 45.152 8.725 73.293 2.333 105.818c-2.511 12.773-2.266 34.66.535 47.916 6.684 31.624 23.189 57.879 48.256 76.762C73.873 247.632 99.064 256 127.904 256c15.74 0 26.725-1.631 39.825-5.912 43.821-14.319 77.396-52.2 85.611-96.588 4-21.616 4.473-27.913 2.685-35.736-.536-2.345-1.692-8.244-2.57-13.109-5.91-32.762-26.042-63.303-53.985-81.895C184.785 12.989 171.832 7.475 154 3.402c-7.843-1.791-36.135-2.664-44.365-1.368M62.798 30.24 62.5 36.5l-6 .1-6 .1-.298 6.15-.297 6.15H37.5l.202 17.75.202 17.75 58.048.258 58.048.258V73.095l6.25-.297 6.25-.298v-36l-6.201-.296-6.202-.297-.298-5.703-.299-5.704-45.202-.26-45.202-.26-.298 6.26M47 92.5c0 2 .5 2.5 2.5 2.5s2.5.5 2.5 2.5.5 2.5 2.5 2.5 2.5.5 2.5 2.5.5 2.5 2.5 2.5 2.5-.5 2.5-2.5.5-2.5 2.5-2.5 2.5.5 2.5 2.5.5 2.5 2.5 2.5 2.5-.5 2.5-2.5-.5-2.5-2.5-2.5-2.5-.5-2.5-2.5-.5-2.5-2.5-2.5-2.5-.5-2.5-2.5-.5-2.5-2.5-2.5-2.5.5-2.5 2.5-.5 2.5-2.5 2.5-2.5-.5-2.5-2.5-.5-2.5-2.5-2.5-2.5.5-2.5 2.5M97 95c0 4.667-.167 5-2.5 5-2 0-2.5.5-2.5 2.5s-.5 2.5-2.5 2.5-2.5.5-2.5 2.5v2.5H52v-2.5c0-2-.5-2.5-2.5-2.5s-2.5-.5-2.5-2.5-.5-2.5-2.5-2.5-2.5-.5-2.5-2.5c0-1.823-.535-2.5-1.976-2.5-1.929 0-1.983.908-2.25 37.5l-.274 37.501 6.25-.001H50v24h13v13h13v12h13v12h103v-12h13v-12h13v-37h-13v-12h-13v-12h-37.938l-.281-12.25-.281-12.25-6.25-.298-6.25-.297v-10.843l-12.25-.281c-11.74-.269-12.263-.372-12.561-2.47-.195-1.363-1.137-2.305-2.5-2.5-1.364-.194-2.306-1.136-2.5-2.5-.193-1.35-1.138-2.307-2.471-2.5-1.915-.276-2.125-.847-1.863-5.061l.296-4.75H97v5m20-2.5c0 2 .5 2.5 2.5 2.5s2.5.5 2.5 2.5.5 2.5 2.5 2.5 2.5.5 2.5 2.5.5 2.5 2.5 2.5 2.5-.5 2.5-2.5.5-2.5 2.5-2.5 2.5.5 2.5 2.5.5 2.5 2.5 2.5 2.5-.5 2.5-2.5-.5-2.5-2.5-2.5-2.5-.5-2.5-2.5-.5-2.5-2.5-2.5-2.5-.5-2.5-2.5-.5-2.5-2.5-2.5-2.5.5-2.5 2.5-.5 2.5-2.5 2.5-2.5-.5-2.5-2.5-.5-2.5-2.5-2.5-2.5.5-2.5 2.5m-60 5c0 2 .5 2.5 2.5 2.5s2.5-.5 2.5-2.5-.5-2.5-2.5-2.5-2.5.5-2.5 2.5m70 0c0 2 .5 2.5 2.5 2.5s2.5-.5 2.5-2.5-.5-2.5-2.5-2.5-2.5.5-2.5 2.5M.343 128.5c.003 4.4.179 6.076.39 3.724.212-2.352.209-5.952-.006-8S.339 124.1.343 128.5" fill="#1976D2" fill-rule="evenodd"/></svg>